<svg width="31" height="30" viewBox="0 0 31 30" fill="none" xmlns="http://www.w3.org/2000/svg">
    <path d="M29.0917 15C29.0917 22.7291 22.8061 29 15.0459 29C7.28567 29 1 22.7291 1 15C1 7.27089 7.28567 1 15.0459 1C22.8061 1 29.0917 7.27089 29.0917 15Z" stroke="#DF5060" stroke-width="2"/>
    <path d="M18.5221 11.0949L20.1216 11.2643C20.4351 11.2915 20.7326 11.4278 20.9608 11.6481C21.189 11.8684 21.3329 12.1586 21.3665 12.4665C21.4002 12.7744 21.3215 13.08 21.1447 13.3283L18.7398 15.0711C18.5442 15.2127 18.3073 15.2907 18.0603 15.2949C17.8134 15.2989 17.5682 15.2293 17.3571 15.0946C17.146 14.9599 14.4183 13.1971 14.4183 13.1971C14.1777 13.0646 13.8907 13.0554 13.6514 13.1725C13.4122 13.2896 13.2519 13.5178 13.2234 13.7819C13.1949 14.046 13.3018 14.312 13.509 14.492L16.2999 16.6001C16.499 16.7519 16.6485 16.9575 16.729 17.1904C16.8095 17.4232 16.817 17.6718 16.7506 17.9033L15.9318 20.7415C15.7583 20.9926 15.4974 21.1714 15.1955 21.2461C14.8938 21.3207 14.5706 21.2863 14.2841 21.1492C13.9974 21.0119 13.766 20.7808 13.6309 20.497L11.5767 16.3103L9.5281 12.1156C9.32253 11.6911 9.35775 11.1995 9.62099 10.8247C9.88413 10.4501 10.3353 10.2489 10.8058 10.2962L15.4546 10.7887L16.2211 10.8679L18.5221 11.0949Z" fill="#DF5060"/>
    </svg>
    