<svg width="328" height="328" viewBox="0 0 328 328" fill="none" xmlns="http://www.w3.org/2000/svg">
<path d="M116.063 246.164C118.797 245.196 121.598 244.428 124.443 243.868L124.788 245.131C124.826 245.28 124.917 245.41 125.043 245.497C125.17 245.585 125.324 245.623 125.477 245.606L136.743 244.294C139.843 237.226 145.534 226.517 145.616 226.353C145.534 223.68 145.616 221.433 145.616 218.874C139.17 221.269 127.248 225.812 121.016 228.714C120.875 228.805 120.766 228.939 120.704 229.094C120.643 229.25 120.631 229.421 120.671 229.584C120.671 229.584 120.786 229.994 120.934 230.584C117.883 230.584 108.749 230.141 106.551 232.224C106.209 232.7 106.042 233.279 106.075 233.864C105.944 236.127 107.076 253.708 108.88 258.874C109.815 261.58 111.783 261.285 113.127 258.694C114.684 254.792 115.683 250.689 116.096 246.508C116.096 246.295 116.047 246.312 116.063 246.164ZM114.177 231.486C116.178 231.322 116.801 231.355 121.098 231.224C121.869 234.143 123.459 240.145 124.279 243.212C121.386 243.66 118.53 244.323 115.735 245.196C114.864 240.673 114.343 236.089 114.177 231.486Z" fill="#F1F4F6"/>
<path d="M267.008 87.9532C267.418 87.3792 266.894 86.6412 266.451 86.0672C267.706 84.7773 269.097 83.6278 270.6 82.6396C273.138 81.375 275.457 79.7145 277.472 77.7196C278.308 76.8504 279.882 75.0628 279.292 74.0132C278.702 72.9636 277.652 72.898 276.225 73.5048C276.843 72.856 277.349 72.1072 277.718 71.2908C278.177 70.0116 277.094 68.9784 274.749 69.9296C275.602 68.5684 275.799 67.1416 274.356 66.4528C273.191 65.8952 271.486 67.2236 270.502 68.0928C268.569 69.7811 266.756 71.6003 265.073 73.5376C264.04 71.3728 262.4 68.88 260.35 69.6672C258.3 70.4544 259.891 73.9804 260.94 75.8992L257.218 78.474C256.655 78.1702 256.019 78.0285 255.381 78.064C251.15 78.7856 231.716 93.5784 229.748 93.5784C228.239 93.5784 206.689 83.2464 188.059 80.2616C188.023 80.1498 187.956 80.0508 187.866 79.9754C187.776 79.8999 187.667 79.8513 187.55 79.8352C184.301 79.2806 181.007 79.0337 177.71 79.0972C177.611 79.1041 177.514 79.1324 177.426 79.1804C177.337 79.2287 177.262 79.2955 177.202 79.376H175.824C175.496 78.0476 174.283 74.9808 173.856 73.8C174.972 72.8324 176.513 72.3404 177.317 70.7824C178.793 67.896 178.727 62.8776 178.317 59.6632C180.17 58.2528 180.22 55.9896 179.793 53.6772C179.629 52.7424 179.121 50.6268 178.334 50.102C177.891 49.8068 176.956 50.102 176.152 50.3972C175.349 48.5276 175.349 49.3804 175.677 48.626C175.83 48.2783 175.919 47.9062 175.939 47.5272C176.808 47.7896 178.612 46.0512 177.989 43.7552C177.663 42.9334 177.262 42.1429 176.792 41.3936C177.022 40.836 177.514 40.1636 175.972 38.1136C175.308 37.3974 174.446 36.895 173.496 36.6704H172.741C172.197 35.8805 171.398 35.3015 170.478 35.0304C169.09 34.6762 167.616 34.8825 166.378 35.6044C166.05 35.8504 165.788 36.1784 165.46 36.408C164.717 35.9578 163.868 35.7198 163 35.7198C162.132 35.7198 161.282 35.9578 160.54 36.408C160.105 36.5783 159.71 36.8347 159.378 37.1615C159.046 37.4886 158.782 37.8792 158.604 38.3104C157.801 38.0331 156.948 37.9264 156.101 37.997C155.255 38.0677 154.431 38.314 153.684 38.7204C150.851 40.2567 148.732 42.841 147.78 45.92C147.754 46.3843 147.754 46.8498 147.78 47.314H147.6C145.14 46.9532 142.008 52.7916 144.517 57.3344C144.812 57.8756 145.189 58.384 145.55 58.9744C146.6 60.6144 146.19 61.1064 148.535 63.1072C149.224 63.6976 149.338 63.6484 149.765 64.0092C150.191 64.37 150.027 64.1896 150.273 65.108C150.407 65.6489 150.648 66.1582 150.98 66.6058C151.312 67.0534 151.73 67.4306 152.208 67.7156C152.383 69.3198 153.067 70.8256 154.16 72.0124C154.506 72.4001 154.91 72.7316 155.357 72.9964C155.478 73.0644 155.613 73.1038 155.751 73.1112C156.243 76.1616 156.85 80.1304 157.112 81.8196L155.652 82.6068C153.743 83.3752 151.886 84.2683 150.093 85.28C149.952 85.3775 149.853 85.5233 149.814 85.69C148.076 86.6084 146.436 87.4776 145.501 88.0352C132.48 95.7596 95.4972 146.682 95.12 149.01C95.0786 149.144 95.0786 149.287 95.12 149.42C95.6502 150.266 96.2961 151.033 97.0388 151.7C96.8101 152.118 96.5349 152.508 96.2188 152.864C92.9388 155.013 88.0191 158.211 85.3787 161.064C85.1933 161.23 85.0543 161.44 84.9756 161.675C84.8966 161.91 84.8802 162.162 84.9282 162.405C84.9762 162.648 85.0868 162.875 85.2493 163.064C85.4118 163.251 85.6203 163.393 85.854 163.475C86.346 163.639 86.4283 163.59 89.6263 161.835C88.7473 162.606 88.0284 163.542 87.5107 164.59C87.2975 165.492 88.1175 166.017 89.1507 165.853C89.7319 165.7 90.2853 165.457 90.7907 165.132C90.4946 165.588 90.3375 166.121 90.3375 166.665C90.3375 167.209 90.4946 167.742 90.7907 168.198C92.4307 170.265 96.7275 163.754 98.9907 162.147C99.9091 163.311 101.155 166.034 103.14 165.312C104.862 164.672 102.976 160.884 103.14 159.785C103.807 159.144 104.52 158.553 105.272 158.014C106.537 158.951 107.983 159.617 109.519 159.966C112.225 159.966 140.466 131.462 142.614 129.183C141.844 136.432 137.957 167.542 138.777 173.594C139.154 176.333 145.73 176.726 148.502 176.874C147.666 196.554 147.108 226.369 146.96 226.681C142.614 236.045 141.434 238.604 139.974 241.441C137.317 246.525 126.132 265.286 124.87 269.55C124.689 270.223 124.673 270.485 125.378 271.732C123.265 273.954 121.303 276.316 119.507 278.8C118.605 280.44 122.475 295.725 125.214 301.137C125.837 302.35 126.854 304.22 128.215 304.172C132.315 304.023 132.299 289.296 132.184 285.18C132.183 285.053 132.137 284.931 132.053 284.835C132.796 283.726 133.607 282.664 134.48 281.654C135.002 282.013 135.55 282.33 136.12 282.605C136.678 282.851 137.301 282.424 137.76 282.047C143.221 277.75 172.676 241.047 178.99 223.729C181.86 215.824 185.681 204.902 186.763 197.161C187.425 192.267 187.486 187.31 186.944 182.401C186.944 182.331 186.971 182.264 187.02 182.215C187.069 182.166 187.136 182.138 187.206 182.138C187.276 182.138 187.343 182.166 187.392 182.215C187.441 182.264 187.468 182.331 187.468 182.401C188.29 187.337 188.45 192.362 187.944 197.341C186.73 208.083 178.252 230.469 173.725 238.702C177.628 237.98 185.566 236.406 189.404 235.258C202.196 231.371 214.004 219.776 215.037 206.755C215.372 200.62 215.372 194.473 215.037 188.338C214.926 179.868 213.826 171.441 211.757 163.229C215.234 161.343 218.415 159.129 219.448 157.096C221.662 152.75 215.808 127.74 214.528 120.72C221.531 121.491 233.454 122.885 239.014 118.539C245.377 113.422 259.12 99.0232 267.008 87.9532ZM131.298 284.278C128.346 282.49 124.214 278.242 123.59 274.913C124.263 274.06 124.968 273.273 125.624 272.388C127.847 275.78 130.618 278.778 133.824 281.26C132.924 282.215 132.08 283.223 131.298 284.278ZM261.678 76.3584C261.763 76.3044 261.825 76.2198 261.848 76.1223C261.873 76.0244 261.859 75.9213 261.81 75.8336C261.236 74.7676 259.514 71.012 260.711 70.5856C261.4 70.3232 262.006 70.7496 262.515 71.3236C263.291 72.3085 263.895 73.4174 264.302 74.6036C264.333 74.6999 264.389 74.7864 264.465 74.8535C264.54 74.9206 264.633 74.9656 264.732 74.9844C264.831 75.0029 264.934 74.9939 265.03 74.9587C265.124 74.9236 265.207 74.863 265.27 74.784C266.91 72.9636 270.748 68.8144 272.912 67.6992C274.552 66.8464 274.946 68.4208 270.928 72.0944C270.005 72.7981 269.119 73.548 268.271 74.3412C268.225 74.4056 268.199 74.4832 268.199 74.5628C268.199 74.6421 268.225 74.7196 268.271 74.784C268.271 75.2104 268.616 75.686 269.206 75.2432C270.632 73.9917 272.139 72.836 273.716 71.7828C274.521 71.2109 275.457 70.8498 276.438 70.7332C275.946 72.242 271.371 76.342 270.977 76.8012C270.853 76.9133 270.776 77.0696 270.766 77.2369C270.756 77.4041 270.811 77.569 270.92 77.6958C271.031 77.8225 271.185 77.9012 271.352 77.9149C271.52 77.9286 271.685 77.8762 271.814 77.7688C273.634 76.588 276.816 73.8328 277.914 74.2428C279.013 74.6528 275.75 77.7032 274.93 78.4248C270.223 82.5084 271.436 79.8844 265.992 85.4276C263.622 82.8313 260.901 80.5792 257.906 78.7364L261.678 76.3584ZM190.42 154.8C190.142 152.536 189.797 150.093 189.371 147.551L190.076 146.616C193.356 142.401 194.34 135.694 194.028 130.429C195.783 138.121 197.177 145.681 198.243 153.192L190.42 154.8ZM166.034 98.646C161.72 95.366 154.783 89.708 150.749 85.8376L157.309 82.5576C163.333 88.1843 168.489 94.6727 172.61 101.811C178.912 113.387 183.586 125.776 186.501 138.629L163.114 105.55L166.165 99.22C166.206 99.1225 166.214 99.0149 166.191 98.9123C166.168 98.8091 166.113 98.7164 166.034 98.646ZM177.12 80.0484C177.218 80.2288 178.35 82.6396 180.072 86.8544C180.072 87.0348 179.76 91.1348 179.613 92.578C177.519 91.7485 175.546 90.6455 173.742 89.298C174.102 87.8712 175.726 81.3932 175.841 79.9336L177.12 80.0484ZM171.298 97.662C171.413 97.3668 171.528 96.9732 171.659 96.514L172.758 97.088C173.381 97.498 173.135 96.2516 173.692 99.8596C173.692 100.466 173.856 101.139 173.889 101.877C173.135 100.516 172.2 99.056 171.314 97.662H171.298ZM170.38 96.2844C167.282 91.8898 163.754 87.8137 159.851 84.1156L172.2 89.4784C171.724 90.61 171.036 94.0704 170.396 96.2844H170.38ZM182.991 105.895C181.351 101.418 180.088 96.4156 179.465 95.1036C179.502 94.6945 179.502 94.2827 179.465 93.8736C179.703 93.9619 179.95 94.017 180.203 94.0376C180.362 94.0394 180.515 93.9839 180.635 93.8814C180.757 93.7791 180.836 93.6366 180.859 93.48C180.99 92.9388 181.204 90.2 181.236 89.5932C186.008 101.638 189.99 113.981 193.159 126.542C183.893 106.83 185.32 112.537 183.008 105.895H182.991ZM196.554 137.202C192.815 119.277 186.238 96.924 178.76 80.36C181.507 80.3615 184.249 80.581 186.96 81.016C188.354 93.48 187.19 93.0536 188.124 93.5456C189.059 94.0376 194.684 96.3008 195.521 96.6452C195.439 97.908 196.62 134.021 196.57 137.202H196.554ZM177.678 51.1516C178.533 53.0173 178.834 55.0891 178.547 57.1212C178.413 57.6386 178.14 58.1085 177.754 58.4788C177.369 58.8495 176.889 59.1059 176.367 59.2198C175.847 59.3337 175.302 59.3006 174.798 59.1241C174.294 58.9476 173.85 58.6345 173.512 58.22C172.729 56.5717 172.141 54.838 171.757 53.054C172.2 52.48 176.923 51.332 177.678 51.1516ZM155.111 67.5516C154.513 67.2788 153.899 67.0381 153.274 66.83C152.855 66.6577 152.482 66.3917 152.181 66.0524C151.88 65.713 151.662 65.3096 151.542 64.8725C151.421 64.4356 151.402 63.977 151.487 63.5315C151.572 63.0863 151.756 62.6662 152.028 62.3036C153.061 61.4344 153.996 61.4836 154.849 62.7792C155.39 63.7796 155.374 63.8616 155.62 63.96C155.691 63.991 155.767 64.0068 155.844 64.0059C155.921 64.005 155.997 63.9877 156.067 63.9552C156.136 63.9227 156.199 63.8753 156.248 63.8169C156.299 63.7584 156.336 63.6899 156.358 63.6156C156.601 62.5893 156.639 61.5248 156.472 60.4832C156.276 59.3516 156.243 54.3332 156.276 54.1692C156.755 54.4218 157.292 54.5408 157.834 54.5136C160.802 54.3988 161.392 52.8736 162.573 51.6272C163.934 51.7584 164.213 52.4144 165.755 51.6272C166.476 51.2166 167.139 50.7091 167.723 50.1184C168.194 50.3113 168.65 50.5418 169.084 50.8072C170.067 51.2798 171.175 51.4251 172.247 51.2214C173.318 51.0177 174.297 50.4759 175.037 49.6756C175.218 50.02 175.382 50.3644 175.529 50.7252C174.022 51.1931 172.603 51.9078 171.331 52.8408C171.052 53.1852 171.462 55.0548 171.56 55.4976C170.187 55.6706 168.857 56.0988 167.641 56.7604C167.395 55.9076 166.854 54.3168 166.001 53.874C165.744 53.7956 165.471 53.7956 165.214 53.874C163.738 54.1036 158.44 55.6944 157.801 56.5636C157.243 57.1704 158.834 61.8608 159.326 62.6316C161.212 65.5508 166.739 64.698 167.772 61.2868C168.028 60.1421 168.028 58.9547 167.772 57.81C168.248 57.81 169.674 57.3016 169.838 57.2524C170.97 59.7944 171.298 59.942 172.61 62.6808C172.43 62.8284 172.134 63.0744 171.888 63.2384C170.724 64.0092 170.478 63.878 170.544 64.206C170.563 64.271 170.605 64.3271 170.663 64.3632C170.72 64.3995 170.788 64.4135 170.855 64.4028C171.544 64.3044 172.216 64.1172 172.856 63.8452C173.239 63.7024 173.554 63.4215 173.742 63.058C174.201 62.0248 171.659 58.138 170.658 56.9736C170.855 56.9736 171.314 56.6456 171.659 56.4652C172.118 58.302 172.43 59.7452 174.201 60.4668C174.713 60.66 175.259 60.748 175.805 60.7256C176.352 60.703 176.888 60.5703 177.382 60.3356C177.645 63.222 177.596 67.9124 176.218 70.4708C175.513 71.7992 173.774 72.3076 172.659 73.4064C172.331 73.718 172.544 74.1608 172.659 74.6364C174.48 79.704 174.512 79.6876 174.414 80.3436C173.932 83.0663 173.258 85.7517 172.397 88.3796C171.987 88.1992 167.378 85.7556 158.358 82.246C158.08 80.3928 156.587 70.5036 156.112 68.6832C156.144 68.0436 156.062 67.896 155.111 67.4696V67.5516ZM166.591 60.8604C166.066 62.648 163.59 63.4188 161.819 62.9268C160.048 62.4348 159.933 61.5328 159.096 59.4008C158.704 58.5865 158.434 57.7188 158.293 56.826C158.834 56.2356 164.754 55.022 165.492 54.9072C166.527 56.6781 166.917 58.7532 166.591 60.7784V60.8604ZM102.418 159.326C101.795 159.933 102.631 161.917 102.762 163.639C102.762 163.787 102.762 164.426 102.664 164.476C101.762 164.771 100.926 163.41 100.417 162.59C99.9088 161.77 99.4004 160.654 98.5968 160.95C96.9568 161.72 93.152 166.772 91.6596 167.296C90.9052 165.853 95.2187 161.737 95.3663 161.507C95.4295 161.402 95.4626 161.28 95.4621 161.159C95.4615 161.036 95.4272 160.914 95.3631 160.81C95.2986 160.705 95.2068 160.62 95.0977 160.563C94.9882 160.507 94.8657 160.482 94.7431 160.49C94.4479 160.49 94.2508 160.753 93.7916 161.163C92.3949 162.525 90.7964 163.665 89.052 164.541C90.6336 162.726 92.3261 161.013 94.1196 159.408C94.2085 159.316 94.2708 159.203 94.3003 159.08C94.3003 159.08 93.9559 158.211 93.2835 158.555C92.3323 159.08 87.7072 161.753 86.2479 162.442C86.0511 162.311 86.1659 162.114 86.2479 161.917C88.56 159.08 93.6443 155.636 96.76 153.455C97.1259 153.078 97.4303 152.647 97.662 152.176C99.8203 154.183 102.122 156.031 104.55 157.702C103.802 158.193 103.09 158.736 102.418 159.326ZM140.581 174.234C140.22 174.004 139.958 173.791 139.908 173.496C139.006 166.804 144.025 128.888 143.943 127.395C143.943 127.308 143.925 127.221 143.891 127.14C143.858 127.06 143.807 126.987 143.745 126.926C143.682 126.864 143.608 126.816 143.526 126.784C143.445 126.752 143.358 126.737 143.27 126.739C142.434 126.739 143.91 126.739 123.017 146.747C121.639 148.043 111.11 158.112 109.355 158.785C106.944 158.604 97.8752 151.372 96.3992 149.092C99.2528 143.32 133.857 95.8252 145.829 88.56C146.747 88.0024 148.322 87.1332 150.044 86.2148C150.64 86.7766 151.281 87.2865 151.962 87.74C155.767 91.348 161.064 95.8416 165.082 99.22L161.95 105.436C161.902 105.518 161.878 105.611 161.878 105.706C161.878 105.801 161.902 105.895 161.95 105.977C187.386 142.467 187.009 142.057 187.173 142.057C188.804 150.489 189.818 159.028 190.207 167.608C190.207 169.92 190.207 169.724 190.306 169.56C190.404 169.396 190.306 169.674 190.306 169.674C186.337 174.004 147.059 178.038 140.581 174.234ZM231.24 119.9C223.811 120.934 215.414 119.392 213.79 119.326C212.888 114.954 211.09 110.817 208.51 107.174C208.47 107.121 208.413 107.085 208.347 107.073C208.283 107.06 208.216 107.073 208.16 107.108C208.104 107.144 208.063 107.199 208.045 107.263C208.029 107.326 208.036 107.394 208.067 107.453C209.018 109.388 212.2 117.736 212.987 119.769C212.741 120.556 220.4 152.225 218.235 156.489C216.3 160.343 205.033 165.197 200.966 166.591C200.162 157.461 198.847 148.383 197.03 139.4C197.587 134.677 196.866 106.6 196.652 96.2188C196.646 96.0984 196.606 95.9818 196.536 95.8834C196.467 95.7844 196.371 95.7077 196.259 95.6612L188.895 92.5616C188.862 88.6644 188.615 84.7716 188.157 80.9012C206.542 84.0828 227.96 94.5952 229.748 94.6116C232.339 94.6116 251.592 79.8516 255.578 79.2612C257.349 78.9824 264.958 85.6244 265.844 87.4612C258.07 98.318 244.409 112.586 238.079 117.522C236.04 118.886 233.685 119.704 231.24 119.9Z" fill="#F1F4F6"/>
<path d="M164.902 57.5804C164.881 57.4728 164.841 57.3702 164.78 57.2786C164.72 57.1868 164.642 57.1078 164.552 57.0461C164.461 56.9846 164.359 56.9414 164.251 56.919C164.145 56.8967 164.034 56.8958 163.926 56.9163C163.818 56.9366 163.716 56.9781 163.624 57.0383C163.532 57.0985 163.453 57.1758 163.392 57.2664C163.33 57.3571 163.286 57.459 163.265 57.5664C163.243 57.6737 163.241 57.7844 163.262 57.892C163.59 59.532 163.656 59.9092 164.377 59.9092C164.514 59.9095 164.648 59.8761 164.768 59.8117C164.888 59.747 164.991 59.6537 165.065 59.5395C165.14 59.4256 165.185 59.2947 165.197 59.1587C165.208 59.0227 165.186 58.8861 165.132 58.7612C165.082 58.4988 164.935 57.728 164.902 57.5804ZM169.92 68.4372C170.986 68.7488 172.003 68.2404 171.97 67.978C171.938 67.7156 171.97 67.8468 170.527 67.3056C169.56 66.9448 168.494 65.6656 168.116 65.8624C167.739 66.0592 168.313 67.1088 168.444 67.3056C168.796 67.8379 169.315 68.2365 169.92 68.4372ZM199.916 52.8572C197.768 61.8608 196.193 69.5032 195.931 71.0284C195.756 71.6919 195.723 72.3848 195.832 73.062C196.702 74.9152 207.936 78.5724 209.362 77.8508C210.789 77.1292 214.496 68.7816 218.809 60.1716C221.451 60.256 224.095 60.0637 226.697 59.5976C229.438 59.0949 232.104 58.2519 234.635 57.0884C240.178 54.53 246.246 43.5748 247.066 38.0644C247.681 32.0817 246.414 26.0564 243.442 20.828C229.682 -3.034 189.322 9.8072 192.602 36.3096C193.538 42.3737 196.062 48.0827 199.916 52.8572ZM209.92 72.3896C209.92 72.652 209.625 72.6192 208.28 72.3896C205.529 72.044 202.865 71.1933 200.424 69.8804C199.276 69.2572 198.965 69.126 199.08 68.8472C199.194 68.5684 199.44 68.6668 201.212 69.1588C201.376 69.1588 206.46 70.7988 207.919 71.3072C209.805 72.16 209.92 72.16 209.92 72.3896ZM209.625 45.7068C211.375 45.7975 213.121 45.4364 214.692 44.6572C216.152 45.3645 217.732 45.793 219.35 45.92C216.595 51.0532 211.002 61.5164 209.198 67.0924L202.245 65.1736C203.885 61.1392 207.509 51.6928 209.592 45.7068H209.625ZM209.051 44.3456C207.826 44.1607 206.696 43.5793 205.835 42.6907C204.973 41.8018 204.426 40.655 204.278 39.4256C203.819 36.1456 205.918 32.472 209.084 33.3412C211.068 33.8824 211.314 35.4568 210.97 37.4412C210.674 38.8844 209.608 42.5088 209.018 44.28L209.051 44.3456ZM213.512 40.4096C213.687 39.3364 214.09 38.3131 214.692 37.4084C214.979 36.9152 215.399 36.5124 215.903 36.2458C216.408 35.9789 216.976 35.8591 217.546 35.8996C218.76 36.2604 219.284 38.5564 218.284 39.9996C217.322 41.2755 216.126 42.3555 214.758 43.1812C214.287 42.9051 213.912 42.4915 213.684 41.9959C213.456 41.5006 213.383 40.9469 213.479 40.4096H213.512ZM198.44 19.5652C205.787 10.7256 219.612 7.216 229.6 10.8568C235.026 12.7193 239.589 16.4904 242.441 21.4676C245.269 26.4427 246.478 32.1741 245.902 37.8676C245.147 42.968 239.342 53.5624 234.241 55.9076C229.578 58.0348 224.49 59.0668 219.366 58.9252C218.809 58.9252 218.218 58.9252 218.005 59.3188C217.038 61.2868 215.266 65.0916 213.528 68.6668C212.327 68.0871 211.083 67.6044 209.805 67.2236C211.708 61.7788 217.71 51.086 220.564 45.9036C223.036 46.1153 225.522 45.6862 227.78 44.6572C228.389 44.3361 228.895 43.8476 229.238 43.2489C229.579 42.6504 229.745 41.9667 229.712 41.2779C229.679 40.5894 229.45 39.9245 229.053 39.3609C228.656 38.7976 228.106 38.359 227.468 38.0972C224.926 36.8508 222.646 39.8356 221.318 42.3448C220.957 43.0008 220.547 43.7716 220.088 44.6408C218.761 44.5537 217.453 44.2833 216.201 43.8372C217.448 42.9605 218.554 41.899 219.481 40.6884C220.001 39.9042 220.263 38.9783 220.234 38.0385C220.204 37.0983 219.884 36.1906 219.317 35.4404C218.872 34.9231 218.253 34.5858 217.576 34.4922C216.9 34.3986 216.212 34.5551 215.644 34.932C214.494 35.6378 213.575 36.66 212.992 37.876C212.411 39.0919 212.193 40.4502 212.364 41.7872C212.541 42.5419 212.949 43.2235 213.528 43.7388C212.452 44.1843 211.298 44.4076 210.133 44.3948C210.789 42.4596 211.855 38.9664 212.134 37.5396C212.309 36.7262 212.347 35.8895 212.249 35.0632C212.122 34.3541 211.792 33.6966 211.3 33.17C210.81 32.6432 210.176 32.2701 209.477 32.0948C205.492 30.9632 202.556 35.3748 203.13 39.4912C203.292 40.9663 203.926 42.3499 204.936 43.437C205.946 44.5242 207.28 45.2568 208.739 45.5264C206.64 51.4304 203.36 60.9588 201.72 65.026L198.112 64.0912C200.424 52.48 200.703 52.7588 200.375 52.6112C196.648 47.8603 194.265 42.1969 193.471 36.2112C193.084 33.2431 193.327 30.227 194.183 27.3592C195.038 24.4911 196.49 21.8355 198.44 19.5652ZM221.203 44.7392C222.351 42.6564 224.647 38.0972 226.878 39.2124C227.323 39.3922 227.713 39.6904 228.001 40.0747C228.291 40.4591 228.468 40.915 228.518 41.3936C228.485 44.28 223.991 44.7884 221.138 44.7392H221.203ZM283.982 51.9716C285.958 50.8093 288.293 50.4124 290.542 50.8564C293.013 50.9005 295.374 51.8884 297.139 53.6176C298.906 55.3467 299.941 57.6857 300.037 60.1552C298.552 59.2932 296.814 58.9687 295.118 59.2368C291.002 59.5976 285.622 61.828 286.344 65.7968C286.934 69.0768 291.264 68.634 294.544 67.7484C297.824 66.8628 300.43 65.2556 301.104 62.0904C305.088 64.9932 306.024 70.0772 306.188 75.0464C306.188 75.1159 306.215 75.1827 306.266 75.2319C306.313 75.2811 306.382 75.3088 306.45 75.3088C306.519 75.3088 306.588 75.2811 306.635 75.2319C306.686 75.1827 306.713 75.1159 306.713 75.0464C306.826 69.4868 305.827 64.042 301.283 60.8768C301.331 59.453 301.086 58.0345 300.57 56.707C300.054 55.3798 299.27 54.1713 298.274 53.1545C297.276 52.138 296.081 51.3347 294.764 50.7929C293.447 50.2514 292.032 49.9827 290.608 50.0036C288.331 49.6711 286.011 50.147 284.048 51.3484C283.441 51.6436 283.72 52.0864 283.982 51.9716ZM298.939 63.7304C297.086 66.1576 291.838 67.4204 289.411 67.0104C288.509 66.8628 287.771 66.4856 287.574 65.5508C286.984 62.2708 292.642 60.4832 296.02 60.3684C297.395 60.2628 298.766 60.6147 299.923 61.3688C299.798 62.2264 299.461 63.0386 298.939 63.7304ZM276.471 32.8C278.226 30.6352 277.045 26.8632 272.142 26.8468C270.239 26.8468 269.321 28.782 269.452 30.6352C269.747 35.0468 274.716 34.9156 276.471 32.8ZM270.6 30.5532C270.6 29.4708 271.108 28.0604 272.24 28.0768C274.88 28.0768 276.094 29.3068 276.094 30.668C276.028 33.7676 270.387 35.3748 270.6 30.5532ZM269.928 216.48C255.512 210.724 248.821 238.587 237.046 262.531C236.971 263.537 237.004 264.55 237.144 265.549C237.144 268.058 237.423 284.671 238.882 286.557C239.276 287.312 240.932 286.557 241.703 286.082C248.25 282.03 254.419 277.396 260.137 272.24C260.186 272.184 260.222 272.12 260.245 272.049C260.267 271.978 260.275 271.904 260.268 271.83C263.318 267.484 274.749 244.852 277.521 233.503C279.456 225.467 277.537 219.481 269.928 216.48ZM275.077 237.308C267.36 236.319 259.898 233.882 253.085 230.125C256.922 222.86 261.662 214.578 269.485 217.694C278.193 221.154 278.013 228.321 275.077 237.259V237.308ZM247.788 279.948C247.283 279.526 246.734 279.162 246.148 278.866C243.931 277.739 241.371 277.492 238.981 278.177C238.817 276.225 237.882 263.532 237.882 263.417C250.166 267.91 246.377 265.959 258.546 272.01C257.267 273.224 252.462 276.586 247.788 279.915V279.948ZM256.25 232.486C257.849 233.36 259.492 234.154 261.17 234.864C257.41 240.768 254.089 246.942 251.232 253.331C248.476 259.087 248.575 259.054 245.77 265.336C244.13 264.811 242.49 264.319 240.85 263.827C242.622 260.301 255.217 234.52 256.25 232.454V232.486ZM246.41 265.5C251.74 255.938 257.168 244.048 261.826 235.078C263.466 235.766 265.106 236.324 266.746 236.816C265.877 238.456 263.335 242.818 262.662 244.081C261.99 245.344 255.25 258.628 254.774 259.645C254.02 261.285 251.953 265.86 251.314 267.32C249.641 266.582 248.034 266.024 246.344 265.467L246.41 265.5ZM251.904 267.533C252.904 265.713 257.021 258.07 257.529 257.086C258.3 255.561 266.894 237.997 267.369 236.98C268.878 237.406 270.469 237.767 271.486 237.964C268.484 246.164 259.842 261.957 256.726 269.747C253.888 268.419 253.249 268.091 251.838 267.5L251.904 267.533ZM252.904 230.6L255.84 232.24C249.924 242.315 244.771 252.818 240.424 263.663L237.964 262.908C247.492 242.605 247.935 239.948 252.839 230.568L252.904 230.6ZM259.661 271.174L257.185 269.993C259.858 264.745 268.222 251.281 272.043 238.079C272.962 238.243 273.864 238.39 274.733 238.505C270.518 249.75 265.458 260.66 259.596 271.141L259.661 271.174ZM208.28 281.818C208.933 281.276 209.401 280.544 209.615 279.723C209.83 278.901 209.782 278.033 209.477 277.242C209.338 276.099 208.814 275.038 207.992 274.233C207.169 273.428 206.096 272.926 204.951 272.813C203.805 272.698 202.655 272.977 201.69 273.603C200.724 274.229 200 275.166 199.637 276.258C197.538 274.897 195.258 273.454 193.077 272.076C194.717 269.895 199.539 270.862 200.031 272.65C200.042 272.72 200.08 272.783 200.136 272.824C200.193 272.865 200.265 272.882 200.334 272.872C200.404 272.861 200.465 272.822 200.508 272.766C200.549 272.709 200.567 272.638 200.556 272.568C200.31 269.714 194.373 268.042 191.978 271.404C189.863 270.108 187.239 268.534 185.041 267.336C186.927 265.696 191.142 266.615 191.601 268.32C191.623 268.379 191.664 268.427 191.719 268.458C191.772 268.489 191.836 268.499 191.896 268.487C191.958 268.475 192.013 268.442 192.052 268.393C192.091 268.345 192.111 268.283 192.11 268.222C191.896 265.565 186.402 263.778 183.91 266.697C182.865 266.112 181.767 265.628 180.63 265.254C180.422 265.167 180.194 265.143 179.972 265.184C179.751 265.225 179.546 265.329 179.383 265.483C175.234 270.649 161.245 284.064 154.783 285.622C154.621 285.647 154.467 285.714 154.339 285.817C154.211 285.919 154.112 286.053 154.052 286.206C153.992 286.359 153.973 286.526 153.998 286.687C154.023 286.85 154.09 287.003 154.193 287.131C155.611 288.572 157.236 289.793 159.014 290.756C157.374 292.396 156.095 293.872 155.144 294.938C154.652 295.462 154.39 305.499 154.816 307.715C154.879 307.929 155.02 308.117 155.21 308.24C157.276 309.65 183.893 321.163 186.616 319.621C188.436 318.586 210.166 295.971 210.51 295.282C211.035 294.2 210.855 286.984 210.822 284.097C210.691 283.228 209.067 282.293 208.28 281.818ZM155.8 303.483V299.825C162.606 303.105 178.186 309.796 184.09 311.666C185.599 312.158 185.73 312.092 186.517 311.666C191.027 308.779 206.952 290.838 209.871 288.099V291.559C201.015 300.433 185.976 315.98 185.697 315.095C184.074 314.996 157.21 304.139 155.8 303.483ZM207.87 276.291C208.459 277.284 208.776 278.416 208.788 279.571C208.783 279.938 208.693 280.299 208.525 280.627C208.357 280.954 208.116 281.238 207.821 281.457C206.443 280.538 203.836 278.833 200.752 276.832C202.442 273.503 206.197 273.454 207.804 276.291H207.87ZM155.39 286.787C162.376 284.72 175.644 271.928 180.105 266.385C181.178 266.685 182.214 267.108 183.188 267.648C181.548 270.698 183.303 274.044 183.926 273.568C184.27 273.306 183.647 273.208 183.549 271.6C183.506 270.426 183.773 269.262 184.32 268.222C186.583 269.403 189.24 270.944 191.486 272.24C190.109 275.307 191.765 278.341 192.339 277.898C192.913 277.455 192.077 277.554 191.978 275.946C191.939 274.893 192.14 273.843 192.569 272.88C194.881 274.241 197.243 275.651 199.408 276.98C199.074 277.797 198.942 278.683 199.021 279.561C199.101 280.44 199.391 281.287 199.867 282.031C199.889 282.058 199.915 282.083 199.946 282.101C199.976 282.117 200.01 282.129 200.045 282.133C200.08 282.138 200.115 282.136 200.15 282.127C200.184 282.117 200.215 282.102 200.244 282.08C200.271 282.058 200.296 282.032 200.312 282.001C200.33 281.971 200.342 281.937 200.347 281.901C200.35 281.867 200.349 281.831 200.34 281.797C200.33 281.763 200.315 281.73 200.293 281.703C199.998 281.051 199.853 280.342 199.867 279.627C199.881 278.912 200.054 278.21 200.375 277.57C204.196 279.899 207.28 281.85 208.231 282.49C208.05 282.654 190.945 297.873 185.123 302.401C181.302 301.399 161.245 291.444 155.39 286.787ZM156.013 295.922C163.442 299.202 180.318 306.811 184.205 307.551C184.877 307.682 185.14 307.73 186.419 306.713C191.88 302.335 209.641 283.753 209.805 283.95C209.813 283.999 209.813 284.048 209.805 284.097V287.377C206.148 290.313 185.812 311.666 185.484 310.649C183.844 310.649 157.194 299.777 155.833 299.169C155.8 298.48 155.948 296.643 156.013 295.922ZM185.878 318.521C184.238 319.457 159.26 309.304 155.915 307.238C155.789 306.191 155.729 305.141 155.734 304.089C162.918 307.631 183.811 316.454 185.73 316.374C188.534 316.225 208.362 293.904 209.772 292.346C209.789 293.184 209.705 294.021 209.526 294.839C209.248 295.38 186.96 317.915 185.878 318.521ZM50.003 226.074C50.1178 227.829 50.1998 229.354 50.1998 230.781C50.1998 230.998 50.2863 231.207 50.4398 231.36C50.5937 231.515 50.8021 231.601 51.0198 231.601C51.2372 231.601 51.4459 231.515 51.5995 231.36C51.7533 231.207 51.8398 230.998 51.8398 230.781C51.8398 229.256 51.7578 227.747 51.643 225.959C51.6278 225.742 51.5267 225.54 51.3621 225.396C51.1975 225.253 50.9831 225.182 50.7655 225.197C50.5481 225.212 50.3456 225.313 50.2025 225.477C50.0594 225.642 49.9878 225.857 50.003 226.074ZM299.89 193.192C299.783 193.199 299.679 193.226 299.58 193.273C299.485 193.321 299.398 193.386 299.33 193.468C299.258 193.549 299.205 193.643 299.172 193.744C299.139 193.847 299.127 193.955 299.136 194.061C299.234 195.57 299.333 197.194 299.333 198.768C299.333 198.985 299.419 199.194 299.574 199.347C299.726 199.502 299.935 199.588 300.153 199.588C300.371 199.588 300.579 199.502 300.731 199.347C300.886 199.194 300.973 198.985 300.973 198.768C300.973 197.128 300.874 195.488 300.758 193.946C300.752 193.84 300.725 193.735 300.678 193.639C300.63 193.542 300.564 193.456 300.484 193.386C300.403 193.315 300.308 193.262 300.207 193.229C300.105 193.196 299.998 193.182 299.89 193.192ZM45.7554 221.99C45.9728 221.99 46.1815 221.904 46.3351 221.75C46.4889 221.597 46.5754 221.388 46.5754 221.17C46.5754 220.953 46.4889 220.744 46.3351 220.591C46.1815 220.437 45.9728 220.35 45.7554 220.35C43.771 220.35 42.1146 220.498 40.4746 220.465C40.2555 220.465 40.0452 220.551 39.889 220.704C39.7324 220.858 39.6424 221.067 39.6382 221.285C39.6382 221.503 39.7247 221.712 39.8783 221.865C40.0321 222.019 40.2405 222.105 40.4582 222.105C42.1474 222.138 44.0006 222.072 45.7554 221.99ZM294.806 188.338C292.838 188.338 291.182 188.452 289.526 188.469C289.308 188.469 289.099 188.555 288.946 188.709C288.792 188.862 288.706 189.071 288.706 189.289C288.706 189.506 288.792 189.715 288.946 189.868C289.099 190.023 289.308 190.109 289.526 190.109C291.297 190.109 293.134 190.109 294.905 189.978C295.122 189.964 295.326 189.865 295.47 189.703C295.614 189.54 295.688 189.326 295.676 189.108C295.662 188.891 295.564 188.687 295.401 188.543C295.237 188.398 295.024 188.324 294.806 188.338ZM49.5602 211.855C49.6586 213.364 49.757 214.988 49.757 216.562C49.7612 216.778 49.8489 216.984 50.0018 217.137C50.1545 217.29 50.3608 217.378 50.577 217.382C50.7944 217.382 51.0031 217.296 51.1567 217.141C51.3105 216.988 51.397 216.779 51.397 216.562C51.397 214.922 51.2986 213.282 51.2002 211.74C51.185 211.523 51.0839 211.321 50.9193 211.177C50.7547 211.034 50.5403 210.963 50.3227 210.978C50.1053 210.993 49.9028 211.094 49.7597 211.258C49.6166 211.423 49.545 211.638 49.5602 211.855ZM300.529 184.549C300.529 182.909 300.43 181.269 300.317 179.728C300.302 179.51 300.201 179.308 300.037 179.165C299.873 179.021 299.658 178.95 299.44 178.965C299.223 178.98 299.02 179.081 298.877 179.245C298.733 179.411 298.662 179.625 298.677 179.842C298.775 181.351 298.874 182.975 298.874 184.549C298.874 184.767 298.96 184.976 299.115 185.129C299.267 185.283 299.476 185.369 299.694 185.369C299.911 185.369 300.123 185.283 300.278 185.13C300.436 184.977 300.526 184.768 300.529 184.549ZM61.6634 221.777C61.7711 221.773 61.8769 221.747 61.9747 221.702C62.0725 221.657 62.1608 221.593 62.2338 221.514C62.3069 221.434 62.3638 221.343 62.4008 221.24C62.4381 221.139 62.4551 221.032 62.4506 220.924C62.4339 220.71 62.337 220.509 62.1787 220.363C62.0206 220.218 61.8131 220.137 61.5978 220.137C59.6134 220.219 57.957 220.285 56.3006 220.252C56.0829 220.252 55.8745 220.338 55.7207 220.493C55.5671 220.646 55.4806 220.855 55.4806 221.072C55.4806 221.289 55.5671 221.498 55.7207 221.651C55.8745 221.806 56.0829 221.892 56.3006 221.892C58.0554 221.925 59.8922 221.859 61.6634 221.777ZM310.714 188.124C309.074 188.206 307.253 188.256 305.434 188.256C305.326 188.251 305.219 188.269 305.115 188.307C305.013 188.346 304.924 188.405 304.843 188.478C304.766 188.553 304.703 188.644 304.661 188.743C304.62 188.843 304.596 188.951 304.596 189.059C304.596 189.278 304.682 189.488 304.837 189.645C304.989 189.801 305.198 189.891 305.416 189.896C307.285 189.896 308.794 189.896 310.78 189.764C310.887 189.76 310.992 189.734 311.09 189.689C311.189 189.644 311.278 189.58 311.35 189.501C311.424 189.422 311.481 189.33 311.517 189.227C311.555 189.126 311.57 189.02 311.567 188.912C311.546 188.698 311.448 188.5 311.29 188.355C311.135 188.209 310.929 188.127 310.714 188.124ZM23.9761 173.184C24.1893 173.348 70.4374 166.493 72.4218 165.279C72.5318 165.199 72.6195 165.092 72.6768 164.969C72.734 164.846 72.7594 164.709 72.7498 164.574C72.7498 162.458 69.9782 142.598 68.6498 137.645C68.4858 137.038 68.3218 136.432 67.9446 136.218C65.4354 134.71 21.2209 143.041 18.5805 144.746C18.509 144.789 18.4471 144.846 18.3991 144.913C18.351 144.981 18.318 145.058 18.3017 145.14C17.7441 147.124 22.5493 172.2 23.9761 173.184ZM19.3021 145.534C22.4509 144.107 62.5818 136.76 67.1738 137.334C68.289 140.204 71.2738 161.228 71.4706 164.312C69.191 164.984 24.5993 172.643 24.4353 172.676C24.2713 172.708 24.2549 172.905 23.9105 171.872C22.4673 167.542 19.2201 149.24 19.3021 145.534Z" fill="#F1F4F6"/>
<path d="M76.0298 166.739C76.1189 166.573 76.1589 166.385 76.1446 166.198C76.1446 163.59 72.4054 134.644 71.077 132.332C70.9729 132.161 70.8256 132.021 70.6497 131.926C70.4741 131.831 70.2764 131.784 70.0766 131.79C64.5826 131.118 18.2362 140.171 15.1858 142.286C14.7594 142.582 14.825 143.32 14.8742 144.107C15.1366 148.42 19.7942 176.792 21.4342 176.628C21.6146 176.628 21.549 176.497 21.1226 177.366C18.5642 182.63 13.7098 199.49 13.8082 202.884C13.8082 204.311 14.1362 206.164 15.5466 206.066C25.6654 204.82 75.2754 196.948 89.5434 194.012C90.101 193.897 90.4618 193.389 90.4454 192.552C90.2769 191.158 89.8547 189.808 89.199 188.567C87.1982 184.812 78.8998 169.937 76.0298 166.739ZM21.5326 176.12C20.2534 174.48 15.5466 146.222 15.9074 143.09C19.5154 141.22 65.2386 132.381 70.0274 133.102C71.3394 136.71 74.7342 162.77 74.9474 165.902C69.1418 167.903 28.9454 174.398 21.5326 176.12ZM22.2542 176.612C23.6318 176.267 70.5522 168.412 74.849 167.28C77.1942 169.461 87.7886 188.305 88.4774 189.912C79.0638 191.552 23.2218 200.884 15.0054 202.13C15.1202 197.161 20.2206 179.793 22.2542 176.612Z" fill="#F1F4F6"/>
<path d="M28.4215 193.618C29.8483 193.405 60.1227 189.764 71.0615 186.796C71.1289 186.778 71.1868 186.735 71.2222 186.676C71.2574 186.616 71.2676 186.543 71.2503 186.476C71.2327 186.409 71.1894 186.351 71.1292 186.316C71.0693 186.281 70.9977 186.27 70.9303 186.288C68.7819 186.73 42.5747 190.224 28.3887 193.11C28.3495 193.103 28.3092 193.105 28.2709 193.115C28.2327 193.126 28.1973 193.145 28.1676 193.173C28.1378 193.199 28.1146 193.232 28.0994 193.269C28.0844 193.306 28.0778 193.345 28.0804 193.385C28.083 193.424 28.0945 193.464 28.1143 193.498C28.134 193.532 28.1613 193.562 28.1941 193.584C28.2271 193.607 28.2647 193.623 28.304 193.628C28.3434 193.634 28.3835 193.631 28.4215 193.618ZM50.5451 79.5072C49.9324 80.8908 49.4174 82.3158 49.0035 83.7712C48.9791 84.0047 49.0435 84.2391 49.1839 84.4272C50.8403 86.92 67.8143 106.059 72.2423 108.748C72.8491 109.126 73.5707 109.388 74.0135 108.847C77.23 104.844 81.4281 101.743 86.1987 99.8432C90.0816 98.4695 94.1527 97.7005 98.2691 97.5636C101.549 97.2684 102.123 96.9404 103.386 94.792C104.876 91.9646 106.852 89.4221 109.224 87.2808C112.249 84.6359 115.607 82.3975 119.212 80.6224C119.374 80.5306 119.501 80.3868 119.572 80.2145C119.644 80.0421 119.655 79.851 119.606 79.6712C119.051 78.2605 118.318 76.9267 117.424 75.7024C118.015 75.5056 118.671 75.3252 118.671 74.7348C118.671 73.0948 104.37 52.398 100.401 48.4948C99.9911 48.0848 99.4007 47.5436 98.8595 47.5764C90.6595 48.0356 82.6727 55.7764 78.0479 62.5332C72.7507 62.3364 69.3231 61.8608 63.2879 64.4028C59.0272 66.2113 55.186 68.8803 52.0047 72.242C51.5127 72.7504 48.1671 76.2928 48.1179 76.5716C48.0687 76.8504 48.1671 76.8504 50.5451 79.5072ZM116.145 79.048C109.306 80.2124 104.944 85.9032 101.73 92.086C100.303 94.8412 100.434 94.9724 98.9251 94.9396C96.2868 94.7902 93.6402 94.8892 91.0203 95.2348C89.0985 95.5219 87.2093 95.9946 85.3787 96.6452C81.2131 98.1212 76.4407 102.844 73.8987 106.354C73.8448 106.426 73.7759 106.486 73.6972 106.53C73.6184 106.574 73.5314 106.6 73.4413 106.608C73.3516 106.616 73.2612 106.604 73.1759 106.575C73.091 106.545 73.0131 106.498 72.9475 106.436C67.6175 100.942 58.1875 91.2988 53.4479 85.7556C53.2183 85.5096 53.6119 85.1488 53.8415 85.4112C56.9083 88.6912 64.8295 96.5468 73.3247 105.091C76.1947 101.434 80.6227 97.006 85.0015 95.4644C87.3894 94.6128 89.8741 94.0618 92.3979 93.8244C94.7616 93.6449 97.1354 93.6449 99.4991 93.8244C100.467 92.7092 105.256 80.0484 116.112 78.638C116.144 78.6613 116.17 78.6914 116.189 78.7263C116.207 78.7612 116.218 78.7996 116.219 78.839C116.221 78.8783 116.213 78.9177 116.198 78.9538C116.182 78.9902 116.159 79.0221 116.129 79.048H116.145ZM98.8431 48.9048C102.123 51.2008 115.473 70.9628 117.211 74.4232C114.195 75.3789 111.283 76.6372 108.519 78.1788C105.902 79.4908 103.611 81.3697 101.812 83.6791C100.013 85.9885 98.7528 88.67 98.1215 91.5284C92.2339 81.9508 84.0175 71.4056 78.5563 63.6484C78.8843 63.4352 88.1011 49.5444 98.8431 48.9048ZM63.6487 65.3048C69.6347 62.894 72.9475 63.4516 77.9003 63.6648C82.8203 72.0616 91.6599 83.9024 97.4819 91.6596C92.1084 90.3882 86.454 91.1658 81.6231 93.8408C78.7203 95.4808 75.1779 99.4168 72.9967 101.86C69.8479 99.3348 51.6767 79.9828 48.7575 76.7028C53.2511 71.6188 57.4003 67.7976 63.6487 65.2392V65.3048ZM33.6367 107.01C33.2315 106.726 32.7523 106.565 32.2573 106.548C31.7624 106.53 31.273 106.656 30.8487 106.912C30.5398 107.049 30.2607 107.247 30.0281 107.492C29.7952 107.738 29.6131 108.027 29.4921 108.343C29.371 108.659 29.3133 108.996 29.3225 109.334C29.3315 109.672 29.407 110.006 29.5449 110.315C29.6827 110.624 29.8802 110.902 30.1256 111.135C30.3713 111.368 30.6603 111.55 30.9763 111.671C31.2924 111.793 31.6291 111.85 31.9675 111.841C32.3056 111.832 32.639 111.756 32.9479 111.618C33.4417 111.51 33.8911 111.255 34.2361 110.886C34.5814 110.517 34.8062 110.051 34.8807 109.552C34.9556 109.052 34.8766 108.541 34.6544 108.087C34.4323 107.633 34.0774 107.258 33.6367 107.01ZM32.5543 110.29C31.4063 110.651 30.7175 110.29 30.4387 109.732C29.9139 108.568 30.5699 106.78 32.2755 107.305C33.4727 107.748 34.4403 109.765 32.5543 110.372V110.29ZM117.031 31.9636C117.506 32.9312 119.72 32.5704 120.688 32.2588C121.196 32.0948 121.524 31.9144 121.574 31.4224C121.721 30.1924 121.885 19.5324 121.328 18.4992C121.27 18.3908 121.182 18.302 121.073 18.2437C120.966 18.1853 120.843 18.16 120.721 18.1712C118.971 18.1663 117.23 18.4207 115.555 18.9256C114.882 19.3356 116.44 30.8812 117.031 31.9636ZM115.899 19.3192C117.414 19.1025 118.946 19.0311 120.475 19.106C120.573 20.3196 120.311 30.832 120.294 30.996C119.601 31.2444 118.862 31.3341 118.13 31.2584C118.015 30.8812 117.818 29.8644 117.572 28.5852C116.849 25.5287 116.291 22.4355 115.899 19.3192ZM32.0459 93.1684C32.2034 93.2492 32.3775 93.291 32.5543 93.291C32.7311 93.291 32.9053 93.2492 33.0627 93.1684C33.6964 92.7775 34.1988 92.2065 34.5059 91.5284C34.5477 91.4199 34.5605 91.3024 34.5432 91.1876C34.5259 91.0725 34.4794 90.964 34.4075 90.8724C33.6203 89.9376 25.0267 79.9828 23.9771 80.606C22.6884 81.4403 21.4657 82.3724 20.3199 83.394C20.2737 83.4355 20.2367 83.4858 20.2113 83.5422C20.1859 83.5989 20.1726 83.66 20.1723 83.722C20.1395 84.5748 29.6843 92.2172 32.0459 93.1684ZM24.1739 81.0324C25.3711 81.9016 29.4055 86.8872 33.1447 91.2988C32.984 91.552 32.7848 91.7789 32.5543 91.9712C28.623 89.4551 24.8694 86.6713 21.3203 83.64C22.21 82.7058 23.1636 81.8345 24.1739 81.0324ZM49.9383 44.854C50.2991 38.4908 54.0055 35.5388 57.8759 34.7844C56.7771 38.8188 56.9575 44.0668 60.9427 44.7392C62.8451 45.0508 63.7799 44.0668 65.1575 42.9188C71.0451 37.9988 66.2891 33.0788 59.6471 33.4232C62.1235 26.6336 67.8471 21.1068 75.4403 20.9264C75.5098 20.9264 75.5766 20.8988 75.6258 20.8496C75.675 20.8003 75.7027 20.7336 75.7027 20.664C75.7027 20.5945 75.675 20.5276 75.6258 20.4784C75.5766 20.4292 75.5098 20.4016 75.4403 20.4016C67.2403 20.2376 60.7951 26.1416 58.2531 33.5216C53.8743 34.276 49.5283 37.556 49.4135 44.7556C49.407 44.7902 49.4073 44.8254 49.4147 44.8597C49.4219 44.894 49.4359 44.9265 49.4556 44.9557C49.4755 44.9846 49.5006 45.0094 49.5301 45.0284C49.5593 45.0475 49.5924 45.0609 49.6267 45.0672C49.6613 45.0738 49.6965 45.0732 49.7308 45.066C49.7651 45.0589 49.7976 45.0448 49.8268 45.0252C49.8557 45.0052 49.8805 44.9801 49.8996 44.9506C49.9186 44.9214 49.9318 44.8886 49.9383 44.854ZM59.2699 34.5876C61.7135 34.4236 65.3543 35.178 66.3547 37.392C66.9287 38.6548 66.3547 40.2128 64.3211 41.9184C63.7689 42.4715 63.1391 42.9412 62.4515 43.3124C59.9915 44.362 57.2691 41.328 59.2699 34.5876ZM63.9603 266.533C62.3758 266.108 60.7227 266.005 59.0976 266.23C57.4725 266.453 55.9088 267 54.4984 267.838C53.088 268.674 51.8592 269.785 50.8848 271.106C49.91 272.425 49.209 273.925 48.8231 275.52C48.0947 278.833 48.7116 282.299 50.5386 285.155C52.3655 288.013 55.2525 290.027 58.5647 290.756C61.8769 291.484 65.343 290.868 68.1999 289.04C71.0574 287.213 73.0719 284.327 73.8003 281.014C74.1116 279.416 74.1036 277.774 73.7765 276.179C73.4497 274.584 72.8104 273.071 71.8958 271.725C70.981 270.379 69.8089 269.227 68.4471 268.336C67.085 267.444 65.5601 266.832 63.9603 266.533ZM69.0279 279.899C68.3698 282.523 66.7945 284.826 64.5868 286.389C62.3791 287.954 59.6844 288.677 56.9903 288.427C54.5172 287.461 52.4639 285.653 51.1922 283.322C49.9204 280.991 49.511 278.286 50.0367 275.684C50.6504 272.996 52.2111 270.618 54.4334 268.986C56.6558 267.354 59.3913 266.577 62.1399 266.795C64.6375 267.827 66.6911 269.706 67.939 272.103C69.1869 274.501 69.5494 277.261 68.9623 279.899H69.0279Z" fill="#F1F4F6"/>
<path d="M85.8048 271.207C84.3771 270.715 82.8468 270.596 81.3604 270.862C80.744 269.449 79.9861 268.103 79.0972 266.844C80.1632 265.877 83.0824 263.187 82.3772 261.924C79.8674 258.922 76.8877 256.347 73.5537 254.298C72.1618 253.518 70.6291 253.022 69.044 252.839C67.9944 252.986 65.5013 257.07 64.9437 257.988C64.5829 257.988 63.304 257.578 63.2056 257.529C63.2056 256.348 62.8612 252.084 61.7952 251.592C60.6031 251.154 59.3653 250.85 58.1052 250.69C56.9408 250.51 46.4612 252.429 45.6904 253.839C45.182 254.79 46.3628 258.382 46.7072 259.382C45.8228 259.869 44.9733 260.417 44.1652 261.022C42.5252 262.187 42.968 262.138 42.6728 262.006C42.3159 261.836 41.9336 261.725 41.5412 261.678C40.231 260.91 38.695 260.621 37.1952 260.858C35.6864 261.35 32.1276 269.452 31.5536 271.535C31.3657 272.06 31.315 272.624 31.406 273.175C31.7996 274.257 34.4236 275.126 35.5224 275.471C35.2188 277.581 35.2188 279.724 35.5224 281.834C34.0792 282.228 31.0777 283.113 31.2417 284.589C31.4057 286.065 35.2433 295.807 36.8341 296.578C37.7057 297.065 38.6694 297.365 39.6635 297.458C40.6577 297.551 41.6602 297.436 42.6072 297.119C43.1403 296.852 43.6556 296.552 44.1488 296.217C44.8048 296.709 45.4936 297.152 46.1988 297.578C45.6904 298.841 44.5588 301.662 44.9196 302.941C45.1 303.615 45.6412 303.826 46.3956 304.107C48.4784 304.861 59.696 307.551 61.4016 307.256C62.0412 307.157 62.3856 306.483 62.5824 305.845C62.9468 304.387 63.1612 302.899 63.2217 301.399C64.0641 301.316 64.9016 301.19 65.7312 301.024C66.2378 301.912 66.8857 302.717 67.65 303.4C68.4864 303.99 69.1916 303.695 70.1428 303.09C70.602 303.68 71.2908 304.5 72.0288 304.581C73.882 304.796 81.5408 297.578 82.328 296.102C82.984 294.872 80.5896 292.674 79.5236 291.707C80.6767 289.971 81.5819 288.084 82.2132 286.098C83.3961 286.276 84.5933 286.343 85.7884 286.295C86.3296 286.295 86.9528 286.098 87.1824 285.59C88.1828 283.31 87.8876 274.667 87.1824 272.47C87.084 271.83 86.346 271.404 85.8048 271.207ZM86.1984 272.716C86.756 274.848 86.9361 282.9 86.1161 284.983C84.6982 285.122 83.2676 285.057 81.8685 284.786C81.7194 284.76 81.5658 284.791 81.4385 284.873C81.3109 284.955 81.2188 285.083 81.18 285.229C80.527 287.445 79.5129 289.541 78.1785 291.428C78.0837 291.554 78.0407 291.71 78.0592 291.867C78.0774 292.023 78.1558 292.165 78.2772 292.264C79.4279 293.176 80.4053 294.287 81.1636 295.544C80.3436 296.889 73.9312 302.762 72.16 303.254C71.8976 303.254 71.176 302.27 70.9956 302.007C70.3897 301.095 69.8422 300.15 69.3556 299.169C69.2846 299.026 69.1627 298.915 69.0142 298.859C68.8654 298.799 68.7005 298.799 68.5517 298.859C63.7957 300.645 61.992 299.595 61.992 300.776C61.9941 302.544 61.706 304.301 61.1389 305.976C57.2849 305.556 53.4899 304.709 49.8232 303.451C50.0003 301.697 50.4887 299.992 51.2664 298.414C51.7584 297.316 49.7904 297.627 46.1168 293.888C45.9984 293.779 45.8434 293.717 45.6823 293.717C45.521 293.717 45.366 293.779 45.2476 293.888C43.6076 295.233 41.4756 296.545 41.0492 296.332C40.2128 295.922 36.3588 287.18 36.1292 285.409C37.2957 284.596 38.6199 284.037 40.016 283.769C40.1648 283.727 40.2933 283.633 40.378 283.503C40.4621 283.373 40.497 283.217 40.4752 283.064C40.0732 280.742 40.0732 278.367 40.4752 276.045C40.5002 275.901 40.4701 275.755 40.3911 275.634C40.3118 275.512 40.1895 275.424 40.0488 275.389C38.8122 275.065 37.6222 274.585 36.5064 273.962C36.1456 273.7 36.1784 273.716 36.2112 273.437C37.2727 269.609 38.975 265.987 41.246 262.728C42.1316 262.482 44.526 264.237 45.346 264.86C45.4316 264.943 45.5464 264.99 45.6656 264.99C45.7852 264.99 45.9 264.943 45.9856 264.86C46.7391 264.078 47.5504 263.355 48.4128 262.695C50.9056 260.809 51.578 261.055 51.3648 260.399C50.6107 258.754 50.1873 256.976 50.1184 255.168C50.3724 254.956 50.6611 254.79 50.9712 254.676C52.5023 254.07 54.0753 253.577 55.678 253.2C57.6206 252.658 59.6173 252.333 61.6312 252.232C61.9756 252.38 62.2872 253.872 62.3692 254.331C62.976 257.611 62.566 258.284 63.0416 258.333C67.7156 258.792 68.6668 260.088 68.9948 259.514C69.9042 257.923 70.9643 256.424 72.16 255.036C72.5044 254.692 72.488 254.528 73.5212 255.118C76.608 257.136 79.3724 259.607 81.7212 262.449C81.9672 262.876 79.8352 265.139 78.2772 266.467C77.736 266.943 78.5068 267.156 79.9172 269.846C81.3276 272.535 80.9993 273.29 81.7537 273.126C83.2082 272.777 84.7048 272.639 86.1984 272.716ZM313.812 135.677C310.374 134.273 306.772 133.319 303.09 132.84C300.4 132.414 297.234 131.987 294.56 131.643C297.135 128.002 304.76 118.785 306.039 116.538C306.4 115.932 305.714 115.079 305.204 114.57C302.35 111.52 296.84 110.372 292.609 109.716C290.182 109.322 280.046 108.076 278.324 108.896C276.258 109.88 260.973 132.84 260.514 136.333C260.514 136.924 260.711 137.153 261.285 137.366C263.696 138.252 274.569 139.63 276.996 140.204C273.716 145.944 259.136 165.345 257.71 168.084C257.365 168.772 257.578 169.182 257.988 169.314C259.464 169.9 260.983 170.372 262.531 170.724C263.122 170.904 264.417 170.101 266.303 168.953C274.766 163.869 311.075 139.892 313.863 136.792C313.941 136.72 314 136.631 314.042 136.533C314.081 136.435 314.099 136.329 314.093 136.223C314.09 136.118 314.06 136.014 314.012 135.92C313.965 135.826 313.896 135.743 313.812 135.677ZM278.57 155.357C264.63 164.558 259.924 167.247 259.76 167.362C262.006 163.934 275.963 144.812 278.357 140.236C278.398 140.148 278.42 140.052 278.42 139.953C278.42 139.857 278.397 139.76 278.355 139.672C278.312 139.583 278.251 139.507 278.174 139.445C278.099 139.384 278.01 139.34 277.914 139.318C276.274 138.728 264.335 137.448 261.514 136.448C261.875 133.398 276.766 110.339 278.57 109.421C280.374 108.502 297.873 110.585 301.155 112.93C299.431 116.292 289.919 128.068 288.378 130.806C288.066 131.364 287.968 131.905 288.574 132.053C289.181 132.2 304.596 134.004 307.959 135.103C303.859 138.531 283.162 152.274 278.57 155.292V155.357ZM173.364 55.0876C173.364 55.2352 173.463 55.4156 173.709 56.3668C173.773 56.5732 173.915 56.7464 174.105 56.8505C174.294 56.9542 174.517 56.9808 174.726 56.9244C174.935 56.8636 175.111 56.7222 175.215 56.5314C175.32 56.3409 175.345 56.1163 175.283 55.9076C175.119 55.268 174.972 54.7268 174.873 54.4644C174.777 54.2843 174.619 54.1463 174.426 54.0774C174.235 54.0082 174.025 54.013 173.836 54.0908C173.647 54.1686 173.494 54.3138 173.408 54.4981C173.321 54.6824 173.304 54.8926 173.364 55.0876Z" fill="#F1F4F6"/>
</svg>
