<svg width="164" height="164" viewBox="0 0 164 164" fill="none" xmlns="http://www.w3.org/2000/svg">
<mask id="mask0_337_561" style="mask-type:alpha" maskUnits="userSpaceOnUse" x="0" y="0" width="164" height="164">
<circle cx="82" cy="82" r="82" fill="#C4C4C4"/>
</mask>
<g mask="url(#mask0_337_561)">
<path opacity="0.1" d="M225.899 121.078C227.014 106.266 223.568 90.802 218.953 77.0383C212.124 56.5461 198.789 35.5465 176.379 30.6966C163.457 27.9093 150.307 30.8973 139.225 37.899C128.572 44.6331 120.271 53.3351 107.165 55.0186C93.9143 56.7244 80.3179 56.0388 67.0002 56.0388C32.7554 56.0388 4.96601 92.0117 11.912 129.484C18.8579 166.957 51.6143 192.94 79.4037 192.94C104.378 192.94 124.926 177.961 148.646 173.936C160.408 171.94 172.221 174.304 183.861 171.316C197.39 167.837 210.111 159.548 217.609 147.546C222.715 139.362 225.202 130.348 225.899 121.078Z" fill="#F89E31"/>
<path opacity="0.1" d="M236.762 93.6937C238.321 73.0041 233.503 51.4035 227.048 32.1778C217.498 3.55342 198.849 -25.7795 167.509 -32.5541C149.437 -36.4475 131.046 -32.2737 115.547 -22.4935C100.649 -13.087 89.0405 -0.931782 70.7118 1.41984C52.1804 3.8026 33.1656 2.84483 14.5406 2.84483C-33.3512 2.84483 -72.215 53.0932 -62.501 105.436C-52.787 157.779 -6.97681 194.074 31.887 194.074C66.8137 194.074 95.5503 173.15 128.723 167.528C145.173 164.741 161.693 168.042 177.971 163.869C196.892 159.01 214.683 147.431 225.169 130.666C232.31 119.234 235.787 106.643 236.762 93.6937Z" fill="#F89E31"/>
<g opacity="0.5">
<path d="M25.4474 125.061C27.029 124.92 30.0761 123.116 30.0814 123.116C30.0867 123.115 28.3106 121.405 28.1826 121.309C26.7269 120.245 23.3 119.018 21.6806 120.239C21.4167 120.449 21.1989 120.713 21.0414 121.016C20.8839 121.318 20.7903 121.651 20.7666 121.993C20.743 122.335 20.7898 122.679 20.9041 123.001C21.0183 123.323 21.1975 123.617 21.4298 123.864C22.3791 124.951 24.1135 125.177 25.4474 125.061Z" fill="#2E2E2E"/>
<path d="M31.4097 133.68C32.8275 133.145 35.1542 130.777 35.3363 130.584C36.654 131.957 38.0595 133.238 39.5434 134.419C40.4027 135.106 41.2882 135.777 42.2105 136.437C41.7533 136.199 41.3492 135.988 41.2909 135.967C39.6086 135.318 36.0002 135.081 34.7398 136.697C34.5343 136.971 34.3877 137.286 34.3098 137.623C34.232 137.959 34.2246 138.308 34.2882 138.648C34.3518 138.987 34.4849 139.309 34.6787 139.592C34.8725 139.875 35.1225 140.112 35.4123 140.288C36.6056 141.079 38.3387 140.828 39.5937 140.35C40.8486 139.871 42.8957 137.891 43.4267 137.358C43.7733 137.608 44.1146 137.864 44.4611 138.108C46.1297 139.3 47.8035 140.48 49.409 141.689C49.9744 142.115 50.5136 142.557 51.0581 142.994C50.654 142.783 50.3137 142.609 50.2607 142.588C48.5784 141.939 44.97 141.701 43.7096 143.318C43.5095 143.593 43.3679 143.908 43.2941 144.242C43.2204 144.577 43.216 144.924 43.2814 145.261C43.3468 145.597 43.4805 145.916 43.6737 146.196C43.8669 146.476 44.1154 146.712 44.4029 146.887C45.5961 147.673 47.3293 147.421 48.5843 146.948C49.8393 146.475 51.6883 144.677 52.3184 144.05C52.8526 144.515 53.3869 144.979 53.9214 145.459C54.2585 145.791 54.6057 146.09 54.9273 146.443L55.8969 147.471C56.4868 148.14 57.1033 148.831 57.6616 149.507C58.0587 149.973 58.4238 150.418 58.7943 150.873C58.2605 150.442 57.1248 149.622 57.029 149.564C55.433 148.664 51.9223 147.862 50.448 149.27C50.2094 149.51 50.0227 149.798 49.9001 150.117C49.7775 150.436 49.7218 150.778 49.7365 151.12C49.7512 151.463 49.836 151.798 49.9854 152.105C50.1349 152.412 50.3455 152.683 50.6037 152.9C51.6727 153.862 53.4202 153.886 54.7308 153.613C56.1781 153.306 58.7331 151.416 59.0518 151.179C59.6587 151.93 60.2495 152.67 60.7924 153.372C62.2595 155.26 63.4809 156.941 64.4234 158.299L65.5967 157.643C64.5959 156.269 63.2947 154.541 61.716 152.601C61.0984 151.834 60.4222 151.03 59.7247 150.21C60.3708 149.41 60.9691 148.571 61.5163 147.697C62.954 148.219 65.8921 148.075 66.2719 148.059C66.3804 149.034 66.4726 149.976 66.5483 150.875C66.7495 153.209 66.8622 155.257 66.9324 156.898L68.2052 156.181C68.1047 154.643 67.958 152.812 67.7345 150.766C67.6311 149.775 67.5004 148.725 67.3535 147.643C67.7214 147.53 70.7434 146.577 71.8486 145.575C72.86 144.666 73.8958 143.221 73.791 141.753C73.7774 141.41 73.6937 141.074 73.5453 140.766C73.3969 140.459 73.1872 140.187 72.9298 139.968C72.6723 139.749 72.3729 139.588 72.0511 139.496C71.7292 139.404 71.3921 139.382 71.0617 139.432C69.0872 139.79 67.5662 143.167 67.3222 144.992C67.3237 145.101 67.2767 146.289 67.2712 147.037C67.2124 146.599 67.1537 146.171 67.0894 145.717C66.9556 144.819 66.8007 143.926 66.6397 142.969C66.5454 142.511 66.4492 142.046 66.3512 141.574C66.2655 141.103 66.1164 140.623 65.9989 140.142C65.709 139.029 65.3559 137.923 64.9817 136.811C65.7455 136.697 68.452 136.221 69.5874 135.495C70.7228 134.769 71.956 133.483 72.068 132.034C72.1047 131.693 72.0713 131.348 71.97 131.021C71.8686 130.694 71.7015 130.392 71.4795 130.136C71.2575 129.879 70.9856 129.673 70.6813 129.532C70.377 129.39 70.0472 129.315 69.7131 129.312C67.7077 129.34 65.7081 132.464 65.1944 134.254C65.1643 134.369 64.9343 135.678 64.8229 136.401C64.592 135.732 64.3664 135.068 64.1091 134.405C63.3753 132.485 62.5676 130.566 61.7757 128.647L61.0599 126.884C61.3338 126.842 64.5629 126.369 65.8341 125.538C66.964 124.796 68.2027 123.527 68.3094 122.078C68.3542 121.734 68.3271 121.384 68.23 121.051C68.1328 120.718 67.9678 120.411 67.746 120.149C67.5241 119.887 67.2505 119.676 66.9433 119.531C66.6362 119.386 66.3025 119.309 65.9645 119.307C63.9537 119.335 61.9541 122.458 61.4454 124.222C61.405 124.358 61.0827 126.244 61.0208 126.727C60.475 125.433 59.9873 124.134 59.5366 122.839C58.9202 121.088 58.4141 119.298 58.0216 117.481C58.1482 117.479 61.5248 116.983 62.8274 116.13C63.952 115.388 65.1907 114.118 65.3027 112.669C65.3402 112.329 65.3076 111.983 65.2069 111.656C65.1061 111.329 64.9396 111.028 64.718 110.771C64.4964 110.514 64.2248 110.308 63.9207 110.166C63.6167 110.025 63.287 109.95 62.9531 109.947C60.9424 109.975 58.9428 113.099 58.434 114.862C58.3938 115.004 58.0418 117.036 58.0047 117.406C58.0032 117.297 57.949 117.195 57.9264 117.087C57.5815 115.252 57.395 113.389 57.3691 111.521C57.3549 110.491 57.373 109.504 57.423 108.544C58.0616 108.535 60.9733 108.386 62.2313 107.751C63.4894 107.115 64.7938 106.018 65.0644 104.589C65.1373 104.254 65.141 103.908 65.0753 103.572C65.0096 103.235 64.876 102.917 64.6831 102.637C64.4902 102.357 64.2423 102.122 63.9554 101.947C63.6685 101.771 63.349 101.66 63.0175 101.619C61.0145 101.441 58.6945 104.297 57.9949 105.999C57.9592 106.091 57.6721 107.087 57.4918 107.789C57.5228 107.36 57.543 106.91 57.5795 106.498C57.7111 104.94 57.9291 103.527 58.1282 102.272C58.245 101.56 58.3682 100.924 58.4866 100.326C59.1045 99.9651 61.5598 98.4945 62.3727 97.3555C63.1857 96.2166 63.8763 94.6239 63.4662 93.2091C63.3814 92.8756 63.2289 92.5642 63.0188 92.2954C62.8086 92.0266 62.5456 91.8064 62.2468 91.6492C61.9481 91.4921 61.6204 91.4016 61.2854 91.3836C60.9503 91.3657 60.6153 91.4207 60.3025 91.545C58.4448 92.3297 57.6716 95.9675 57.8131 97.8035C57.8153 97.9661 58.298 100.426 58.3293 100.404L58.3663 100.404C58.2422 100.975 58.1134 101.589 57.9856 102.269C57.7601 103.519 57.4945 104.932 57.3472 106.49C57.1496 108.166 57.0477 109.853 57.0422 111.542C57.0278 113.434 57.1775 115.325 57.4897 117.19C57.4897 117.19 57.4903 117.234 57.4906 117.255C57.2192 116.717 56.4071 115.243 56.3318 115.141C55.2555 113.648 52.3899 111.4 50.4826 112.039C50.1688 112.155 49.8822 112.337 49.6414 112.574C49.4007 112.811 49.2112 113.098 49.0851 113.415C48.9591 113.732 48.8994 114.073 48.91 114.415C48.9205 114.758 49.0009 115.094 49.1462 115.403C49.7188 116.734 51.2866 117.509 52.6054 117.827C54.0777 118.181 57.2884 117.524 57.5464 117.472C57.9072 119.361 58.3914 121.224 58.9958 123.047C59.3432 124.126 59.7219 125.173 60.0954 126.23C59.8463 125.773 59.619 125.369 59.5814 125.316C58.505 123.823 55.6395 121.575 53.7322 122.214C53.4184 122.33 53.1318 122.512 52.891 122.749C52.6503 122.986 52.4607 123.272 52.3347 123.59C52.2087 123.907 52.149 124.248 52.1595 124.59C52.17 124.933 52.2505 125.269 52.3957 125.578C52.9684 126.914 54.5362 127.684 55.8496 128.002C57.1631 128.32 59.9274 127.821 60.6538 127.676C60.8125 128.08 60.9606 128.485 61.1192 128.889C61.8692 130.83 62.6296 132.761 63.3106 134.676C63.5521 135.351 63.7673 136.025 63.9878 136.7C63.7658 136.296 63.5711 135.958 63.5387 135.909C62.4624 134.417 59.5916 132.169 57.6896 132.807C57.3753 132.923 57.0881 133.105 56.8468 133.341C56.6054 133.578 56.4153 133.864 56.2888 134.182C56.1623 134.499 56.1021 134.84 56.1123 135.183C56.1225 135.525 56.2027 135.862 56.3478 136.171C56.9257 137.502 58.4883 138.278 59.807 138.596C61.1258 138.914 63.6161 138.456 64.4796 138.293C64.6845 138.989 64.8894 139.686 65.0361 140.372C65.1376 140.842 65.2705 141.291 65.351 141.767C65.4315 142.243 65.5223 142.708 65.6079 143.167C65.7364 144.066 65.8811 144.991 65.9883 145.873C66.0654 146.484 66.1315 147.069 66.1977 147.654C65.9614 146.979 65.4788 145.668 65.4245 145.561C64.6545 144.151 63.5483 142.965 62.2098 142.114C62.1294 141.953 62.0354 141.8 61.929 141.657C61.7336 141.378 61.4833 141.145 61.1945 140.973C60.9057 140.8 60.5848 140.692 60.2528 140.655C59.9207 140.619 59.5849 140.654 59.2671 140.759C58.9493 140.864 58.6566 141.037 58.4082 141.266C56.9498 142.685 57.5021 146.364 58.2746 148.029C58.3235 148.126 58.9338 149.131 59.3542 149.76C59.0646 149.428 58.8173 149.1 58.4906 148.763C57.9007 148.088 57.2898 147.43 56.6414 146.723L55.651 145.717C55.3296 145.38 54.9451 145.06 54.5816 144.724C53.7424 143.966 52.8561 143.235 51.9489 142.526C52.522 141.976 54.5543 140.078 55.0647 138.813C55.5751 137.548 55.9573 135.797 55.2693 134.522C55.1206 134.214 54.9102 133.941 54.6519 133.722C54.3936 133.504 54.0933 133.343 53.7706 133.252C53.4479 133.161 53.1101 133.141 52.7793 133.193C52.4486 133.245 52.1324 133.368 51.8514 133.555C50.1997 134.733 50.1983 138.457 50.7189 140.223C50.7521 140.331 51.2651 141.555 51.5593 142.217C51.0257 141.796 50.4919 141.37 49.8951 140.961C48.2529 139.775 46.548 138.627 44.8589 137.479L43.3134 136.416C43.522 136.229 45.9563 134.005 46.57 132.576C47.1121 131.316 47.4626 129.56 46.7746 128.285C46.6224 127.983 46.4104 127.717 46.1522 127.504C45.8939 127.292 45.5952 127.137 45.2753 127.05C44.9554 126.963 44.6213 126.945 44.2946 126.999C43.9679 127.053 43.6558 127.176 43.3784 127.361C41.7266 128.533 41.7253 132.264 42.2511 134.024C42.2898 134.153 43.032 135.916 43.2387 136.352C42.1088 135.565 40.9891 134.757 39.9117 133.948C38.4557 132.838 37.0708 131.633 35.7658 130.34C35.8596 130.252 38.4193 127.939 39.0434 126.499C39.5856 125.245 39.9413 123.483 39.2533 122.208C39.1012 121.902 38.8881 121.633 38.6281 121.418C38.3681 121.202 38.0669 121.046 37.7441 120.957C37.4213 120.869 37.0841 120.852 36.7544 120.907C36.4247 120.961 36.1099 121.086 35.8306 121.274C34.1788 122.452 34.1775 126.176 34.7033 127.936C34.7422 128.077 35.5442 129.969 35.7124 130.297L35.4771 130.078C34.2021 128.745 33.0462 127.296 32.0233 125.751C31.4468 124.902 30.9443 124.063 30.4683 123.235C30.9909 122.853 33.3418 121.086 34.0478 119.846C34.7538 118.605 35.2588 116.95 34.7124 115.607C34.5944 115.286 34.4119 114.994 34.1768 114.75C33.9417 114.506 33.6593 114.316 33.3479 114.191C33.0365 114.067 32.7031 114.011 32.3694 114.027C32.0357 114.044 31.7091 114.132 31.411 114.287C29.6457 115.271 29.2482 118.974 29.5794 120.786C29.5807 120.883 29.8846 121.866 30.1319 122.573C29.9261 122.196 29.7044 121.809 29.5146 121.442C28.7883 120.07 28.2053 118.75 27.6987 117.613C27.4203 116.95 27.1533 116.346 26.9555 115.78C27.2738 115.136 28.5307 112.505 28.5958 111.105C28.661 109.706 28.3305 107.948 27.2619 107.014C27.0132 106.785 26.7203 106.612 26.4023 106.507C26.0844 106.401 25.7484 106.366 25.4164 106.403C25.0843 106.44 24.7636 106.548 24.475 106.72C24.1864 106.893 23.9364 107.126 23.7413 107.404C22.6142 109.111 23.9237 112.585 25.0312 114.039C25.128 114.168 26.8417 115.949 26.8571 115.917L26.8566 115.879C27.0593 116.418 27.284 117.017 27.5356 117.653C28.0215 118.823 28.5782 120.143 29.2731 121.538C30.0129 123.05 30.8386 124.516 31.746 125.928C32.7498 127.514 33.8885 129.006 35.1488 130.386L35.197 130.434C34.6651 130.138 33.2135 129.377 33.0703 129.325C31.3881 128.676 27.7796 128.439 26.5245 130.055C26.3242 130.329 26.1824 130.644 26.1083 130.978C26.0341 131.312 26.0294 131.658 26.0943 131.994C26.1592 132.33 26.2923 132.649 26.4849 132.929C26.6776 133.209 26.9255 133.444 27.2125 133.619C28.4218 134.421 30.1495 134.158 31.4097 133.68Z" fill="#2E2E2E"/>
<path d="M57.155 108.249C57.192 108.249 56.5936 105.817 56.5387 105.666C55.9078 103.94 53.6976 100.989 51.6879 101.087C51.3554 101.114 51.0322 101.212 50.7392 101.376C50.4462 101.539 50.1898 101.764 49.9866 102.036C49.7835 102.307 49.638 102.619 49.5597 102.952C49.4814 103.285 49.4719 103.631 49.5319 103.968C49.7471 105.413 51.0671 106.588 52.248 107.244C53.6311 108.016 57.1497 108.249 57.155 108.249Z" fill="#2E2E2E"/>
<path d="M188.859 131.505C187.427 131.01 185.036 128.706 184.844 128.519C183.566 129.929 182.196 131.249 180.744 132.468C179.904 133.179 179.037 133.875 178.16 134.559C178.605 134.309 179.009 134.086 179.066 134.064C180.73 133.369 184.331 133.032 185.63 134.613C185.837 134.882 185.987 135.192 186.07 135.524C186.153 135.856 186.167 136.203 186.111 136.54C186.055 136.878 185.93 137.2 185.745 137.485C185.559 137.77 185.318 138.012 185.035 138.194C183.864 139.018 182.13 138.814 180.857 138.371C179.584 137.928 177.488 136.005 176.948 135.486L175.93 136.265C174.295 137.502 172.659 138.728 171.088 139.981C170.534 140.422 170.002 140.879 169.47 141.331C169.868 141.109 170.204 140.925 170.261 140.903C171.92 140.208 175.526 139.871 176.825 141.452C177.032 141.721 177.183 142.032 177.266 142.365C177.349 142.697 177.363 143.044 177.306 143.382C177.25 143.72 177.126 144.043 176.94 144.328C176.755 144.614 176.513 144.856 176.23 145.039C175.059 145.857 173.32 145.653 172.052 145.216C170.785 144.778 168.887 143.031 168.24 142.422C167.718 142.901 167.197 143.38 166.676 143.875C166.343 144.215 166.004 144.524 165.692 144.886C165.381 145.248 165.063 145.589 164.757 145.94C164.18 146.625 163.588 147.333 163.044 148.024C162.665 148.501 162.307 148.956 161.949 149.421C162.497 148.975 163.584 148.125 163.683 148.064C165.222 147.121 168.741 146.221 170.248 147.588C170.493 147.821 170.688 148.104 170.819 148.42C170.951 148.735 171.016 149.075 171.01 149.418C171.005 149.761 170.93 150.099 170.789 150.409C170.648 150.72 170.445 150.997 170.193 151.221C169.151 152.212 167.41 152.284 166.087 152.048C164.637 151.781 162.031 149.962 161.706 149.734C161.114 150.501 160.549 151.257 160.021 151.974C158.612 153.902 157.432 155.616 156.527 157L155.331 156.377C156.294 154.975 157.552 153.212 159.071 151.229C159.667 150.445 160.321 149.623 161.001 148.784C160.332 148.001 159.709 147.179 159.135 146.321C157.713 146.883 154.772 146.821 154.392 146.815C154.315 147.792 154.244 148.736 154.193 149.637C154.056 151.976 154 154.026 153.981 155.669L152.683 154.987C152.741 153.447 152.843 151.613 153.004 149.561C153.086 148.568 153.187 147.515 153.299 146.429C152.928 146.325 149.886 145.457 148.748 144.486C147.717 143.605 146.642 142.189 146.706 140.719C146.71 140.376 146.783 140.038 146.923 139.726C147.062 139.415 147.264 139.137 147.515 138.911C147.765 138.685 148.06 138.516 148.379 138.414C148.698 138.313 149.034 138.282 149.365 138.324C151.354 138.627 152.963 141.961 153.257 143.778C153.258 143.887 153.338 145.073 153.364 145.821C153.416 145.381 153.458 144.952 153.515 144.496C153.619 143.594 153.749 142.698 153.889 141.736C153.967 141.274 154.05 140.807 154.133 140.334C154.216 139.861 154.342 139.377 154.446 138.893C154.71 137.773 155.027 136.657 155.371 135.535C154.604 135.443 151.885 135.041 150.73 134.347C149.575 133.653 148.307 132.401 148.16 130.956C148.113 130.616 148.136 130.27 148.228 129.941C148.32 129.611 148.478 129.305 148.692 129.042C148.907 128.78 149.173 128.566 149.473 128.416C149.773 128.266 150.1 128.182 150.434 128.17C152.444 128.142 154.53 131.209 155.087 132.985C155.126 133.099 155.387 134.402 155.518 135.121C155.73 134.446 155.943 133.776 156.176 133.106C156.862 131.166 157.611 129.226 158.35 127.286C158.579 126.691 158.798 126.098 159.017 125.504C158.747 125.469 155.501 125.086 154.207 124.29C153.062 123.58 151.789 122.345 151.637 120.899C151.59 120.56 151.613 120.214 151.705 119.884C151.797 119.555 151.955 119.249 152.169 118.986C152.384 118.723 152.649 118.51 152.949 118.36C153.249 118.209 153.577 118.126 153.911 118.114C155.921 118.086 158.006 121.153 158.569 122.902C158.608 123.037 158.987 124.913 159.057 125.395C159.567 124.086 160.019 122.773 160.439 121.466C161.009 119.7 161.467 117.897 161.811 116.069C161.684 116.071 158.3 115.668 156.975 114.851C155.825 114.14 154.551 112.906 154.399 111.46C154.353 111.12 154.377 110.774 154.469 110.445C154.562 110.115 154.72 109.809 154.935 109.546C155.15 109.284 155.416 109.07 155.716 108.92C156.017 108.77 156.344 108.686 156.678 108.674C158.689 108.647 160.769 111.714 161.331 113.463C161.375 113.603 161.778 115.625 161.825 115.993C161.824 115.885 161.88 115.781 161.895 115.672C162.191 113.829 162.326 111.962 162.298 110.093C162.284 109.063 162.239 108.077 162.162 107.119C161.523 107.127 158.609 107.059 157.339 106.459C156.069 105.858 154.724 104.798 154.42 103.376C154.337 103.044 154.323 102.697 154.379 102.359C154.435 102.021 154.559 101.699 154.745 101.413C154.93 101.128 155.172 100.886 155.454 100.703C155.736 100.52 156.053 100.4 156.384 100.351C158.381 100.117 160.779 102.909 161.52 104.59C161.564 104.682 161.873 105.67 162.072 106.366C162.03 105.938 161.997 105.489 161.949 105.078C161.775 103.524 161.523 102.118 161.284 100.869C161.147 100.16 161.007 99.528 160.872 98.9334C160.25 98.5896 157.755 97.1873 156.91 96.0713C156.066 94.9553 155.332 93.3823 155.698 91.9567C155.773 91.623 155.917 91.3094 156.118 91.0363C156.32 90.7632 156.575 90.5368 156.868 90.3717C157.16 90.2066 157.483 90.1066 157.816 90.078C158.148 90.0495 158.483 90.0931 158.798 90.2061C160.677 90.9392 161.55 94.5542 161.46 96.3934C161.462 96.556 161.047 99.0286 161.015 99.0073L160.978 99.0079C161.118 99.5752 161.269 100.186 161.416 100.861C161.676 102.105 161.98 103.51 162.171 105.064C162.412 106.734 162.559 108.417 162.61 110.105C162.678 111.997 162.582 113.89 162.324 115.764L162.325 115.829C162.581 115.283 163.352 113.787 163.425 113.683C164.459 112.162 167.262 109.835 169.186 110.421C169.503 110.527 169.795 110.701 170.043 110.931C170.291 111.161 170.488 111.443 170.623 111.756C170.758 112.07 170.827 112.41 170.825 112.752C170.824 113.095 170.752 113.434 170.615 113.746C170.079 115.093 168.533 115.911 167.229 116.265C165.767 116.66 162.534 116.092 162.275 116.046C161.966 117.945 161.534 119.821 160.98 121.66C160.662 122.748 160.313 123.805 159.969 124.872C160.205 124.408 160.421 123.999 160.457 123.944C161.492 122.422 164.3 120.096 166.218 120.682C166.536 120.788 166.828 120.962 167.076 121.192C167.323 121.422 167.521 121.703 167.657 122.017C167.792 122.33 167.861 122.67 167.861 123.013C167.86 123.355 167.789 123.694 167.653 124.007C167.112 125.359 165.571 126.172 164.262 126.526C162.952 126.88 160.181 126.458 159.45 126.332L159.024 127.558C158.323 129.52 157.616 131.47 156.993 133.404C156.77 134.085 156.574 134.765 156.378 135.445C156.588 135.036 156.768 134.692 156.799 134.643C157.834 133.121 160.642 130.794 162.56 131.38C162.877 131.488 163.169 131.662 163.416 131.892C163.663 132.122 163.861 132.403 163.995 132.717C164.13 133.031 164.199 133.37 164.198 133.712C164.197 134.055 164.126 134.393 163.989 134.706C163.448 136.053 161.908 136.871 160.598 137.225C159.289 137.579 156.787 137.191 155.919 137.051C155.739 137.753 155.553 138.455 155.42 139.145C155.332 139.618 155.212 140.07 155.15 140.548C155.087 141.026 155.004 141.493 154.931 141.955C154.822 142.857 154.709 143.785 154.626 144.67C154.56 145.284 154.51 145.87 154.46 146.456C154.678 145.775 155.13 144.452 155.176 144.343C155.896 142.895 156.965 141.661 158.283 140.759C158.355 140.595 158.444 140.439 158.551 140.295C158.738 140.011 158.981 139.772 159.265 139.591C159.548 139.411 159.865 139.294 160.196 139.248C160.526 139.202 160.863 139.228 161.183 139.324C161.503 139.421 161.8 139.585 162.054 139.807C163.551 141.185 163.106 144.878 162.374 146.564C162.328 146.662 161.746 147.684 161.343 148.324C161.623 147.984 161.893 147.649 162.184 147.304C162.755 146.613 163.342 145.938 163.976 145.213L164.933 144.181C165.25 143.835 165.626 143.504 165.975 143.158C166.793 142.377 167.658 141.622 168.551 140.889C167.963 140.355 165.879 138.513 165.334 137.263C164.789 136.012 164.353 134.273 165.005 132.979C165.149 132.669 165.354 132.393 165.607 132.17C165.861 131.947 166.158 131.781 166.478 131.684C166.798 131.586 167.135 131.559 167.466 131.604C167.798 131.649 168.116 131.765 168.401 131.945C170.085 133.077 170.184 136.8 169.712 138.579C169.682 138.688 169.203 139.925 168.927 140.596C169.449 140.161 169.997 139.719 170.556 139.294C172.17 138.063 173.837 136.869 175.499 135.675L177.009 134.569C176.801 134.388 174.301 132.232 173.648 130.821C173.071 129.576 172.672 127.831 173.325 126.537C173.468 126.226 173.673 125.951 173.927 125.728C174.181 125.505 174.478 125.339 174.798 125.242C175.119 125.145 175.456 125.119 175.787 125.165C176.118 125.21 176.436 125.328 176.721 125.508C178.399 126.635 178.503 130.363 178.032 132.137C177.996 132.268 177.303 134.05 177.103 134.492C178.216 133.674 179.313 132.835 180.363 131.997C181.789 130.848 183.14 129.605 184.407 128.276C184.311 128.19 181.694 125.949 181.025 124.527C180.448 123.288 180.049 121.537 180.702 120.243C180.845 119.934 181.05 119.659 181.303 119.436C181.557 119.214 181.853 119.049 182.173 118.952C182.493 118.855 182.829 118.828 183.16 118.873C183.49 118.919 183.808 119.035 184.092 119.215C185.776 120.347 185.88 124.07 185.403 125.844C185.368 125.985 184.624 127.899 184.465 128.231L184.694 128.006C185.928 126.636 187.042 125.157 188.022 123.585C188.574 122.721 189.054 121.868 189.506 121.027C188.974 120.66 186.575 118.958 185.84 117.738C185.105 116.517 184.55 114.877 185.059 113.52C185.168 113.195 185.342 112.898 185.57 112.648C185.799 112.398 186.076 112.199 186.383 112.066C186.691 111.933 187.023 111.868 187.357 111.875C187.691 111.883 188.02 111.962 188.322 112.108C190.114 113.043 190.614 116.734 190.333 118.554C190.334 118.652 190.052 119.642 189.83 120.356C190.025 119.973 190.236 119.58 190.421 119.209C191.109 117.817 191.65 116.481 192.125 115.331C192.39 114.66 192.635 114.049 192.823 113.478C192.481 112.842 191.158 110.248 191.048 108.85C190.939 107.453 191.19 105.698 192.248 104.735C192.49 104.499 192.778 104.318 193.093 104.204C193.408 104.09 193.743 104.045 194.076 104.073C194.409 104.101 194.732 104.2 195.026 104.364C195.319 104.529 195.575 104.755 195.778 105.028C196.952 106.703 195.739 110.211 194.677 111.695C194.584 111.827 192.915 113.655 192.899 113.623L192.898 113.585C192.716 114.13 192.507 114.734 192.268 115.377C191.82 116.56 191.3 117.896 190.639 119.309C189.944 120.84 189.163 122.328 188.299 123.765C187.343 125.381 186.245 126.905 185.02 128.316L184.973 128.365C185.497 128.055 186.927 127.254 187.069 127.198C188.727 126.503 192.333 126.166 193.632 127.747C193.84 128.016 193.99 128.326 194.073 128.658C194.156 128.99 194.17 129.337 194.113 129.674C194.057 130.012 193.933 130.334 193.747 130.619C193.562 130.904 193.32 131.146 193.038 131.328C191.867 132.163 190.127 131.948 188.859 131.505Z" fill="#2E2E2E"/>
<path d="M162.421 106.795C162.385 106.796 162.916 104.349 162.961 104.196C163.544 102.453 165.677 99.4417 167.683 99.4845C168.017 99.5016 168.343 99.5906 168.641 99.7455C168.939 99.9005 169.201 100.118 169.412 100.384C169.623 100.65 169.777 100.959 169.864 101.29C169.951 101.621 169.97 101.967 169.918 102.305C169.748 103.755 168.456 104.966 167.299 105.654C165.938 106.465 162.421 106.795 162.421 106.795Z" fill="#2E2E2E"/>
</g>
<path d="M19.5615 60.2C17.7581 56.7234 17.0021 54.2322 17.0021 53.6559C17.0021 52.5156 19.4809 51.834 19.4809 51.834C23.3479 49.7889 41.5362 52.7449 49.7225 54.1083C54.3051 54.9072 58.941 55.3629 63.5915 55.4716C63.5915 55.4716 64.7255 54.5669 66.0703 53.4266C67.4151 52.2863 73.798 44.7879 76.3016 44.131C78.8052 43.4741 81.0734 45.042 81.0734 45.042C81.0734 45.042 85.1696 47.5208 84.4817 47.998C83.7939 48.4752 73.798 57.0891 71.2944 58.6817C68.7908 60.2743 63.5667 59.5927 59.0181 60.5036C55.1015 61.2845 39.2371 62.2512 35.5994 62.5487C32.8675 63.1966 30.0002 62.9579 27.4131 61.867" fill="white"/>
<path d="M81.1168 45.0171C81.1168 45.0171 78.8425 43.4245 76.345 44.1062C73.8476 44.7879 67.4771 52.2925 66.1137 53.4018C64.7504 54.511 63.6349 55.4468 63.6349 55.4468C58.9844 55.3381 54.3485 54.8823 49.7659 54.0834C41.5796 52.7201 23.3913 49.7455 19.5243 51.8091C19.5243 51.8091 17.0455 52.4908 17.0455 53.631C17.1316 54.2685 17.296 54.8929 17.535 55.4902L17.8759 55.6141C17.8759 55.6141 22.4183 55.1369 32.2221 55.3724C42.0258 55.6079 64.7008 56.9527 66.1571 57.4794C66.7768 57.7149 71.1705 56.7234 76.0414 55.0006C79.7596 51.9702 84.1285 48.1838 84.5685 47.9174C85.213 47.5146 81.1168 45.0171 81.1168 45.0171Z" fill="#F89E31"/>
<path opacity="0.5" d="M81.1168 45.0171C81.1168 45.0171 78.8425 43.4245 76.345 44.1062C73.8476 44.7879 67.4771 52.2925 66.1137 53.4018C64.7504 54.511 63.6349 55.4468 63.6349 55.4468C58.9844 55.3381 54.3485 54.8823 49.7659 54.0834C41.5796 52.7201 23.3913 49.7455 19.5243 51.8091C19.5243 51.8091 17.0455 52.4908 17.0455 53.631C17.1316 54.2685 17.296 54.8929 17.535 55.4902L17.8759 55.6141C17.8759 55.6141 22.4183 55.1369 32.2221 55.3724C42.0258 55.6079 64.7008 56.9527 66.1571 57.4794C66.7768 57.7149 71.1705 56.7234 76.0414 55.0006C79.7596 51.9702 84.1285 48.1838 84.5685 47.9174C85.213 47.5146 81.1168 45.0171 81.1168 45.0171Z" fill="white"/>
<path d="M19.5615 60.2C17.7581 56.7234 17.0021 54.2322 17.0021 53.6559C17.0021 52.5156 19.4809 51.834 19.4809 51.834C23.3479 49.7889 41.5362 52.7449 49.7225 54.1083C54.3051 54.9072 58.941 55.3629 63.5915 55.4716C63.5915 55.4716 64.7255 54.5669 66.0703 53.4266C67.4151 52.2863 73.798 44.7879 76.3016 44.131C78.8052 43.4741 81.0734 45.042 81.0734 45.042C81.0734 45.042 85.1696 47.5208 84.4817 47.998C83.7939 48.4752 73.798 57.0891 71.2944 58.6817C68.7908 60.2743 63.5667 59.5927 59.0181 60.5036C55.1015 61.2845 39.2371 62.2512 35.5994 62.5487C32.8675 63.1966 30.0002 62.9579 27.4131 61.867" stroke="#2E2E2E" stroke-linecap="round" stroke-linejoin="round"/>
<path d="M109.363 80.4146C109.774 79.6338 110.391 78.9804 111.147 78.5249C111.903 78.0695 112.769 77.8293 113.651 77.8304H154.986C154.986 77.8304 157.973 77.8305 157.08 83.5069C156.188 89.1834 143.93 123.844 140.968 134.323C138.006 144.802 137.38 166.888 137.38 166.888H87.8034C87.8034 166.888 91.7323 114.071 109.363 80.4146Z" fill="white"/>
<path opacity="0.16" d="M127.979 77.8304H113.651C112.769 77.8293 111.903 78.0695 111.147 78.5249C110.391 78.9804 109.774 79.6338 109.363 80.4146C91.7324 114.071 87.7601 166.87 87.7601 166.87H109.995L115.479 146.041L138.347 150.757C138.508 149.01 138.694 147.231 138.911 145.477L138.409 139.9C138.409 139.9 133.724 134.973 132.249 133.74C130.774 132.507 131.753 130.282 131.505 120.671C131.257 111.059 122.631 104.149 119.421 98.2311C116.211 92.3129 121.15 88.6133 125.587 82.6951C127.167 80.5572 127.812 78.9831 127.979 77.8304Z" fill="#131313"/>
<path d="M109.363 80.4146C109.774 79.6338 110.391 78.9804 111.147 78.5249C111.903 78.0695 112.769 77.8293 113.651 77.8304H154.986C154.986 77.8304 157.973 77.8305 157.08 83.5069C156.188 89.1834 143.93 123.844 140.968 134.323C138.006 144.802 137.38 166.888 137.38 166.888H87.8034C87.8034 166.888 91.7323 114.071 109.363 80.4146Z" stroke="#2E2E2E" stroke-linecap="round" stroke-linejoin="round"/>
<path d="M150.305 89.0026C146.128 98.7506 137.291 137.34 135.853 168.182H139.844C139.844 168.182 140.464 146.071 143.432 135.617C146.401 125.162 158.671 90.4961 159.545 84.801C160.418 79.1059 157.45 79.1245 157.45 79.1245C157.45 79.1245 153.657 81.1881 150.305 89.0026Z" fill="#2E2E2E" stroke="#2E2E2E" stroke-linecap="round" stroke-linejoin="round"/>
<path d="M75.2048 68.2065C75.2048 68.2065 68.6111 64.3395 66.1137 57.5228C63.6163 50.706 85.6654 39.7868 95.2398 39.1052C104.814 38.4235 107.516 40.9209 113.211 50.6998C118.906 60.4788 122.761 73.8892 119.805 80.4829C116.849 87.0765 111.848 88.6692 115.467 94.1164C119.086 99.5636 129.336 115.031 128.654 122.307C127.973 129.582 120.927 135.94 110.683 136.634C100.439 137.328 86.8057 131.175 75.4403 121.142C64.0749 111.109 67.0247 96.3535 71.1023 91.5818C75.18 86.81 81.3337 84.9881 81.786 80.2164C82.2384 75.4447 75.2048 68.2065 75.2048 68.2065Z" fill="#2E2E2E" stroke="#2E2E2E" stroke-linecap="round" stroke-linejoin="round"/>
<path d="M103.308 57.4174C106.81 63.9367 111.191 72.6683 112.561 77.942C114.953 87.1756 102.645 92.9884 106.06 97.4317" stroke="white" stroke-linecap="round" stroke-linejoin="round"/>
<path d="M98.5367 48.8779C98.5367 48.8779 99.9001 51.2018 101.784 54.6226" stroke="white" stroke-linecap="round" stroke-linejoin="round"/>
<path d="M116.905 65.2815C117.309 66.5033 117.571 67.7676 117.686 69.0493" stroke="white" stroke-linecap="round" stroke-linejoin="round"/>
<path d="M100.904 45.488C100.904 45.488 111.674 53.445 115.975 62.9699" stroke="white" stroke-linecap="round" stroke-linejoin="round"/>
<path d="M85.9566 51.4558C78.2661 53.6124 67.2044 57.1137 68.1029 59.134" stroke="white" stroke-linecap="round" stroke-linejoin="round"/>
<path d="M93.0647 49.5596C93.0647 49.5596 91.4225 49.9686 88.9747 50.6255" stroke="white" stroke-linecap="round" stroke-linejoin="round"/>
<path d="M83.5522 45.5438C87.9574 44.1555 92.5713 43.5473 97.1858 43.7467" stroke="white" stroke-linecap="round" stroke-linejoin="round"/>
<path d="M80.4165 46.8266C81.113 46.4637 81.8335 46.149 82.5731 45.8846" stroke="white" stroke-linecap="round" stroke-linejoin="round"/>
<path d="M17.0021 53.6558C16.9993 53.6991 16.9993 53.7426 17.0021 53.7859C16.9993 53.7426 16.9993 53.6991 17.0021 53.6558ZM19.5615 60.1999C18.5178 58.2885 17.6865 56.2687 17.0827 54.1763C17.6836 56.2697 18.515 58.2899 19.5615 60.1999ZM17.0145 53.8231C17.0145 53.8603 17.0145 53.9036 17.0145 53.9594C17.0269 53.9036 17.0207 53.8603 17.0145 53.8231ZM17.0455 53.9966C17.0531 54.0574 17.0656 54.1175 17.0827 54.1763C17.0656 54.1175 17.0531 54.0574 17.0455 53.9966ZM19.5615 60.1937C21.8792 64.5835 24.7627 68.6504 28.1382 72.2903C36.3245 81.1583 59.9725 104.354 62.222 105.946C64.4715 107.539 63.8146 112.082 62.222 116.63C60.6293 121.179 54.7174 127.785 54.9466 135.048C55.1759 142.311 57.4255 153.465 57.221 155.74C57.0165 158.014 51.3276 165.748 51.3276 165.748H109.989C109.989 165.748 102.676 156.452 102.676 153.273C102.676 150.094 112.716 109.361 113.168 106.405C113.62 103.449 111.805 101.404 108.167 101.175C104.529 100.945 90.6602 97.9894 89.9786 95.7151C89.2969 93.4408 93.6162 84.8021 93.6162 84.8021L79.9827 85.4838C79.9827 85.4838 79.301 91.3958 78.3901 92.5361C77.4791 93.6763 76.1158 91.3958 72.9305 89.8093C69.7452 88.2229 63.6349 86.8534 61.3358 85.0314C59.0367 83.2095 37.2355 62.722 37.2355 62.722" fill="white"/>
<path d="M64.8186 86.7852C65.9527 88.7682 67.0867 90.5592 67.0867 90.5592C67.0867 90.5592 70.9103 92.7095 71.8646 92.7095C72.819 92.7095 78.5575 95.8081 78.5575 95.8081C78.5575 95.8081 83.3416 94.612 81.656 90.5468C81.1242 89.506 80.4529 88.5428 79.6605 87.6837C79.3755 89.4871 78.9169 91.8481 78.3777 92.5236C77.4668 93.6577 76.1034 91.3834 72.9181 89.7969C70.8545 88.7682 67.5143 87.8263 64.8186 86.7852Z" fill="#F89E31"/>
<path d="M53.1433 77.5826C46.122 71.0819 37.2354 62.7468 37.2354 62.7468L32.0671 62.0032L31.4474 62.3502C31.4474 62.3502 46.0352 75.2587 49.14 76.6964C50.396 77.2737 51.7609 77.5759 53.1433 77.5826Z" fill="#F89E31"/>
<path d="M60.4992 84.3125L59.9415 83.8168C60.2265 84.2877 60.3877 84.5852 60.3877 84.5852L60.4992 84.3125Z" fill="#F89E31"/>
<g opacity="0.5">
<path opacity="0.5" d="M64.8186 86.7852C65.9527 88.7682 67.0867 90.5592 67.0867 90.5592C67.0867 90.5592 70.9103 92.7095 71.8646 92.7095C72.819 92.7095 78.5575 95.8081 78.5575 95.8081C78.5575 95.8081 83.3416 94.612 81.656 90.5468C81.1242 89.506 80.4529 88.5428 79.6605 87.6837C79.3755 89.4871 78.9169 91.8481 78.3777 92.5236C77.4668 93.6577 76.1034 91.3834 72.9181 89.7969C70.8545 88.7682 67.5143 87.8263 64.8186 86.7852Z" fill="white"/>
<path opacity="0.5" d="M53.1433 77.5826C46.122 71.0819 37.2354 62.7468 37.2354 62.7468L32.0671 62.0032L31.4474 62.3502C31.4474 62.3502 46.0352 75.2587 49.14 76.6964C50.396 77.2737 51.7609 77.5759 53.1433 77.5826Z" fill="white"/>
<path opacity="0.5" d="M60.4992 84.3125L59.9415 83.8168C60.2265 84.2877 60.3877 84.5852 60.3877 84.5852L60.4992 84.3125Z" fill="white"/>
</g>
<path d="M19.5615 60.1937C21.8792 64.5835 24.7627 68.6504 28.1382 72.2903C36.3245 81.1583 59.9725 104.354 62.222 105.946C64.4715 107.539 63.8146 112.082 62.222 116.63C60.6293 121.179 54.7174 127.785 54.9466 135.048C55.1759 142.311 57.4255 153.465 57.221 155.74C57.0165 158.014 51.3276 165.748 51.3276 165.748H109.989C109.989 165.748 102.676 156.452 102.676 153.273C102.676 150.094 112.716 109.361 113.168 106.405C113.62 103.449 111.805 101.404 108.167 101.175C104.529 100.945 90.6602 97.9894 89.9786 95.7151C89.2969 93.4408 93.6162 84.8021 93.6162 84.8021L79.9827 85.4838C79.9827 85.4838 79.301 91.3958 78.3901 92.5361C77.4791 93.6763 76.1158 91.3958 72.9305 89.8093C69.7452 88.2229 63.6349 86.8534 61.3358 85.0314C59.0367 83.2095 37.2355 62.722 37.2355 62.722M17.0021 53.6558C16.9993 53.6991 16.9993 53.7426 17.0021 53.7859C16.9993 53.7426 16.9993 53.6991 17.0021 53.6558V53.6558ZM19.5615 60.1999C18.5178 58.2885 17.6865 56.2687 17.0827 54.1763C17.6836 56.2697 18.515 58.2899 19.5615 60.1999V60.1999ZM17.0145 53.8231C17.0145 53.8603 17.0145 53.9036 17.0145 53.9594C17.0269 53.9036 17.0207 53.8603 17.0145 53.8231V53.8231ZM17.0455 53.9966C17.0531 54.0574 17.0656 54.1175 17.0827 54.1763C17.0656 54.1175 17.0531 54.0574 17.0455 53.9966Z" stroke="#2E2E2E" stroke-linecap="round" stroke-linejoin="round"/>
<path d="M37.2355 62.7469C37.2355 62.7469 29.9725 62.8832 25.9197 59.543" stroke="#2E2E2E" stroke-linecap="round" stroke-linejoin="round"/>
<path d="M89.9847 95.7151C89.303 93.447 93.6224 84.8021 93.6224 84.8021L79.9889 85.4838C79.9889 85.4838 79.3072 91.3958 78.3962 92.536C77.4853 93.6763 76.1219 91.3958 72.9366 89.8093C72.695 89.6854 72.4285 89.5677 72.1558 89.4499L71.3316 102.408C71.3316 102.408 72.5276 114.957 86.8676 112.571C92.6742 111.604 98.8713 106.424 104.219 100.598C98.7164 99.5883 90.5053 97.4565 89.9847 95.7151Z" fill="white"/>
<path d="M89.6005 86.5187C89.6005 86.5187 88.7763 91.1417 88.1132 96.2542C87.4501 101.367 86.9606 105.172 86.9606 105.172L89.9847 95.7151L93.3931 85.6945C93.3931 85.6945 90.0963 85.6944 89.6005 86.5187Z" fill="#F89E31"/>
<path opacity="0.5" d="M89.6005 86.5187C89.6005 86.5187 88.7763 91.1417 88.1132 96.2542C87.4501 101.367 86.9606 105.172 86.9606 105.172L89.9847 95.7151L93.3931 85.6945C93.3931 85.6945 90.0963 85.6944 89.6005 86.5187Z" fill="white"/>
<path d="M89.9847 95.7151C89.303 93.447 93.6224 84.8021 93.6224 84.8021L79.9889 85.4838C79.9889 85.4838 79.3072 91.3958 78.3962 92.536C77.4853 93.6763 76.1219 91.3958 72.9366 89.8093C72.695 89.6854 72.4285 89.5677 72.1558 89.4499L71.3316 102.408C71.3316 102.408 72.5276 114.957 86.8676 112.571C92.6742 111.604 98.8713 106.424 104.219 100.598C98.7164 99.5883 90.5053 97.4565 89.9847 95.7151Z" stroke="#2E2E2E" stroke-linecap="round" stroke-linejoin="round"/>
<path d="M78.3901 92.536C77.4791 93.6701 76.1158 91.3958 72.9305 89.8093C70.9226 88.7992 67.725 87.882 65.0788 86.8905C64.329 85.1119 63.3375 82.7943 62.6992 81.3937C61.5651 78.9149 59.7432 80.4828 59.7432 80.4828C58.7927 79.4017 58.0245 78.173 57.4689 76.8451C56.3348 74.3663 54.5129 74.5708 52.0154 74.1184C49.518 73.666 44.2815 68.8881 44.2815 68.8881C44.2815 68.8881 41.8337 67.029 40.8236 66.1056C39.6461 68.4233 36.8265 72.501 30.7286 75.0479C40.4517 85.2049 60.177 104.503 62.2468 105.953C64.5211 107.539 63.8394 112.088 62.2468 116.636C60.6541 121.185 54.7422 127.791 54.9714 135.054C55.2007 142.317 57.4503 153.472 57.2458 155.746C57.0413 157.772 52.505 164.124 51.5197 165.488L53.8312 165.748H65.8659C65.7977 159.65 65.8039 134.763 69.9745 124.847C74.7524 113.451 78.3901 92.536 78.3901 92.536Z" fill="#F89E31"/>
<path opacity="0.16" d="M72.9305 89.8093C70.9226 88.7992 67.7249 87.882 65.0788 86.8905C64.3289 85.1119 63.3374 82.7943 62.6991 81.3937C61.5651 78.9149 59.7431 80.4828 59.7431 80.4828C58.7926 79.4017 58.0245 78.173 57.4688 76.8451C56.3348 74.3663 54.5128 74.5708 52.0154 74.1184C49.518 73.666 44.2815 68.8881 44.2815 68.8881C44.2815 68.8881 41.8337 67.029 40.8235 66.1056C40.3195 67.0897 39.7196 68.0217 39.0326 68.8881C43.0979 72.3274 47.5845 75.9713 49.1524 76.6963C52.2509 78.1279 52.976 76.9318 55.3494 78.3696C57.7229 79.8073 60.369 84.5666 60.369 84.5666C60.369 84.5666 61.8067 80.7368 63.0028 83.3706C64.1988 86.0043 67.068 90.5406 67.068 90.5406C67.068 90.5406 70.8916 92.6909 71.846 92.6909C72.5958 92.6909 76.2707 94.5996 77.8323 95.4238C78.1794 93.6081 78.3715 92.5174 78.3715 92.5174C77.4791 93.6701 76.1157 91.3957 72.9305 89.8093Z" fill="#131313"/>
<path d="M78.3901 92.536C77.4791 93.6701 76.1158 91.3958 72.9305 89.8093C70.9226 88.7992 67.725 87.882 65.0788 86.8905C64.329 85.1119 63.3375 82.7943 62.6992 81.3937C61.5651 78.9149 59.7432 80.4828 59.7432 80.4828C58.7927 79.4017 58.0245 78.173 57.4689 76.8451C56.3348 74.3663 54.5129 74.5708 52.0154 74.1184C49.518 73.666 44.2815 68.8881 44.2815 68.8881C44.2815 68.8881 41.8337 67.029 40.8236 66.1056C39.6461 68.4233 36.8265 72.501 30.7286 75.0479C40.4517 85.2049 60.177 104.503 62.2468 105.953C64.5211 107.539 63.8394 112.088 62.2468 116.636C60.6541 121.185 54.7422 127.791 54.9714 135.054C55.2007 142.317 57.4503 153.472 57.2458 155.746C57.0413 157.772 52.505 164.124 51.5197 165.488L53.8312 165.748H65.8659C65.7977 159.65 65.8039 134.763 69.9745 124.847C74.7524 113.451 78.3901 92.536 78.3901 92.536Z" stroke="#2E2E2E" stroke-linecap="round" stroke-linejoin="round"/>
<path d="M78.5512 91.7429C78.5512 91.7429 75.7254 90.8753 73.984 92.3998C72.2426 93.9243 69.6461 101.745 68.1154 110.229C67.172 115.167 67.823 120.278 69.9745 124.823C69.9745 124.823 73.5502 115.447 74.6347 110.879C75.7192 106.312 78.5512 91.7429 78.5512 91.7429Z" fill="#F89E31"/>
<path opacity="0.16" d="M73.1288 93.1248C73.1288 93.1248 75.1738 92.629 76.0166 92.9141C76.7263 93.2185 77.3897 93.6211 77.9873 94.1101L78.5512 91.7428C77.7053 91.3106 76.7458 91.1525 75.8059 91.2904C74.3992 91.5755 73.1288 93.1248 73.1288 93.1248Z" fill="#131313"/>
<path d="M78.5512 91.7429C78.5512 91.7429 75.7254 90.8753 73.984 92.3998C72.2426 93.9243 69.6461 101.745 68.1154 110.229C67.172 115.167 67.823 120.278 69.9745 124.823C69.9745 124.823 73.5502 115.447 74.6347 110.879C75.7192 106.312 78.5512 91.7429 78.5512 91.7429Z" stroke="#2E2E2E" stroke-linecap="round" stroke-linejoin="round"/>
<path d="M59.5201 92.4866L63.1577 107.267L54.9714 88.6196" stroke="#2E2E2E" stroke-linecap="round" stroke-linejoin="round"/>
<path d="M83.4841 165.748H109.995C109.995 165.748 102.683 156.452 102.683 153.273C102.683 150.094 112.722 109.361 113.174 106.405C113.627 103.449 111.811 101.404 108.173 101.175C104.535 100.945 90.6665 97.9894 89.9848 95.7151C89.9848 95.7151 84.7545 114.133 82.9387 126.638C81.3771 137.365 82.9945 159.625 83.4841 165.748Z" fill="#F89E31"/>
<path opacity="0.16" d="M108.173 101.175C105.192 100.989 95.3453 98.9687 91.5093 96.998L92.9036 100.221C95.4299 101.561 98.1469 102.505 100.96 103.022C105.577 103.846 109.871 103.685 112.678 107.812L112.815 108.016C112.988 107.223 113.106 106.665 113.143 106.405C113.633 103.449 111.811 101.404 108.173 101.175Z" fill="#131313"/>
<path d="M83.4841 165.748H109.995C109.995 165.748 102.683 156.452 102.683 153.273C102.683 150.094 112.722 109.361 113.174 106.405C113.627 103.449 111.811 101.404 108.173 101.175C104.535 100.945 90.6665 97.9894 89.9848 95.7151C89.9848 95.7151 84.7545 114.133 82.9387 126.638C81.3771 137.365 82.9945 159.625 83.4841 165.748Z" stroke="#2E2E2E" stroke-linecap="round" stroke-linejoin="round"/>
<path d="M89.9848 95.7151C89.9848 95.7151 82.9697 118.024 82.9387 126.638C82.9387 126.638 92.9036 114.573 94.205 106.095C95.5063 97.6176 89.9848 95.7151 89.9848 95.7151Z" fill="#F89E31"/>
<path opacity="0.16" d="M88.7763 98.5657C89.8304 98.5304 90.8772 98.7523 91.8263 99.2123C92.7754 99.6722 93.5982 100.356 94.2235 101.206C94.2235 101.206 92.8478 97.159 89.9847 95.7151L88.7763 98.5657Z" fill="#131313"/>
<path d="M89.9848 95.7151C89.9848 95.7151 82.9697 118.024 82.9387 126.638C82.9387 126.638 92.9036 114.573 94.205 106.095C95.5063 97.6176 89.9848 95.7151 89.9848 95.7151Z" stroke="#2E2E2E" stroke-linecap="round" stroke-linejoin="round"/>
<path d="M164.876 161.553C164.876 161.553 170.013 161.763 173.378 162.247C175.622 162.551 177.882 162.731 180.146 162.786C180.146 162.786 178.286 159.03 176.303 157.971C174.32 156.911 170.726 155.015 167.714 155.436C164.703 155.858 160.396 158.894 160.755 159.861C161.114 160.828 162.719 161.261 164.876 161.553Z" fill="white"/>
<path d="M164.876 161.553C164.876 161.553 170.013 161.763 173.378 162.247C175.622 162.551 177.882 162.731 180.146 162.786C180.146 162.786 178.286 159.03 176.303 157.971C174.32 156.911 170.726 155.015 167.714 155.436C164.703 155.858 160.396 158.894 160.755 159.861C161.114 160.828 162.719 161.261 164.876 161.553Z" fill="#F89E31"/>
<path opacity="0.5" d="M164.876 161.553C164.876 161.553 170.013 161.763 173.378 162.247C175.622 162.551 177.882 162.731 180.146 162.786C180.146 162.786 178.286 159.03 176.303 157.971C174.32 156.911 170.726 155.015 167.714 155.436C164.703 155.858 160.396 158.894 160.755 159.861C161.114 160.828 162.719 161.261 164.876 161.553Z" fill="white"/>
<path d="M164.876 161.553C164.876 161.553 170.013 161.763 173.378 162.247C175.622 162.551 177.882 162.731 180.146 162.786C180.146 162.786 178.286 159.03 176.303 157.971C174.32 156.911 170.726 155.015 167.714 155.436C164.703 155.858 160.396 158.894 160.755 159.861C161.114 160.828 162.719 161.261 164.876 161.553Z" stroke="#2E2E2E" stroke-linecap="round" stroke-linejoin="round"/>
<path d="M104.789 123.924C108.768 130.053 116.756 145.583 119.086 147.33C122.724 150.057 147.041 156.676 149.383 158.485C151.726 160.295 151.565 162.11 153.783 162.774C156.002 163.437 164.318 165.339 167.491 165.637C170.664 165.934 169.245 163.97 169.245 163.97L163.835 160.251L168.551 159.086C168.551 159.086 173.279 164.775 174.165 165.085C175.052 165.395 176.613 165.085 176.514 164.385C176.341 163.263 171.296 154.085 169.505 153.695C167.714 153.304 156.845 154.81 156.845 154.81C156.845 154.81 134.046 139.435 133.637 138.89C133.637 138.89 132.273 135.023 131.158 133.43C130.042 131.838 129.336 132.296 129.336 132.296C129.336 132.296 129.795 130.245 129.113 129.564L125.475 125.926L125.345 126.099C124.725 124.86 124.106 123.447 123.424 121.836C121.522 117.355 114.785 104.782 113.651 102.966C112.802 101.609 105.688 100.636 102.081 100.227" fill="#F89E31"/>
<path opacity="0.16" d="M120.629 124.315C123.604 126.954 122.612 126.954 121.949 129.272C121.286 131.59 122.445 128.448 125.252 128.615C128.059 128.783 127.235 132.408 126.901 133.071C126.566 133.734 130.371 134.558 129.708 136.039C129.045 137.52 125.252 139.671 123.108 141.821C120.964 143.972 128.716 138.351 131.356 138.19C132.162 138.134 132.825 138.239 133.383 138.227C132.798 136.569 132.046 134.974 131.139 133.468C129.999 131.875 129.317 132.334 129.317 132.334C129.317 132.334 129.776 130.282 129.094 129.601L125.457 125.963L125.327 126.136C124.707 124.897 124.087 123.484 123.406 121.873C121.503 117.392 114.767 104.819 113.633 103.003C112.784 101.646 105.67 100.673 102.063 100.264L102.391 103.133L102.472 103.195C102.472 103.195 106.928 104.019 108.415 104.187C109.902 104.354 111.718 105.668 111.551 106.665C111.383 107.663 107.095 112.113 108.415 112.447C109.735 112.782 111.222 109.144 112.709 109.64C114.197 110.136 117.636 121.675 120.629 124.315Z" fill="#131313"/>
<path d="M104.789 123.924C108.768 130.053 116.756 145.583 119.086 147.33C122.724 150.057 147.041 156.676 149.383 158.485C151.726 160.295 151.565 162.11 153.783 162.774C156.002 163.437 164.318 165.339 167.491 165.637C170.664 165.934 169.245 163.97 169.245 163.97L163.835 160.251L168.551 159.086C168.551 159.086 173.279 164.775 174.165 165.085C175.052 165.395 176.613 165.085 176.514 164.385C176.341 163.263 171.296 154.085 169.505 153.695C167.714 153.304 156.845 154.81 156.845 154.81C156.845 154.81 134.046 139.435 133.637 138.89C133.637 138.89 132.273 135.023 131.158 133.43C130.042 131.838 129.336 132.296 129.336 132.296C129.336 132.296 129.795 130.245 129.113 129.564L125.475 125.926L125.345 126.099C124.725 124.86 124.106 123.447 123.424 121.836C121.522 117.355 114.785 104.782 113.651 102.966C112.802 101.609 105.688 100.636 102.081 100.227" stroke="#2E2E2E" stroke-linecap="round" stroke-linejoin="round"/>
<path d="M104.851 115.515C104.684 116.072 104.542 116.63 104.43 117.2" stroke="#2E2E2E" stroke-linecap="round" stroke-linejoin="round"/>
<path d="M110.875 105.259C108.928 107.478 107.285 109.948 105.992 112.602" stroke="#2E2E2E" stroke-linecap="round" stroke-linejoin="round"/>
<path d="M119.979 140.445C121.652 137.967 124.316 134.825 127.254 133.926" stroke="#2E2E2E" stroke-linecap="round" stroke-linejoin="round"/>
<path d="M118.126 143.494C118.126 143.494 118.423 142.912 118.956 142.032" stroke="#2E2E2E" stroke-linecap="round" stroke-linejoin="round"/>
<path d="M118.126 139.578C118.126 139.578 121.168 131.968 124.211 130.01C127.254 128.051 125.512 131.968 125.512 131.968" stroke="#2E2E2E" stroke-linecap="round" stroke-linejoin="round"/>
<path d="M149.383 158.491C151.732 160.307 151.565 162.117 153.783 162.78C156.002 163.443 164.318 165.345 167.491 165.643C170.664 165.94 169.245 163.976 169.245 163.976L163.835 160.257L168.551 159.092C168.551 159.092 173.279 164.781 174.165 165.091C175.052 165.401 176.737 165.513 176.514 164.391C176.08 162.222 171.296 154.091 169.505 153.701C167.714 153.311 156.845 154.816 156.845 154.816C156.845 154.816 136.078 140.563 133.804 139.02C124.986 139.869 120.79 144.486 119.024 147.256L119.086 147.306C122.724 150.057 147.041 156.676 149.383 158.491Z" fill="white"/>
<path d="M176.508 164.416C175.38 161.658 171.29 154.116 169.499 153.726C167.708 153.335 156.839 154.841 156.839 154.841C156.839 154.841 136.072 140.588 133.798 139.045C131.483 139.246 129.212 139.796 127.062 140.675C130.34 142.534 152.191 154.928 154.948 155.48C157.873 156.099 167.634 154.494 169.35 155.647C170.441 156.378 173.688 161.528 175.882 165.184C176.508 165.091 176.737 164.973 176.508 164.416Z" fill="#F89E31"/>
<path opacity="0.5" d="M176.508 164.416C174.748 160.468 171.29 154.116 169.499 153.726C167.708 153.335 156.839 154.841 156.839 154.841C156.839 154.841 136.072 140.588 133.798 139.045C131.483 139.246 129.212 139.796 127.062 140.675C130.34 142.534 152.191 154.928 154.948 155.48C157.873 156.099 167.634 154.494 169.35 155.647C170.441 156.378 173.688 161.528 175.882 165.184C176.508 165.091 176.756 164.967 176.508 164.416Z" fill="white"/>
<path d="M149.383 158.491C151.732 160.307 151.565 162.117 153.783 162.78C156.002 163.443 164.318 165.345 167.491 165.643C170.664 165.94 169.245 163.976 169.245 163.976L163.835 160.257L168.551 159.092C168.551 159.092 173.279 164.781 174.165 165.091C175.052 165.401 176.737 165.513 176.514 164.391C176.08 162.222 171.296 154.091 169.505 153.701C167.714 153.311 156.845 154.816 156.845 154.816C156.845 154.816 136.078 140.563 133.804 139.02C124.986 139.869 120.79 144.486 119.024 147.256L119.086 147.306C122.724 150.057 147.041 156.676 149.383 158.491Z" stroke="#2E2E2E" stroke-linecap="round" stroke-linejoin="round"/>
<path d="M94.6139 50.2783L75.9484 58.068C75.7222 61.3485 74.91 64.5618 73.5502 67.5557C71.344 72.2221 72.633 81.0529 74.7524 85.8184C76.8718 90.5839 86.2107 88.7186 89.6253 88.1237C91.9412 87.6831 94.2094 87.0212 96.3987 86.1468C97.3955 86.531 98.4738 86.6552 99.5319 86.5078C100.59 86.3604 101.593 85.9461 102.447 85.304C102.447 85.304 92.4574 57.2624 94.6139 50.2783Z" fill="white"/>
<path d="M94.6139 50.2783L75.9484 58.068C75.7222 61.3485 74.9099 64.5618 73.5502 67.5557C71.344 72.2221 72.633 81.0529 74.7524 85.8184C75.1072 86.5847 75.6779 87.2309 76.3946 87.6775V87.3181C76.3946 87.3181 72.9304 78.7352 73.5873 73.7837C74.2442 68.8323 77.0577 66.3473 77.3861 63.2178C77.7146 60.0882 77.5473 58.601 83.8249 56.2895C90.1025 53.978 92.7362 51.8338 93.3931 54.1391C94.05 56.4444 96.6961 71.6395 98.5119 75.271C100.328 78.9025 100.16 82.7075 97.3592 84.3497C94.5282 86.0491 91.4947 87.3858 88.3301 88.3282L89.6501 88.0989C91.966 87.6584 94.2342 86.9964 96.4235 86.1221C97.4203 86.5062 98.4985 86.6305 99.5566 86.483C100.615 86.3356 101.618 85.9213 102.472 85.2792C102.472 85.2792 92.4574 57.2624 94.6139 50.2783Z" fill="#F89E31"/>
<path opacity="0.5" d="M94.6139 50.2783L75.9484 58.068C75.7222 61.3485 74.9099 64.5618 73.5502 67.5557C71.344 72.2221 72.633 81.0529 74.7524 85.8184C75.1072 86.5847 75.6779 87.2309 76.3946 87.6775V87.3181C76.3946 87.3181 72.9304 78.7352 73.5873 73.7837C74.2442 68.8323 77.0577 66.3473 77.3861 63.2178C77.7146 60.0882 77.5473 58.601 83.8249 56.2895C90.1025 53.978 92.7362 51.8338 93.3931 54.1391C94.05 56.4444 96.6961 71.6395 98.5119 75.271C100.328 78.9025 100.16 82.7075 97.3592 84.3497C94.5282 86.0491 91.4947 87.3858 88.3301 88.3282L89.6501 88.0989C91.966 87.6584 94.2342 86.9964 96.4235 86.1221C97.4203 86.5062 98.4985 86.6305 99.5566 86.483C100.615 86.3356 101.618 85.9213 102.472 85.2792C102.472 85.2792 92.4574 57.2624 94.6139 50.2783Z" fill="white"/>
<path d="M94.6139 50.2783L75.9484 58.068C75.7222 61.3485 74.91 64.5618 73.5502 67.5557C71.344 72.2221 72.633 81.0529 74.7524 85.8184C76.8718 90.5839 86.2107 88.7186 89.6253 88.1237C91.9412 87.6831 94.2094 87.0212 96.3987 86.1468C97.3955 86.531 98.4738 86.6552 99.5319 86.5078C100.59 86.3604 101.593 85.9461 102.447 85.304C102.447 85.304 92.4574 57.2624 94.6139 50.2783Z" stroke="#2E2E2E" stroke-linecap="round" stroke-linejoin="round"/>
<path d="M102.72 90.6025C102.72 92.0464 101.902 93.2177 100.898 93.2177C99.8938 93.2177 99.082 92.0464 99.082 90.6025C99.082 89.1586 99.8938 85.4838 100.898 85.4838C101.902 85.4838 102.72 89.1586 102.72 90.6025Z" fill="#F89E31" stroke="#2E2E2E" stroke-linecap="round" stroke-linejoin="round"/>
<path d="M124.38 167.97H56.4178L54.2017 130.609C54.1405 130.247 54.1586 129.875 54.2547 129.521C54.3508 129.166 54.5227 128.837 54.7585 128.555C54.9943 128.273 55.2885 128.046 55.6206 127.889C55.9527 127.732 56.315 127.649 56.6824 127.645H124.089C124.459 127.645 124.824 127.725 125.159 127.881C125.495 128.036 125.792 128.263 126.031 128.545C126.269 128.827 126.444 129.158 126.541 129.514C126.639 129.871 126.658 130.244 126.596 130.609L124.38 167.97Z" fill="#2E2E2E" stroke="#2E2E2E" stroke-linecap="round" stroke-linejoin="round"/>
<path d="M59.7649 128.538H123.599C123.96 128.535 124.317 128.61 124.646 128.759C124.974 128.907 125.266 129.126 125.501 129.4C125.736 129.673 125.909 129.995 126.006 130.342C126.104 130.689 126.125 131.053 126.067 131.409" stroke="white" stroke-linecap="round" stroke-linejoin="round"/>
<path d="M54.6978 130.821C54.7511 130.195 55.038 129.613 55.5015 129.19C55.9649 128.767 56.5708 128.534 57.1983 128.538" stroke="white" stroke-linecap="round" stroke-linejoin="round"/>
<path d="M124.664 164.332H56.1333V167.97H124.664V164.332Z" fill="white" stroke="#2E2E2E" stroke-linecap="round" stroke-linejoin="round"/>
<path d="M94.1606 148.23C94.659 147.757 95.0164 147.15 95.1919 146.479C95.3674 145.808 95.3539 145.1 95.153 144.436C94.952 143.773 94.5717 143.181 94.0557 142.727C93.5397 142.274 92.9087 141.977 92.235 141.872C91.5614 141.767 90.8723 141.857 90.2467 142.133C89.6211 142.408 89.0843 142.857 88.6977 143.429C88.311 144.001 88.0903 144.672 88.0607 145.366C88.031 146.06 88.1938 146.748 88.5302 147.352L87.793 148.052L87.9694 149.302L86.8237 148.973L85.9011 149.854L86.0775 151.102L84.9318 150.775L84.1374 151.531L84.2444 152.299L83.5464 152.101L83.0836 152.54L83.0143 153.696L84.7072 154.13L90.202 148.907C90.854 149.204 91.5775 149.298 92.2817 149.178C92.9859 149.057 93.6395 148.728 94.1606 148.23ZM93.624 143.682C93.7646 143.836 93.8575 144.028 93.8907 144.235C93.9239 144.443 93.8961 144.655 93.8107 144.846C93.7253 145.037 93.5862 145.198 93.411 145.309C93.2358 145.42 93.0324 145.475 92.8264 145.467C92.6204 145.46 92.4212 145.391 92.254 145.268C92.0868 145.145 91.959 144.975 91.8869 144.778C91.8147 144.581 91.8015 144.367 91.8488 144.163C91.8961 143.959 92.0019 143.773 92.1527 143.63C92.2526 143.535 92.3699 143.461 92.498 143.412C92.626 143.363 92.7623 143.34 92.899 143.345C93.0356 143.35 93.17 143.382 93.2944 143.44C93.4188 143.498 93.5308 143.58 93.624 143.682Z" fill="#F1F4F6"/>
</g>
</svg>
