<svg width="148" height="148" viewBox="0 0 148 148" fill="none" xmlns="http://www.w3.org/2000/svg">
<path d="M129.779 112.478C128.603 112.477 127.43 112.595 126.277 112.828C125.613 108.771 123.712 105.023 120.838 102.103C117.964 99.1827 114.259 97.2355 110.237 96.531C106.215 95.8264 102.075 96.3996 98.3906 98.1709C94.7064 99.9423 91.6606 102.824 89.6753 106.417C88.6286 103.845 86.9305 101.594 84.7506 99.8893C82.5706 98.1845 79.9849 97.0852 77.2514 96.701C74.518 96.3169 71.7323 96.6613 69.1722 97.6999C66.6121 98.7385 64.3672 100.435 62.6613 102.62C60.1417 99.8748 56.9019 97.9038 53.3167 96.935C49.7315 95.9663 45.9472 96.0394 42.4015 97.1459C38.8558 98.2525 35.6935 100.347 33.2803 103.188C30.8671 106.029 29.3015 109.5 28.7646 113.199C27.123 112.699 25.417 112.446 23.7019 112.448C19.0249 112.448 14.5395 114.319 11.2323 117.65C7.92519 120.981 6.06726 125.498 6.06726 130.209C6.06726 134.919 7.92519 139.437 11.2323 142.768C14.5395 146.099 19.0249 147.97 23.7019 147.97H129.779C134.456 147.97 138.941 146.099 142.248 142.768C145.555 139.437 147.413 134.919 147.413 130.209C147.413 125.498 145.555 120.981 142.248 117.65C138.941 114.319 134.456 112.448 129.779 112.448V112.478Z" fill="#F89E31"/>
<path d="M35.0505 124.228H25.4723V147.409H35.0505V124.228Z" fill="white"/>
<path d="M35.0505 147.91H25.4723C25.3404 147.91 25.2139 147.857 25.1206 147.763C25.0274 147.669 24.975 147.542 24.975 147.409V124.218C24.975 124.085 25.0274 123.958 25.1206 123.864C25.2139 123.77 25.3404 123.717 25.4723 123.717H35.0505C35.1824 123.717 35.3089 123.77 35.4022 123.864C35.4954 123.958 35.5478 124.085 35.5478 124.218V147.399C35.5491 147.465 35.5373 147.532 35.5129 147.594C35.4885 147.656 35.452 147.712 35.4057 147.76C35.3594 147.807 35.3041 147.845 35.2432 147.871C35.1822 147.897 35.1167 147.91 35.0505 147.91ZM25.9696 146.908H34.5532V124.729H25.9696V146.908Z" fill="#131313"/>
<path d="M41.1973 124.228H34.8317V147.409H41.1973V124.228Z" fill="white"/>
<path d="M41.1972 147.91H34.8118C34.6799 147.91 34.5534 147.857 34.4601 147.763C34.3668 147.669 34.3145 147.542 34.3145 147.409V124.218C34.3145 124.085 34.3668 123.958 34.4601 123.864C34.5534 123.77 34.6799 123.717 34.8118 123.717H41.1774C41.3093 123.717 41.4357 123.77 41.529 123.864C41.6223 123.958 41.6747 124.085 41.6747 124.218V147.399C41.6774 147.53 41.6289 147.657 41.5396 147.753C41.4503 147.848 41.3274 147.905 41.1972 147.91ZM35.329 146.908H40.6999V124.729H35.329V146.908Z" fill="#131313"/>
<path d="M25.4723 127.865L34.8317 130.409H41.1973V124.228H25.4723V127.865Z" fill="#131313"/>
<path d="M76.964 124.228H67.3857V147.409H76.964V124.228Z" fill="white"/>
<path d="M76.964 147.91H67.3857C67.2538 147.91 67.1274 147.857 67.0341 147.763C66.9408 147.669 66.8884 147.542 66.8884 147.409V124.218C66.8884 124.085 66.9408 123.958 67.0341 123.864C67.1274 123.77 67.2538 123.717 67.3857 123.717H76.964C77.0959 123.717 77.2224 123.77 77.3156 123.864C77.4089 123.958 77.4613 124.085 77.4613 124.218V147.399C77.4626 147.465 77.4507 147.532 77.4263 147.594C77.4019 147.656 77.3655 147.712 77.3192 147.76C77.2729 147.807 77.2176 147.845 77.1566 147.871C77.0956 147.897 77.0301 147.91 76.964 147.91ZM67.8831 146.908H76.4667V124.729H67.8831V146.908Z" fill="#131313"/>
<path d="M83.1107 124.228H76.7451V147.409H83.1107V124.228Z" fill="white"/>
<path d="M83.1107 147.91H76.7451C76.6132 147.91 76.4867 147.857 76.3935 147.763C76.3002 147.669 76.2478 147.542 76.2478 147.409V124.218C76.2478 124.085 76.3002 123.958 76.3935 123.864C76.4867 123.77 76.6132 123.717 76.7451 123.717H83.1107C83.2426 123.717 83.3691 123.77 83.4624 123.864C83.5556 123.958 83.608 124.085 83.608 124.218V147.399C83.6093 147.465 83.5975 147.532 83.5731 147.594C83.5487 147.656 83.5122 147.712 83.4659 147.76C83.4196 147.807 83.3643 147.845 83.3033 147.871C83.2423 147.897 83.1769 147.91 83.1107 147.91ZM77.2424 146.908H82.6134V124.729H77.2424V146.908Z" fill="#131313"/>
<path d="M67.3857 127.865L76.7452 130.409H83.1107V124.228H67.3857V127.865Z" fill="#131313"/>
<path d="M122.296 124.243L112.718 124.162L112.525 147.342L122.103 147.423L122.296 124.243Z" fill="white"/>
<path d="M122.09 147.93L112.512 147.85C112.382 147.842 112.259 147.789 112.164 147.699C112.075 147.601 112.025 147.472 112.024 147.339L112.233 124.158C112.235 124.092 112.249 124.027 112.275 123.967C112.301 123.907 112.339 123.852 112.386 123.807C112.433 123.761 112.489 123.725 112.549 123.701C112.61 123.678 112.675 123.666 112.741 123.667L122.319 123.747C122.384 123.747 122.449 123.76 122.509 123.785C122.569 123.811 122.622 123.85 122.667 123.898C122.757 123.992 122.807 124.118 122.806 124.248L122.597 147.429C122.595 147.563 122.54 147.69 122.445 147.784C122.35 147.877 122.223 147.93 122.09 147.93ZM113.009 146.848L121.593 146.918L121.802 124.739L113.218 124.669L113.009 146.848Z" fill="#131313"/>
<path d="M128.442 124.285L122.077 124.231L121.884 147.411L128.249 147.465L128.442 124.285Z" fill="white"/>
<path d="M128.227 147.98L121.861 147.93C121.731 147.922 121.608 147.869 121.513 147.78C121.467 147.732 121.432 147.675 121.408 147.613C121.384 147.551 121.372 147.485 121.374 147.419L121.583 124.238C121.585 124.106 121.639 123.98 121.731 123.887C121.824 123.793 121.949 123.74 122.08 123.737L128.436 123.797C128.502 123.796 128.569 123.809 128.63 123.835C128.692 123.861 128.748 123.899 128.794 123.948C128.884 124.042 128.934 124.168 128.933 124.298L128.714 147.479C128.714 147.61 128.663 147.736 128.572 147.83C128.481 147.923 128.357 147.977 128.227 147.98ZM122.339 146.928H127.71L127.919 124.749H122.548L122.339 146.928Z" fill="#131313"/>
<path d="M112.691 127.804L122.03 130.419L128.396 130.479L128.446 124.298L112.721 124.158L112.691 127.804Z" fill="#131313"/>
<path d="M56.3056 33.9797H97.4731C105.651 33.9797 113.493 37.2515 119.276 43.0754C125.058 48.8993 128.306 56.7981 128.306 65.0343V124.218H25.4723V65.0343C25.4723 56.7981 28.7208 48.8993 34.5032 43.0754C40.2855 37.2515 48.1281 33.9797 56.3056 33.9797Z" fill="white"/>
<path d="M128.306 124.729H25.4723C25.3404 124.729 25.2139 124.676 25.1206 124.582C25.0274 124.488 24.975 124.361 24.975 124.228V65.0342C24.9829 56.6676 28.2863 48.646 34.1602 42.7299C40.0342 36.8139 47.9986 33.4867 56.3056 33.4788H97.4731C105.78 33.4867 113.745 36.8139 119.618 42.7299C125.492 48.646 128.796 56.6676 128.804 65.0342V124.218C128.805 124.285 128.793 124.351 128.769 124.413C128.744 124.475 128.708 124.531 128.662 124.579C128.615 124.626 128.56 124.664 128.499 124.69C128.438 124.716 128.373 124.729 128.306 124.729ZM25.9994 123.727H127.779V65.0342C127.769 56.9393 124.573 49.1786 118.893 43.4518C113.213 37.725 105.51 34.4991 97.4731 34.4805H56.3056C48.2624 34.4885 40.5509 37.7101 34.8635 43.4383C29.1761 49.1665 25.9775 56.9333 25.9696 65.0342L25.9994 123.727Z" fill="#131313"/>
<path d="M128.535 124.218H67.3857V64.4933C67.3844 60.4867 68.1668 56.5191 69.6883 52.817C71.2097 49.115 73.4404 45.7512 76.2529 42.9176C79.0653 40.084 82.4045 37.8362 86.0797 36.3026C89.7548 34.7691 93.6939 33.9797 97.672 33.9797H98.2489C102.227 33.9797 106.166 34.7691 109.841 36.3026C113.516 37.8362 116.856 40.084 119.668 42.9176C122.481 45.7512 124.711 49.115 126.233 52.817C127.754 56.5191 128.537 60.4867 128.535 64.4933V124.218Z" fill="white"/>
<path d="M128.535 124.729H67.3857C67.2538 124.729 67.1274 124.676 67.0341 124.582C66.9408 124.488 66.8884 124.361 66.8884 124.228V64.4933C66.8884 56.2571 70.1369 48.3582 75.9193 42.5344C81.7017 36.7105 89.5443 33.4387 97.7218 33.4387H98.2986C106.468 33.452 114.297 36.7297 120.069 42.5521C125.841 48.3745 129.082 56.2658 129.082 64.4933V124.218C129.084 124.289 129.071 124.36 129.043 124.425C129.016 124.491 128.975 124.55 128.923 124.598C128.871 124.646 128.81 124.683 128.743 124.706C128.676 124.728 128.605 124.736 128.535 124.729ZM67.8632 123.727H128.018V64.4933C128.018 56.5314 124.881 48.895 119.296 43.2604C113.711 37.6259 106.134 34.4538 98.229 34.4405H97.672C89.7669 34.4538 82.1901 37.6259 76.605 43.2604C71.0199 48.895 67.883 56.5314 67.8831 64.4933L67.8632 123.727Z" fill="#131313"/>
<path d="M67.3858 59.2741H37.2487C37.1158 59.2665 36.9907 59.2086 36.8984 59.112C36.8062 59.0154 36.7536 58.8872 36.7513 58.7532C36.7513 58.5729 37.4078 40.4911 56.982 38.7781H80.6143C80.7461 38.7781 80.8726 38.8308 80.9659 38.9248C81.0592 39.0187 81.1116 39.1461 81.1116 39.279C81.1116 39.4118 81.0592 39.5392 80.9659 39.6331C80.8726 39.7271 80.7461 39.7798 80.6143 39.7798H57.0218C49.2339 40.461 43.6043 43.857 40.332 49.8676C38.9379 52.4705 38.0755 55.3283 37.7957 58.2723H67.3858C67.5176 58.2723 67.6441 58.3251 67.7374 58.419C67.8307 58.513 67.8831 58.6404 67.8831 58.7732C67.8831 58.906 67.8307 59.0334 67.7374 59.1274C67.6441 59.2213 67.5176 59.2741 67.3858 59.2741Z" fill="#131313"/>
<path d="M57.0218 39.2791V58.7733H37.2487C37.2487 58.7733 37.6763 41.3928 57.0218 39.2791Z" fill="#131313"/>
<path d="M52.3968 75.3925H37.2487V85.4601H52.3968V75.3925Z" fill="#131313"/>
<path d="M147.503 147.91H0.497312C0.365417 147.91 0.238923 147.857 0.145659 147.763C0.0523952 147.669 0 147.542 0 147.409C0 147.276 0.0523952 147.149 0.145659 147.055C0.238923 146.961 0.365417 146.908 0.497312 146.908H147.503C147.635 146.908 147.761 146.961 147.854 147.055C147.948 147.149 148 147.276 148 147.409C148 147.542 147.948 147.669 147.854 147.763C147.761 147.857 147.635 147.91 147.503 147.91Z" fill="#131313"/>
<path d="M105.129 37.3549L83.8408 46.6553C82.8329 47.0957 82.3703 48.2756 82.8075 49.2907L88.1786 61.7618C88.6158 62.7769 89.7873 63.2429 90.7952 62.8026L112.083 53.5021C113.091 53.0617 113.554 51.8819 113.117 50.8667L107.745 38.3956C107.308 37.3805 106.137 36.9145 105.129 37.3549Z" fill="white"/>
<path d="M90.0034 63.4715C89.519 63.4692 89.0457 63.3249 88.6413 63.0563C88.2368 62.7877 87.9187 62.4064 87.7257 61.9589L82.3548 49.487C82.2292 49.1839 82.1646 48.8587 82.1646 48.5303C82.1646 48.2019 82.2292 47.8767 82.3548 47.5736C82.5987 46.9559 83.0737 46.4594 83.6776 46.1912L104.973 36.8848C105.578 36.6255 106.261 36.6168 106.874 36.8605C107.486 37.1042 107.979 37.5807 108.245 38.1871L113.616 50.659C113.869 51.2748 113.869 51.9666 113.616 52.5824C113.498 52.8887 113.32 53.168 113.093 53.4037C112.865 53.6395 112.593 53.8269 112.293 53.9548L90.9881 63.2612C90.6784 63.4007 90.3427 63.4724 90.0034 63.4715ZM105.917 37.6862C105.716 37.6865 105.516 37.7274 105.331 37.8064L84.0357 47.0827C83.673 47.2397 83.3869 47.5351 83.24 47.9042C83.0913 48.2736 83.0913 48.6868 83.24 49.0562L88.611 61.5281C88.7701 61.8947 89.0669 62.1829 89.4365 62.3295C89.6175 62.4064 89.812 62.446 90.0084 62.446C90.2048 62.446 90.3993 62.4064 90.5803 62.3295L111.865 53.0232C112.049 52.946 112.216 52.8322 112.355 52.6886C112.495 52.5451 112.604 52.3747 112.676 52.1876C112.749 52.0005 112.783 51.8007 112.777 51.6C112.771 51.3993 112.725 51.2019 112.641 51.0197L107.27 38.5477C107.148 38.2903 106.957 38.0728 106.717 37.9204C106.478 37.768 106.201 37.6868 105.917 37.6862Z" fill="#131313"/>
<path d="M107.777 38.4675L99.9596 51.6607C99.7411 52.041 99.4092 52.3424 99.0112 52.5221C98.6131 52.7019 98.1689 52.751 97.7416 52.6625L82.8223 49.4067" fill="white"/>
<path d="M98.1893 53.1735C98.0053 53.1738 97.8218 53.1536 97.6423 53.1134L82.7229 49.8476L82.9318 48.8459L97.8511 52.1016C98.1721 52.1734 98.5073 52.1414 98.8092 52.0101C99.111 51.8788 99.364 51.6549 99.532 51.3703L107.35 38.1771L108.205 38.688L100.387 51.8812C100.164 52.2705 99.8441 52.5945 99.4586 52.8211C99.0731 53.0478 98.6356 53.1692 98.1893 53.1735Z" fill="#131313"/>
<path d="M76.8048 0.500854H46.8169C45.7183 0.500854 44.8276 1.39786 44.8276 2.50437V20.496C44.8276 21.6025 45.7183 22.4995 46.8169 22.4995H76.8048C77.9034 22.4995 78.794 21.6025 78.794 20.496V2.50437C78.794 1.39786 77.9034 0.500854 76.8048 0.500854Z" fill="white"/>
<path d="M76.8048 23.0405H46.8169C46.1582 23.0378 45.5273 22.7731 45.0615 22.304C44.5958 21.8349 44.3329 21.1995 44.3303 20.5361V2.5044C44.3303 1.84019 44.5923 1.20319 45.0586 0.733522C45.5249 0.263856 46.1574 0 46.8169 0L76.8048 0C77.4643 0 78.0967 0.263856 78.563 0.733522C79.0294 1.20319 79.2913 1.84019 79.2913 2.5044V20.5361C79.2887 21.1995 79.0259 21.8349 78.5602 22.304C78.0944 22.7731 77.4635 23.0378 76.8048 23.0405ZM46.8169 1.00176C46.4212 1.00176 46.0417 1.16007 45.7619 1.44187C45.4821 1.72367 45.3249 2.10587 45.3249 2.5044V20.5361C45.3249 20.9346 45.4821 21.3168 45.7619 21.5986C46.0417 21.8804 46.4212 22.0387 46.8169 22.0387H76.8048C77.1997 22.0361 77.5776 21.8769 77.8569 21.5957C78.1361 21.3145 78.2941 20.9338 78.2967 20.5361V2.5044C78.2967 2.10587 78.1395 1.72367 77.8597 1.44187C77.58 1.16007 77.2005 1.00176 76.8048 1.00176H46.8169Z" fill="#131313"/>
<path d="M78.794 3.10547L63.3177 14.3152C62.8807 14.6242 62.3597 14.7901 61.8258 14.7901C61.2918 14.7901 60.7708 14.6242 60.3338 14.3152L44.8276 3.10547" fill="white"/>
<path d="M61.8059 15.3068C61.1591 15.3049 60.5293 15.0981 60.0056 14.7158L44.5293 3.51614L45.1161 2.70471L60.5925 13.9044C60.947 14.1627 61.3733 14.3017 61.8109 14.3017C62.2484 14.3017 62.6748 14.1627 63.0293 13.9044L78.5056 2.70471L79.0825 3.51614L63.6559 14.7158C63.1191 15.1096 62.4699 15.317 61.8059 15.3068Z" fill="#131313"/>
</svg>
