<svg width="288" height="150" viewBox="0 0 288 150" fill="none" xmlns="http://www.w3.org/2000/svg">
    <defs>
        <linearGradient id="paint0_linear_497_1005" x1="258.114" y1="48.0686" x2="268.319" y2="63.7959" gradientUnits="userSpaceOnUse">
        <stop stop-color="#ABABAB"/>
        <stop offset="0.328125" stop-color="white"/>
        <stop offset="0.630208" stop-color="#BDBDBD"/>
        <stop offset="1" stop-color="#5E5E5E"/>
        </linearGradient>
        <clipPath id="clip0_497_1005">
        <rect width="288" height="150" rx="8" fill="white"/>
        </clipPath>
        <clipPath id="clip1_497_1005">
        <rect x="246" y="21" width="17.8571" height="25" rx="3" fill="white"/>
        </clipPath>
        <clipPath id="clip2_497_1005">
        <rect width="50" height="30" fill="white" transform="translate(20 20)"/>
        </clipPath>
        </defs>
    <g clip-path="url(#clip0_497_1005)">
    <rect width="288" height="150" rx="8" fill="#0F0C0C"/>
    <rect width="60" height="150" transform="translate(230)" fill="#F89E31"/>
    <path d="M251.8 130.496L250.252 130.496L250.252 127.604L259 127.604L259 129.332L251.8 129.332L251.8 130.496ZM257.104 124.416C256.464 123.648 255.932 123.036 255.508 122.58C255.076 122.124 254.628 121.744 254.164 121.44C253.7 121.136 253.244 120.984 252.796 120.984C252.388 120.984 252.068 121.08 251.836 121.272C251.604 121.464 251.488 121.76 251.488 122.16C251.488 122.56 251.624 122.868 251.896 123.084C252.16 123.3 252.524 123.412 252.988 123.42L252.988 125.052C252.028 125.02 251.3 124.736 250.804 124.2C250.308 123.656 250.06 122.968 250.06 122.136C250.06 121.224 250.304 120.524 250.792 120.036C251.272 119.548 251.908 119.304 252.7 119.304C253.324 119.304 253.92 119.472 254.488 119.808C255.056 120.144 255.552 120.528 255.976 120.96C256.392 121.392 256.896 121.956 257.488 122.652L257.488 119.112L258.88 119.112L258.88 125.04L257.632 125.04L257.104 124.416ZM247.636 112.361L261.172 115.601L261.172 117.245L247.636 114.005L247.636 112.361ZM257.104 109.69C256.464 108.922 255.932 108.31 255.508 107.854C255.076 107.398 254.628 107.018 254.164 106.714C253.7 106.41 253.244 106.258 252.796 106.258C252.388 106.258 252.068 106.354 251.836 106.546C251.604 106.738 251.488 107.034 251.488 107.434C251.488 107.834 251.624 108.142 251.896 108.358C252.16 108.574 252.524 108.686 252.988 108.694L252.988 110.326C252.028 110.294 251.3 110.01 250.804 109.474C250.308 108.93 250.06 108.242 250.06 107.41C250.06 106.498 250.304 105.798 250.792 105.31C251.272 104.822 251.908 104.578 252.7 104.578C253.324 104.578 253.92 104.746 254.488 105.082C255.056 105.418 255.552 105.802 255.976 106.234C256.392 106.666 256.896 107.23 257.488 107.926L257.488 104.386L258.88 104.386L258.88 110.314L257.632 110.314L257.104 109.69ZM257.104 101.799C256.464 101.031 255.932 100.419 255.508 99.9629C255.076 99.5069 254.628 99.1269 254.164 98.8229C253.7 98.5189 253.244 98.3669 252.796 98.3669C252.388 98.3669 252.068 98.4629 251.836 98.6549C251.604 98.8469 251.488 99.1429 251.488 99.5429C251.488 99.9429 251.624 100.251 251.896 100.467C252.16 100.683 252.524 100.795 252.988 100.803L252.988 102.435C252.028 102.403 251.3 102.119 250.804 101.583C250.308 101.039 250.06 100.351 250.06 99.5189C250.06 98.6069 250.304 97.9069 250.792 97.4189C251.272 96.9309 251.908 96.6869 252.7 96.6869C253.324 96.6869 253.92 96.8549 254.488 97.1909C255.056 97.5269 255.552 97.9109 255.976 98.3429C256.392 98.7749 256.896 99.3389 257.488 100.035L257.488 96.4949L258.88 96.4949L258.88 102.423L257.632 102.423L257.104 101.799Z" fill="black"/>
    <g clip-path="url(#clip1_497_1005)">
    <rect x="246" y="21" width="17.8571" height="25" rx="3" fill="white"/>
    <rect x="246" y="45.9713" width="24.9325" height="17.8116" transform="rotate(-90 246 45.9713)" fill="url(#paint0_linear_497_1005)"/>
    <path d="M252.165 46L252.165 37.5217C250.518 36.9849 247.126 35.4755 246.727 33.7325C246.954 33.0852 247.769 31.5727 249.219 30.7012M257.874 46L257.874 37.5217C260.702 37.5217 262.768 34.9956 263.448 33.7325C262.759 31.6106 259.445 29.9749 257.874 29.4223L257.874 21.0388M253.524 21.0388L253.524 29.4223C252.814 29.8012 251.177 30.3317 250.307 29.4223" stroke="#707070"/>
    </g>
    <rect x="246.5" y="21.5" width="16.8571" height="24" rx="2.5" stroke="#707070"/>
    <path d="M126.3 55.8222C126.328 56.0593 126.672 56.0593 126.7 55.8222L126.936 53.8335C127.241 51.2655 129.265 49.2408 131.833 48.9361L133.822 48.7001C134.059 48.672 134.059 48.328 133.822 48.2998L131.833 48.0639C129.265 47.7592 127.241 45.7345 126.936 43.1665L126.7 41.1778C126.672 40.9407 126.328 40.9407 126.3 41.1778L126.064 43.1665C125.759 45.7345 123.735 47.7592 121.167 48.0639L119.178 48.2998C118.941 48.328 118.941 48.672 119.178 48.7001L121.167 48.9361C123.735 49.2408 125.759 51.2655 126.064 53.8335L126.3 55.8222Z" fill="#66DF98"/>
    <path d="M143.733 30.7629C143.771 31.079 144.229 31.079 144.267 30.7629L144.581 28.1113C144.988 24.6873 147.687 21.9878 151.111 21.5815L153.763 21.2669C154.079 21.2293 154.079 20.7707 153.763 20.7331L151.111 20.4185C147.687 20.0122 144.988 17.3127 144.581 13.8887L144.267 11.2371C144.229 10.921 143.771 10.921 143.733 11.2371L143.419 13.8887C143.012 17.3127 140.313 20.0122 136.889 20.4185L134.237 20.7331C133.921 20.7707 133.921 21.2293 134.237 21.2669L136.889 21.5815C140.313 21.9878 143.012 24.6873 143.419 28.1113L143.733 30.7629Z" fill="#B92F48"/>
    <g clip-path="url(#clip2_497_1005)">
    <rect opacity="0.75" width="27.6889" height="29.4474" rx="13.8444" transform="matrix(-1 -9.17939e-08 -8.32598e-08 1 66.8452 20.5526)" fill="#17171F"/>
    <rect opacity="0.7" width="27.6889" height="29.4474" rx="13.8444" transform="matrix(-1 -9.17939e-08 -8.32598e-08 1 50.1294 20.5526)" fill="#F1F4F6"/>
    </g>
    <path d="M22.448 82.32C22.2453 81.9467 21.952 81.664 21.568 81.472C21.1947 81.2693 20.752 81.168 20.24 81.168C19.3547 81.168 18.6453 81.4613 18.112 82.048C17.5787 82.624 17.312 83.3973 17.312 84.368C17.312 85.4027 17.5893 86.2133 18.144 86.8C18.7093 87.376 19.4827 87.664 20.464 87.664C21.136 87.664 21.7013 87.4933 22.16 87.152C22.6293 86.8107 22.9707 86.32 23.184 85.68H19.712V83.664H25.664V86.208C25.4613 86.8907 25.1147 87.5253 24.624 88.112C24.144 88.6987 23.5307 89.1733 22.784 89.536C22.0373 89.8987 21.1947 90.08 20.256 90.08C19.1467 90.08 18.1547 89.84 17.28 89.36C16.416 88.8693 15.7387 88.192 15.248 87.328C14.768 86.464 14.528 85.4773 14.528 84.368C14.528 83.2587 14.768 82.272 15.248 81.408C15.7387 80.5333 16.416 79.856 17.28 79.376C18.144 78.8853 19.1307 78.64 20.24 78.64C21.584 78.64 22.7147 78.9653 23.632 79.616C24.56 80.2667 25.1733 81.168 25.472 82.32H22.448ZM35.7455 85.392C35.7455 85.648 35.7295 85.9147 35.6975 86.192H29.5055C29.5482 86.7467 29.7242 87.1733 30.0335 87.472C30.3535 87.76 30.7428 87.904 31.2015 87.904C31.8842 87.904 32.3588 87.616 32.6255 87.04H35.5375C35.3882 87.6267 35.1162 88.1547 34.7215 88.624C34.3375 89.0933 33.8522 89.4613 33.2655 89.728C32.6788 89.9947 32.0228 90.128 31.2975 90.128C30.4228 90.128 29.6442 89.9413 28.9615 89.568C28.2788 89.1947 27.7455 88.6613 27.3615 87.968C26.9775 87.2747 26.7855 86.464 26.7855 85.536C26.7855 84.608 26.9722 83.7973 27.3455 83.104C27.7295 82.4107 28.2628 81.8773 28.9455 81.504C29.6282 81.1307 30.4122 80.944 31.2975 80.944C32.1615 80.944 32.9295 81.1253 33.6015 81.488C34.2735 81.8507 34.7962 82.368 35.1695 83.04C35.5535 83.712 35.7455 84.496 35.7455 85.392ZM32.9455 84.672C32.9455 84.2027 32.7855 83.8293 32.4655 83.552C32.1455 83.2747 31.7455 83.136 31.2655 83.136C30.8068 83.136 30.4175 83.2693 30.0975 83.536C29.7882 83.8027 29.5962 84.1813 29.5215 84.672H32.9455ZM42.3149 87.68V90H40.9229C39.9309 90 39.1575 89.76 38.6029 89.28C38.0482 88.7893 37.7709 87.9947 37.7709 86.896V83.344H36.6829V81.072H37.7709V78.896H40.5069V81.072H42.2989V83.344H40.5069V86.928C40.5069 87.1947 40.5709 87.3867 40.6989 87.504C40.8269 87.6213 41.0402 87.68 41.3389 87.68H42.3149ZM56.6495 81.072L51.0495 94.24H48.1055L50.1535 89.696L46.5215 81.072H49.5775L51.6415 86.656L53.6895 81.072H56.6495ZM61.8529 90.128C60.9782 90.128 60.1889 89.9413 59.4849 89.568C58.7915 89.1947 58.2422 88.6613 57.8369 87.968C57.4422 87.2747 57.2449 86.464 57.2449 85.536C57.2449 84.6187 57.4475 83.8133 57.8529 83.12C58.2582 82.416 58.8129 81.8773 59.5169 81.504C60.2209 81.1307 61.0102 80.944 61.8849 80.944C62.7595 80.944 63.5489 81.1307 64.2529 81.504C64.9569 81.8773 65.5115 82.416 65.9169 83.12C66.3222 83.8133 66.5249 84.6187 66.5249 85.536C66.5249 86.4533 66.3169 87.264 65.9009 87.968C65.4955 88.6613 64.9355 89.1947 64.2209 89.568C63.5169 89.9413 62.7275 90.128 61.8529 90.128ZM61.8529 87.76C62.3755 87.76 62.8182 87.568 63.1809 87.184C63.5542 86.8 63.7409 86.2507 63.7409 85.536C63.7409 84.8213 63.5595 84.272 63.1969 83.888C62.8449 83.504 62.4075 83.312 61.8849 83.312C61.3515 83.312 60.9089 83.504 60.5569 83.888C60.2049 84.2613 60.0289 84.8107 60.0289 85.536C60.0289 86.2507 60.1995 86.8 60.5409 87.184C60.8929 87.568 61.3302 87.76 61.8529 87.76ZM76.9424 81.072V90H74.2064V88.784C73.929 89.1787 73.5504 89.4987 73.0704 89.744C72.601 89.9787 72.0784 90.096 71.5024 90.096C70.8197 90.096 70.217 89.9467 69.6944 89.648C69.1717 89.3387 68.7664 88.896 68.4784 88.32C68.1904 87.744 68.0464 87.0667 68.0464 86.288V81.072H70.7664V85.92C70.7664 86.5173 70.921 86.9813 71.2304 87.312C71.5397 87.6427 71.9557 87.808 72.4784 87.808C73.0117 87.808 73.433 87.6427 73.7424 87.312C74.0517 86.9813 74.2064 86.5173 74.2064 85.92V81.072H76.9424ZM81.7936 82.56C82.1136 82.0693 82.5136 81.6853 82.9936 81.408C83.4736 81.12 84.007 80.976 84.5936 80.976V83.872H83.8416C83.159 83.872 82.647 84.0213 82.3056 84.32C81.9643 84.608 81.7936 85.12 81.7936 85.856V90H79.0576V81.072H81.7936V82.56ZM98.152 82.384C98.152 83.0347 98.0027 83.632 97.704 84.176C97.4053 84.7093 96.9467 85.1413 96.328 85.472C95.7093 85.8027 94.9413 85.968 94.024 85.968H92.328V90H89.592V78.768H94.024C94.92 78.768 95.6773 78.9227 96.296 79.232C96.9147 79.5413 97.3787 79.968 97.688 80.512C97.9973 81.056 98.152 81.68 98.152 82.384ZM93.816 83.792C94.3387 83.792 94.728 83.6693 94.984 83.424C95.24 83.1787 95.368 82.832 95.368 82.384C95.368 81.936 95.24 81.5893 94.984 81.344C94.728 81.0987 94.3387 80.976 93.816 80.976H92.328V83.792H93.816ZM99.1824 85.52C99.1824 84.6027 99.353 83.7973 99.6944 83.104C100.046 82.4107 100.521 81.8773 101.118 81.504C101.716 81.1307 102.382 80.944 103.118 80.944C103.748 80.944 104.297 81.072 104.766 81.328C105.246 81.584 105.614 81.92 105.87 82.336V81.072H108.606V90H105.87V88.736C105.604 89.152 105.23 89.488 104.75 89.744C104.281 90 103.732 90.128 103.102 90.128C102.377 90.128 101.716 89.9413 101.118 89.568C100.521 89.184 100.046 88.6453 99.6944 87.952C99.353 87.248 99.1824 86.4373 99.1824 85.52ZM105.87 85.536C105.87 84.8533 105.678 84.3147 105.294 83.92C104.921 83.5253 104.462 83.328 103.918 83.328C103.374 83.328 102.91 83.5253 102.526 83.92C102.153 84.304 101.966 84.8373 101.966 85.52C101.966 86.2027 102.153 86.7467 102.526 87.152C102.91 87.5467 103.374 87.744 103.918 87.744C104.462 87.744 104.921 87.5467 105.294 87.152C105.678 86.7573 105.87 86.2187 105.87 85.536ZM116.176 80.976C117.221 80.976 118.053 81.3173 118.672 82C119.301 82.672 119.616 83.6 119.616 84.784V90H116.896V85.152C116.896 84.5547 116.741 84.0907 116.432 83.76C116.122 83.4293 115.706 83.264 115.184 83.264C114.661 83.264 114.245 83.4293 113.936 83.76C113.626 84.0907 113.472 84.5547 113.472 85.152V90H110.736V81.072H113.472V82.256C113.749 81.8613 114.122 81.552 114.592 81.328C115.061 81.0933 115.589 80.976 116.176 80.976ZM135.752 78.768L131.768 90H128.344L124.36 78.768H127.272L130.056 87.248L132.856 78.768H135.752ZM145.461 85.392C145.461 85.648 145.445 85.9147 145.413 86.192H139.221C139.264 86.7467 139.44 87.1733 139.749 87.472C140.069 87.76 140.458 87.904 140.917 87.904C141.6 87.904 142.074 87.616 142.341 87.04H145.253C145.104 87.6267 144.832 88.1547 144.437 88.624C144.053 89.0933 143.568 89.4613 142.981 89.728C142.394 89.9947 141.738 90.128 141.013 90.128C140.138 90.128 139.36 89.9413 138.677 89.568C137.994 89.1947 137.461 88.6613 137.077 87.968C136.693 87.2747 136.501 86.464 136.501 85.536C136.501 84.608 136.688 83.7973 137.061 83.104C137.445 82.4107 137.978 81.8773 138.661 81.504C139.344 81.1307 140.128 80.944 141.013 80.944C141.877 80.944 142.645 81.1253 143.317 81.488C143.989 81.8507 144.512 82.368 144.885 83.04C145.269 83.712 145.461 84.496 145.461 85.392ZM142.661 84.672C142.661 84.2027 142.501 83.8293 142.181 83.552C141.861 83.2747 141.461 83.136 140.981 83.136C140.522 83.136 140.133 83.2693 139.813 83.536C139.504 83.8027 139.312 84.1813 139.237 84.672H142.661ZM149.791 82.56C150.111 82.0693 150.511 81.6853 150.991 81.408C151.471 81.12 152.004 80.976 152.591 80.976V83.872H151.839C151.156 83.872 150.644 84.0213 150.303 84.32C149.961 84.608 149.791 85.12 149.791 85.856V90H147.055V81.072H149.791V82.56ZM155.424 80.144C154.944 80.144 154.55 80.0053 154.24 79.728C153.942 79.44 153.792 79.088 153.792 78.672C153.792 78.2453 153.942 77.8933 154.24 77.616C154.55 77.328 154.944 77.184 155.424 77.184C155.894 77.184 156.278 77.328 156.576 77.616C156.886 77.8933 157.04 78.2453 157.04 78.672C157.04 79.088 156.886 79.44 156.576 79.728C156.278 80.0053 155.894 80.144 155.424 80.144ZM156.784 81.072V90H154.048V81.072H156.784ZM163.397 83.344H161.925V90H159.189V83.344H158.197V81.072H159.189V80.816C159.189 79.7173 159.504 78.8853 160.133 78.32C160.762 77.744 161.685 77.456 162.901 77.456C163.104 77.456 163.253 77.4613 163.349 77.472V79.792C162.826 79.76 162.458 79.8347 162.245 80.016C162.032 80.1973 161.925 80.5227 161.925 80.992V81.072H163.397V83.344ZM166.209 80.144C165.729 80.144 165.334 80.0053 165.025 79.728C164.726 79.44 164.577 79.088 164.577 78.672C164.577 78.2453 164.726 77.8933 165.025 77.616C165.334 77.328 165.729 77.184 166.209 77.184C166.678 77.184 167.062 77.328 167.361 77.616C167.67 77.8933 167.825 78.2453 167.825 78.672C167.825 79.088 167.67 79.44 167.361 79.728C167.062 80.0053 166.678 80.144 166.209 80.144ZM167.569 81.072V90H164.833V81.072H167.569ZM178.117 85.392C178.117 85.648 178.101 85.9147 178.069 86.192H171.877C171.92 86.7467 172.096 87.1733 172.405 87.472C172.725 87.76 173.115 87.904 173.573 87.904C174.256 87.904 174.731 87.616 174.997 87.04H177.909C177.76 87.6267 177.488 88.1547 177.093 88.624C176.709 89.0933 176.224 89.4613 175.637 89.728C175.051 89.9947 174.395 90.128 173.669 90.128C172.795 90.128 172.016 89.9413 171.333 89.568C170.651 89.1947 170.117 88.6613 169.733 87.968C169.349 87.2747 169.157 86.464 169.157 85.536C169.157 84.608 169.344 83.7973 169.717 83.104C170.101 82.4107 170.635 81.8773 171.317 81.504C172 81.1307 172.784 80.944 173.669 80.944C174.533 80.944 175.301 81.1253 175.973 81.488C176.645 81.8507 177.168 82.368 177.541 83.04C177.925 83.712 178.117 84.496 178.117 85.392ZM175.317 84.672C175.317 84.2027 175.157 83.8293 174.837 83.552C174.517 83.2747 174.117 83.136 173.637 83.136C173.179 83.136 172.789 83.2693 172.469 83.536C172.16 83.8027 171.968 84.1813 171.893 84.672H175.317ZM179.167 85.52C179.167 84.6027 179.337 83.7973 179.679 83.104C180.031 82.4107 180.505 81.8773 181.103 81.504C181.7 81.1307 182.367 80.944 183.103 80.944C183.689 80.944 184.223 81.0667 184.703 81.312C185.193 81.5573 185.577 81.888 185.855 82.304V78.16H188.591V90H185.855V88.72C185.599 89.1467 185.231 89.488 184.751 89.744C184.281 90 183.732 90.128 183.103 90.128C182.367 90.128 181.7 89.9413 181.103 89.568C180.505 89.184 180.031 88.6453 179.679 87.952C179.337 87.248 179.167 86.4373 179.167 85.52ZM185.855 85.536C185.855 84.8533 185.663 84.3147 185.279 83.92C184.905 83.5253 184.447 83.328 183.903 83.328C183.359 83.328 182.895 83.5253 182.511 83.92C182.137 84.304 181.951 84.8373 181.951 85.52C181.951 86.2027 182.137 86.7467 182.511 87.152C182.895 87.5467 183.359 87.744 183.903 87.744C184.447 87.744 184.905 87.5467 185.279 87.152C185.663 86.7573 185.855 86.2187 185.855 85.536ZM197.893 90.128C197.114 90.128 196.421 89.9947 195.813 89.728C195.205 89.4613 194.725 89.0987 194.373 88.64C194.021 88.1707 193.823 87.648 193.781 87.072H196.485C196.517 87.3813 196.661 87.632 196.917 87.824C197.173 88.016 197.487 88.112 197.861 88.112C198.202 88.112 198.463 88.048 198.645 87.92C198.837 87.7813 198.933 87.6053 198.933 87.392C198.933 87.136 198.799 86.9493 198.533 86.832C198.266 86.704 197.834 86.5653 197.237 86.416C196.597 86.2667 196.063 86.112 195.637 85.952C195.21 85.7813 194.842 85.52 194.533 85.168C194.223 84.8053 194.069 84.32 194.069 83.712C194.069 83.2 194.207 82.736 194.485 82.32C194.773 81.8933 195.189 81.5573 195.733 81.312C196.287 81.0667 196.943 80.944 197.701 80.944C198.821 80.944 199.701 81.2213 200.341 81.776C200.991 82.3307 201.365 83.0667 201.461 83.984H198.933C198.89 83.6747 198.751 83.4293 198.517 83.248C198.293 83.0667 197.994 82.976 197.621 82.976C197.301 82.976 197.055 83.04 196.885 83.168C196.714 83.2853 196.629 83.4507 196.629 83.664C196.629 83.92 196.762 84.112 197.029 84.24C197.306 84.368 197.733 84.496 198.309 84.624C198.97 84.7947 199.509 84.9653 199.925 85.136C200.341 85.296 200.703 85.5627 201.013 85.936C201.333 86.2987 201.498 86.7893 201.509 87.408C201.509 87.9307 201.359 88.4 201.061 88.816C200.773 89.2213 200.351 89.5413 199.797 89.776C199.253 90.0107 198.618 90.128 197.893 90.128ZM207.397 90.128C206.522 90.128 205.733 89.9413 205.029 89.568C204.335 89.1947 203.786 88.6613 203.381 87.968C202.986 87.2747 202.789 86.464 202.789 85.536C202.789 84.6187 202.991 83.8133 203.397 83.12C203.802 82.416 204.357 81.8773 205.061 81.504C205.765 81.1307 206.554 80.944 207.429 80.944C208.303 80.944 209.093 81.1307 209.797 81.504C210.501 81.8773 211.055 82.416 211.461 83.12C211.866 83.8133 212.069 84.6187 212.069 85.536C212.069 86.4533 211.861 87.264 211.445 87.968C211.039 88.6613 210.479 89.1947 209.765 89.568C209.061 89.9413 208.271 90.128 207.397 90.128ZM207.397 87.76C207.919 87.76 208.362 87.568 208.725 87.184C209.098 86.8 209.285 86.2507 209.285 85.536C209.285 84.8213 209.103 84.272 208.741 83.888C208.389 83.504 207.951 83.312 207.429 83.312C206.895 83.312 206.453 83.504 206.101 83.888C205.749 84.2613 205.573 84.8107 205.573 85.536C205.573 86.2507 205.743 86.8 206.085 87.184C206.437 87.568 206.874 87.76 207.397 87.76ZM19.968 111.68V114H18.576C17.584 114 16.8107 113.76 16.256 113.28C15.7013 112.789 15.424 111.995 15.424 110.896V107.344H14.336V105.072H15.424V102.896H18.16V105.072H19.952V107.344H18.16V110.928C18.16 111.195 18.224 111.387 18.352 111.504C18.48 111.621 18.6933 111.68 18.992 111.68H19.968ZM27.13 104.976C28.154 104.976 28.9753 105.317 29.594 106C30.2127 106.672 30.522 107.6 30.522 108.784V114H27.802V109.152C27.802 108.555 27.6473 108.091 27.338 107.76C27.0287 107.429 26.6127 107.264 26.09 107.264C25.5673 107.264 25.1513 107.429 24.842 107.76C24.5327 108.091 24.378 108.555 24.378 109.152V114H21.642V102.16H24.378V106.272C24.6553 105.877 25.034 105.563 25.514 105.328C25.994 105.093 26.5327 104.976 27.13 104.976ZM32.0292 109.52C32.0292 108.603 32.1999 107.797 32.5412 107.104C32.8932 106.411 33.3679 105.877 33.9652 105.504C34.5626 105.131 35.2292 104.944 35.9652 104.944C36.5946 104.944 37.1439 105.072 37.6132 105.328C38.0932 105.584 38.4612 105.92 38.7172 106.336V105.072H41.4532V114H38.7172V112.736C38.4506 113.152 38.0772 113.488 37.5972 113.744C37.1279 114 36.5786 114.128 35.9492 114.128C35.2239 114.128 34.5626 113.941 33.9652 113.568C33.3679 113.184 32.8932 112.645 32.5412 111.952C32.1999 111.248 32.0292 110.437 32.0292 109.52ZM38.7172 109.536C38.7172 108.853 38.5252 108.315 38.1412 107.92C37.7679 107.525 37.3092 107.328 36.7652 107.328C36.2212 107.328 35.7572 107.525 35.3732 107.92C34.9999 108.304 34.8132 108.837 34.8132 109.52C34.8132 110.203 34.9999 110.747 35.3732 111.152C35.7572 111.547 36.2212 111.744 36.7652 111.744C37.3092 111.744 37.7679 111.547 38.1412 111.152C38.5252 110.757 38.7172 110.219 38.7172 109.536ZM48.5586 111.68V114H47.1666C46.1746 114 45.4013 113.76 44.8466 113.28C44.292 112.789 44.0146 111.995 44.0146 110.896V107.344H42.9266V105.072H44.0146V102.896H46.7506V105.072H48.5426V107.344H46.7506V110.928C46.7506 111.195 46.8146 111.387 46.9426 111.504C47.0706 111.621 47.284 111.68 47.5826 111.68H48.5586ZM62.8933 105.072L57.2933 118.24H54.3493L56.3973 113.696L52.7652 105.072H55.8213L57.8853 110.656L59.9333 105.072H62.8933ZM68.0966 114.128C67.222 114.128 66.4326 113.941 65.7286 113.568C65.0353 113.195 64.486 112.661 64.0806 111.968C63.686 111.275 63.4886 110.464 63.4886 109.536C63.4886 108.619 63.6913 107.813 64.0966 107.12C64.502 106.416 65.0566 105.877 65.7606 105.504C66.4646 105.131 67.254 104.944 68.1286 104.944C69.0033 104.944 69.7926 105.131 70.4966 105.504C71.2006 105.877 71.7553 106.416 72.1606 107.12C72.566 107.813 72.7686 108.619 72.7686 109.536C72.7686 110.453 72.5606 111.264 72.1446 111.968C71.7393 112.661 71.1793 113.195 70.4646 113.568C69.7606 113.941 68.9713 114.128 68.0966 114.128ZM68.0966 111.76C68.6193 111.76 69.062 111.568 69.4246 111.184C69.798 110.8 69.9846 110.251 69.9846 109.536C69.9846 108.821 69.8033 108.272 69.4406 107.888C69.0886 107.504 68.6513 107.312 68.1286 107.312C67.5953 107.312 67.1526 107.504 66.8006 107.888C66.4486 108.261 66.2726 108.811 66.2726 109.536C66.2726 110.251 66.4433 110.8 66.7846 111.184C67.1366 111.568 67.574 111.76 68.0966 111.76ZM83.1861 105.072V114H80.4501V112.784C80.1728 113.179 79.7941 113.499 79.3141 113.744C78.8448 113.979 78.3221 114.096 77.7461 114.096C77.0635 114.096 76.4608 113.947 75.9381 113.648C75.4155 113.339 75.0101 112.896 74.7221 112.32C74.4341 111.744 74.2901 111.067 74.2901 110.288V105.072H77.0101V109.92C77.0101 110.517 77.1648 110.981 77.4741 111.312C77.7835 111.643 78.1995 111.808 78.7221 111.808C79.2555 111.808 79.6768 111.643 79.9861 111.312C80.2955 110.981 80.4501 110.517 80.4501 109.92V105.072H83.1861ZM88.298 109.536C88.298 108.608 88.4847 107.797 88.858 107.104C89.242 106.411 89.77 105.877 90.442 105.504C91.1247 105.131 91.9033 104.944 92.778 104.944C93.898 104.944 94.8313 105.237 95.578 105.824C96.3353 106.411 96.8313 107.237 97.066 108.304H94.154C93.9087 107.621 93.434 107.28 92.73 107.28C92.2287 107.28 91.8287 107.477 91.53 107.872C91.2313 108.256 91.082 108.811 91.082 109.536C91.082 110.261 91.2313 110.821 91.53 111.216C91.8287 111.6 92.2287 111.792 92.73 111.792C93.434 111.792 93.9087 111.451 94.154 110.768H97.066C96.8313 111.813 96.3353 112.635 95.578 113.232C94.8207 113.829 93.8873 114.128 92.778 114.128C91.9033 114.128 91.1247 113.941 90.442 113.568C89.77 113.195 89.242 112.661 88.858 111.968C88.4847 111.275 88.298 110.464 88.298 109.536ZM98.1355 109.52C98.1355 108.603 98.3062 107.797 98.6475 107.104C98.9995 106.411 99.4742 105.877 100.072 105.504C100.669 105.131 101.336 104.944 102.072 104.944C102.701 104.944 103.25 105.072 103.72 105.328C104.2 105.584 104.568 105.92 104.824 106.336V105.072H107.56V114H104.824V112.736C104.557 113.152 104.184 113.488 103.704 113.744C103.234 114 102.685 114.128 102.056 114.128C101.33 114.128 100.669 113.941 100.072 113.568C99.4742 113.184 98.9995 112.645 98.6475 111.952C98.3062 111.248 98.1355 110.437 98.1355 109.52ZM104.824 109.536C104.824 108.853 104.632 108.315 104.248 107.92C103.874 107.525 103.416 107.328 102.872 107.328C102.328 107.328 101.864 107.525 101.48 107.92C101.106 108.304 100.92 108.837 100.92 109.52C100.92 110.203 101.106 110.747 101.48 111.152C101.864 111.547 102.328 111.744 102.872 111.744C103.416 111.744 103.874 111.547 104.248 111.152C104.632 110.757 104.824 110.219 104.824 109.536ZM115.129 104.976C116.174 104.976 117.006 105.317 117.625 106C118.254 106.672 118.569 107.6 118.569 108.784V114H115.849V109.152C115.849 108.555 115.694 108.091 115.385 107.76C115.076 107.429 114.66 107.264 114.137 107.264C113.614 107.264 113.198 107.429 112.889 107.76C112.58 108.091 112.425 108.555 112.425 109.152V114H109.689V105.072H112.425V106.256C112.702 105.861 113.076 105.552 113.545 105.328C114.014 105.093 114.542 104.976 115.129 104.976ZM129.137 111.68V114H127.745C126.753 114 125.979 113.76 125.425 113.28C124.87 112.789 124.593 111.995 124.593 110.896V107.344H123.505V105.072H124.593V102.896H127.329V105.072H129.121V107.344H127.329V110.928C127.329 111.195 127.393 111.387 127.521 111.504C127.649 111.621 127.862 111.68 128.161 111.68H129.137ZM133.547 106.56C133.867 106.069 134.267 105.685 134.747 105.408C135.227 105.12 135.76 104.976 136.347 104.976V107.872H135.595C134.912 107.872 134.4 108.021 134.059 108.32C133.717 108.608 133.547 109.12 133.547 109.856V114H130.811V105.072H133.547V106.56ZM137.261 109.52C137.261 108.603 137.431 107.797 137.773 107.104C138.125 106.411 138.599 105.877 139.197 105.504C139.794 105.131 140.461 104.944 141.197 104.944C141.826 104.944 142.375 105.072 142.845 105.328C143.325 105.584 143.693 105.92 143.949 106.336V105.072H146.685V114H143.949V112.736C143.682 113.152 143.309 113.488 142.829 113.744C142.359 114 141.81 114.128 141.181 114.128C140.455 114.128 139.794 113.941 139.197 113.568C138.599 113.184 138.125 112.645 137.773 111.952C137.431 111.248 137.261 110.437 137.261 109.52ZM143.949 109.536C143.949 108.853 143.757 108.315 143.373 107.92C142.999 107.525 142.541 107.328 141.997 107.328C141.453 107.328 140.989 107.525 140.605 107.92C140.231 108.304 140.045 108.837 140.045 109.52C140.045 110.203 140.231 110.747 140.605 111.152C140.989 111.547 141.453 111.744 141.997 111.744C142.541 111.744 142.999 111.547 143.373 111.152C143.757 110.757 143.949 110.219 143.949 109.536ZM148.27 109.52C148.27 108.603 148.441 107.797 148.782 107.104C149.134 106.411 149.609 105.877 150.206 105.504C150.803 105.131 151.47 104.944 152.206 104.944C152.793 104.944 153.326 105.067 153.806 105.312C154.297 105.557 154.681 105.888 154.958 106.304V102.16H157.694V114H154.958V112.72C154.702 113.147 154.334 113.488 153.854 113.744C153.385 114 152.835 114.128 152.206 114.128C151.47 114.128 150.803 113.941 150.206 113.568C149.609 113.184 149.134 112.645 148.782 111.952C148.441 111.248 148.27 110.437 148.27 109.52ZM154.958 109.536C154.958 108.853 154.766 108.315 154.382 107.92C154.009 107.525 153.55 107.328 153.006 107.328C152.462 107.328 151.998 107.525 151.614 107.92C151.241 108.304 151.054 108.837 151.054 109.52C151.054 110.203 151.241 110.747 151.614 111.152C151.998 111.547 152.462 111.744 153.006 111.744C153.55 111.744 154.009 111.547 154.382 111.152C154.766 110.757 154.958 110.219 154.958 109.536ZM168.239 109.392C168.239 109.648 168.223 109.915 168.191 110.192H161.999C162.042 110.747 162.218 111.173 162.527 111.472C162.847 111.76 163.237 111.904 163.695 111.904C164.378 111.904 164.853 111.616 165.119 111.04H168.031C167.882 111.627 167.61 112.155 167.215 112.624C166.831 113.093 166.346 113.461 165.759 113.728C165.173 113.995 164.517 114.128 163.791 114.128C162.917 114.128 162.138 113.941 161.455 113.568C160.773 113.195 160.239 112.661 159.855 111.968C159.471 111.275 159.279 110.464 159.279 109.536C159.279 108.608 159.466 107.797 159.839 107.104C160.223 106.411 160.757 105.877 161.439 105.504C162.122 105.131 162.906 104.944 163.791 104.944C164.655 104.944 165.423 105.125 166.095 105.488C166.767 105.851 167.29 106.368 167.663 107.04C168.047 107.712 168.239 108.496 168.239 109.392ZM165.439 108.672C165.439 108.203 165.279 107.829 164.959 107.552C164.639 107.275 164.239 107.136 163.759 107.136C163.301 107.136 162.911 107.269 162.591 107.536C162.282 107.803 162.09 108.181 162.015 108.672H165.439Z" fill="white"/>
    </g>
    
    </svg>
    