<svg width="328" height="328" viewBox="0 0 328 328" fill="none" xmlns="http://www.w3.org/2000/svg">
<path fill-rule="evenodd" clip-rule="evenodd" d="M90.2987 166.324C90.5972 166.464 90.9204 166.543 91.2499 166.557C91.5791 166.571 91.908 166.52 92.2175 166.406C92.2777 166.391 92.3317 166.356 92.3699 166.307C92.4083 166.258 92.4292 166.197 92.4292 166.135C92.4292 166.073 92.4083 166.012 92.3699 165.963C92.3317 165.914 92.2777 165.88 92.2175 165.864C90.9428 165.316 89.8586 164.403 89.1015 163.24C89.0818 163.181 89.0425 163.129 88.9897 163.094C88.9372 163.06 88.874 163.044 88.8114 163.05C88.7485 163.055 88.6894 163.082 88.6438 163.126C88.5982 163.17 88.5686 163.227 88.5603 163.29C88.481 163.916 88.6077 164.55 88.9214 165.098C89.2351 165.645 89.7184 166.076 90.2987 166.324ZM213.708 126.291C198.948 128.21 189.24 129.571 189.24 129.571C188.977 129.571 189.076 129.834 189.076 130.096V202.978C189.076 203.109 189.486 203.224 189.633 203.24C201.786 204.618 219.694 205.995 238.046 207.225C250.51 208.045 310.78 211.292 310.78 211.292C310.95 211.292 311.114 211.228 311.239 211.112C311.305 211.056 311.358 210.985 311.397 210.906C311.433 210.826 311.451 210.741 311.451 210.653C311.549 204.503 312.73 116.828 312.73 116.828C312.73 116.736 312.712 116.645 312.676 116.561C312.638 116.477 312.584 116.4 312.518 116.336C312.453 116.271 312.372 116.221 312.286 116.187C312.196 116.153 312.104 116.137 312.009 116.14C292.642 117.353 270.551 119.518 250.494 121.781C236.783 123.372 224.008 124.946 213.708 126.291ZM311.37 117.599L310.157 210.013C306.975 209.882 250.576 207.094 238.095 206.356C219.875 205.274 202.015 204.044 189.896 202.781V130.621C192.585 130.244 249.821 123.159 262.925 121.798C279.177 120.092 296.086 118.55 311.37 117.599Z" fill="white"/>
<path fill-rule="evenodd" clip-rule="evenodd" d="M215.758 165.809C215.724 174.099 218.973 182.065 224.795 187.966C227.677 190.897 231.114 193.226 234.906 194.817C238.697 196.406 242.766 197.225 246.877 197.225C250.988 197.225 255.058 196.406 258.851 194.817C262.642 193.226 266.079 190.897 268.96 187.966C273.35 183.524 276.311 177.873 277.466 171.736C278.621 165.6 277.914 159.258 275.438 153.526C277.667 153.534 279.852 152.904 281.734 151.712C283.617 150.519 285.121 148.813 286.067 146.795C287.012 144.777 287.362 142.53 287.074 140.32C286.785 138.11 285.873 136.029 284.44 134.321C283.008 132.612 281.118 131.349 278.991 130.68C276.866 130.01 274.594 129.962 272.441 130.541C270.288 131.12 268.346 132.302 266.843 133.948C265.341 135.595 264.339 137.636 263.958 139.832C259.266 136.771 253.836 135.032 248.24 134.798C242.642 134.563 237.087 135.842 232.154 138.499C227.223 141.156 223.099 145.094 220.217 149.897C217.334 154.7 215.799 160.191 215.775 165.793L215.758 165.809ZM272.371 139.356L274.323 143.784L278.324 133.682L280.555 135.076L275.93 147.573L272.65 147.884L269.895 141.865L272.371 139.356ZM246.869 135.355C252.941 135.371 258.859 137.268 263.81 140.783V141.865C263.81 144.749 264.878 147.531 266.807 149.675C268.736 151.818 271.39 153.173 274.257 153.477C276.701 159.048 277.417 165.224 276.311 171.206C275.207 177.188 272.332 182.701 268.058 187.031C265.296 189.829 262.005 192.049 258.378 193.565C254.751 195.081 250.859 195.861 246.927 195.861C242.996 195.861 239.104 195.081 235.475 193.565C231.848 192.049 228.559 189.829 225.795 187.031C220.207 181.367 217.062 173.738 217.035 165.782C217.007 157.826 220.099 150.175 225.648 144.473C228.397 141.613 231.691 139.332 235.336 137.766C238.981 136.2 242.903 135.38 246.869 135.355Z" fill="white"/>
<path fill-rule="evenodd" clip-rule="evenodd" d="M229.321 152.845L234.815 152.992C234.914 153.763 238.095 174.853 238.095 174.853C238.118 175.011 238.198 175.156 238.318 175.261C238.438 175.366 238.591 175.425 238.751 175.427L257.808 175.017C257.868 175.002 257.922 174.968 257.961 174.918C257.999 174.869 258.02 174.809 258.02 174.747C258.02 174.684 257.999 174.624 257.961 174.575C257.922 174.526 257.868 174.491 257.808 174.476C257.808 174.476 248.28 174.165 246.328 174.132H239.276C239.178 173.459 238.981 172.229 238.735 170.671C240.375 170.671 256.184 170.278 256.184 170.278C256.342 170.275 256.493 170.215 256.611 170.11C256.728 170.005 256.805 169.86 256.824 169.704L258.464 158.093C258.474 157.998 258.465 157.903 258.437 157.813C258.408 157.723 258.361 157.639 258.3 157.568C258.237 157.495 258.158 157.437 258.07 157.398C257.983 157.358 257.887 157.338 257.792 157.338C257.792 157.338 238.112 157.781 236.619 157.847C235.619 152.287 235.684 152.139 235.16 152.139L229.256 152.353C229.182 152.353 229.111 152.382 229.059 152.434C229.005 152.486 228.977 152.557 228.977 152.631C228.977 152.705 229.005 152.776 229.059 152.828C229.111 152.881 229.182 152.91 229.256 152.91L229.321 152.845ZM250.526 168.572V169.195C250.002 169.195 245.459 169.523 243.835 169.655C243.839 167.967 243.696 166.282 243.409 164.62L250.707 164.456C250.532 165.821 250.472 167.197 250.526 168.572ZM252.396 159.552V158.617H257.103L256.447 163.373H255.069C254.282 163.373 253.298 163.291 252.216 163.275C252.355 162.039 252.415 160.796 252.396 159.552ZM252.084 164.472C253.232 164.39 254.266 164.292 255.086 164.21L256.348 164.079L255.676 168.999L251.264 169.228C251.264 169.081 251.264 168.917 251.379 168.736C251.728 167.308 251.963 165.855 252.084 164.39V164.472ZM251.658 158.699C251.275 160.186 251.006 161.699 250.854 163.226L243.228 163.439C243.003 161.773 242.646 160.128 242.162 158.519C245.688 158.568 248.132 158.601 251.658 158.617V158.699ZM243.179 169.786L238.735 170.114C238.456 168.474 238.144 166.522 237.816 164.538L239.604 164.636H242.064C242.289 166.354 242.663 168.049 243.179 169.704V169.786ZM241.539 158.552C241.551 160.2 241.688 161.844 241.949 163.472L239.653 163.669L237.767 163.849C237.636 163.013 237.013 159.355 236.849 158.404C237.669 158.453 239.44 158.453 241.474 158.453L241.539 158.552Z" fill="white"/>
<path fill-rule="evenodd" clip-rule="evenodd" d="M319.588 96.3211C319.52 96.2582 319.439 96.2102 319.353 96.1792C319.263 96.1481 319.171 96.135 319.078 96.1407C297.529 97.5347 272.945 100.011 250.625 102.602C235.356 104.373 182.45 111.507 182.45 111.507C182.188 111.507 182.319 111.77 182.319 112.032V195.557C182.319 195.689 182.745 195.803 182.893 195.82C196.226 197.361 215.824 198.919 235.963 200.297C236.39 201.937 238.177 208.497 239.046 213.548C239.353 215.082 239.5 216.642 239.489 218.206C239.503 218.487 239.435 218.766 239.292 219.009C237.652 220.649 228.321 223.519 228.042 223.634C227.904 223.675 227.784 223.763 227.703 223.883C227.622 224.003 227.585 224.147 227.599 224.29L227.862 227.472C227.87 227.619 227.93 227.759 228.032 227.864C228.135 227.969 228.273 228.034 228.419 228.046C266.779 233.163 264.499 233.081 264.844 232.966C268.192 231.555 271.436 229.911 274.552 228.046C275.517 227.453 276.404 226.742 277.193 225.93C277.638 225.494 277.913 224.912 277.964 224.29C277.599 221.955 277.051 219.652 276.324 217.402C274.684 211.875 272.404 204.774 271.682 202.642L317.701 205.086C317.787 205.093 317.877 205.08 317.96 205.049C318.041 205.019 318.115 204.97 318.178 204.905C318.241 204.848 318.291 204.777 318.324 204.698C318.36 204.618 318.375 204.532 318.375 204.446C318.488 197.394 319.8 96.9279 319.8 96.9279C319.815 96.8173 319.8 96.7045 319.764 96.5993C319.728 96.494 319.669 96.3989 319.588 96.3211ZM246.623 229.161L229.092 226.799L228.911 224.651H229.059C230.42 224.848 240.621 226.16 242.654 226.389C247.066 226.881 262.908 228.472 263.974 228.571C263.735 229.563 263.735 230.596 263.974 231.588L246.623 229.161ZM275.356 217.583C276.016 219.725 276.499 221.92 276.799 224.143C276.74 224.458 276.572 224.743 276.324 224.946C275.586 225.664 274.766 226.291 273.88 226.816C271.069 228.49 268.148 229.974 265.139 231.26C265.274 230.282 265.195 229.287 264.909 228.341C265.762 227.98 268.698 226.701 271.322 225.438C272.817 224.76 274.249 223.954 275.602 223.027C275.628 223.003 275.647 222.974 275.661 222.941C275.674 222.909 275.683 222.874 275.683 222.839C275.683 222.803 275.674 222.769 275.661 222.736C275.647 222.704 275.628 222.675 275.602 222.65C275.55 222.598 275.479 222.569 275.405 222.569C275.332 222.569 275.26 222.598 275.208 222.65C274.192 223.287 273.121 223.835 272.01 224.29C269.009 225.586 265.106 227.045 264.302 227.341C263.581 227.341 232.044 224.225 230.486 224.061C240.326 220.633 240.326 219.682 240.473 218.206C240.457 216.551 240.264 214.901 239.899 213.286C238.948 208.366 237.062 202.134 236.488 200.166L271.666 202.609H271.092C271.666 204.43 273.88 211.875 275.356 217.616V217.583ZM317.095 203.626C313.699 203.479 250.707 200.346 236.816 199.411C216.529 198.149 196.652 196.738 183.139 195.279V112.508C186.009 112.098 249.854 103.947 264.434 102.373C282.474 100.421 301.417 98.6335 318.44 97.5511L317.095 203.626Z" fill="white"/>
<path fill-rule="evenodd" clip-rule="evenodd" d="M264.483 193.515C263.597 193.515 251.674 192.925 250.576 192.909C249.477 192.892 243.606 192.909 243.606 192.909C243.569 192.906 243.532 192.911 243.498 192.924C243.463 192.936 243.431 192.954 243.403 192.978C243.376 193.003 243.354 193.033 243.338 193.066C243.321 193.099 243.313 193.134 243.31 193.171C243.31 193.242 243.338 193.31 243.387 193.362C243.435 193.414 243.502 193.446 243.573 193.45C244.278 193.45 253.331 194.581 264.434 194.729H271.404C271.439 194.733 271.475 194.731 271.507 194.721C271.542 194.71 271.573 194.694 271.599 194.67C271.626 194.646 271.647 194.617 271.661 194.586C271.676 194.553 271.682 194.518 271.682 194.483C271.685 194.446 271.68 194.409 271.668 194.375C271.655 194.341 271.637 194.308 271.613 194.281C271.588 194.253 271.558 194.232 271.525 194.215C271.492 194.199 271.457 194.191 271.42 194.188C271.42 194.188 266.09 193.647 264.483 193.515ZM293.937 131.655L295.725 134.935L297.152 133.901L295.43 130.933L298.103 129.637L290.952 123.323L291.362 132.901L293.937 131.655ZM285.934 141.429C285.918 141.46 285.908 141.496 285.905 141.532C285.904 141.568 285.91 141.604 285.922 141.638C285.934 141.672 285.953 141.702 285.978 141.728C286.002 141.756 286.032 141.776 286.065 141.79C286.635 142.203 287.227 142.587 287.836 142.938C288.525 143.331 290.1 144.037 290.838 144.332C291.28 144.512 293.822 145.447 294.019 145.021C294.036 144.989 294.045 144.954 294.048 144.918C294.049 144.881 294.044 144.846 294.031 144.812C294.019 144.777 294 144.747 293.975 144.721C293.951 144.694 293.921 144.674 293.888 144.66L293.183 144.168C291.371 143.01 289.399 142.126 287.328 141.544C286.688 141.363 286.295 141.298 286.295 141.298C286.229 141.269 286.156 141.267 286.088 141.291C286.021 141.316 285.965 141.365 285.934 141.429ZM279.505 155.697C278.559 154.162 277.224 152.906 275.635 152.056C275.61 152.031 275.58 152.011 275.549 151.999C275.516 151.985 275.482 151.978 275.446 151.978C275.411 151.978 275.377 151.985 275.344 151.999C275.312 152.011 275.282 152.031 275.258 152.056C275.233 152.081 275.214 152.111 275.2 152.142C275.187 152.175 275.18 152.209 275.18 152.245C275.18 152.28 275.187 152.314 275.2 152.347C275.214 152.379 275.233 152.409 275.258 152.433C275.367 152.666 275.494 152.891 275.635 153.106C276.579 154.579 277.883 155.787 279.423 156.615C279.446 156.643 279.475 156.665 279.508 156.681C279.541 156.696 279.576 156.703 279.612 156.703C279.647 156.703 279.683 156.696 279.716 156.681C279.749 156.665 279.777 156.643 279.8 156.615C279.848 156.564 279.874 156.496 279.874 156.427C279.874 156.357 279.848 156.29 279.8 156.238L279.505 155.697ZM210.363 134.951C210.323 134.892 210.262 134.849 210.193 134.831C210.124 134.813 210.05 134.82 209.986 134.853C206.57 136.126 203.385 137.948 200.556 140.248C200.497 140.288 200.453 140.349 200.435 140.418C200.418 140.487 200.424 140.561 200.457 140.625C200.495 140.688 200.556 140.733 200.625 140.751C200.696 140.77 200.771 140.759 200.834 140.724C204.243 139.434 207.426 137.612 210.264 135.328C210.325 135.288 210.367 135.228 210.385 135.158C210.402 135.089 210.396 135.015 210.363 134.951ZM218.12 148.448C216.546 149.379 215.078 150.479 213.741 151.728C208.674 156.14 209.986 156.238 210.264 155.976C210.264 155.976 210.724 155.713 211.429 155.238C214.046 153.425 216.421 151.287 218.497 148.875C218.525 148.851 218.546 148.824 218.563 148.793C218.579 148.763 218.589 148.729 218.591 148.693C218.594 148.657 218.591 148.623 218.581 148.589C218.57 148.555 218.553 148.525 218.53 148.497C218.508 148.47 218.479 148.448 218.448 148.432C218.418 148.415 218.384 148.406 218.348 148.403C218.313 148.401 218.279 148.403 218.244 148.414C218.212 148.425 218.18 148.441 218.153 148.465L218.12 148.448ZM243.72 223.068C242.408 222.173 240.964 221.487 239.44 221.035C239.383 220.759 239.272 220.496 239.112 220.264C238.821 219.872 238.453 219.542 238.03 219.296C236.586 218.479 234.99 217.97 233.339 217.804C231.284 217.548 229.197 217.813 227.271 218.575C224.188 219.854 216.628 224.495 208.198 227.513C203.874 229.19 199.289 230.089 194.652 230.169C188.33 230.202 182.026 230.877 175.841 232.187C167.788 233.827 160.589 235.991 158.014 237.582L152.881 230.104H153.028C154.171 229.663 155.27 229.113 156.308 228.464C157.065 228.058 157.73 227.5 158.26 226.824C158.297 226.765 158.316 226.697 158.316 226.627C158.316 226.557 158.297 226.489 158.26 226.43C158.204 226.328 158.11 226.251 157.998 226.217C157.824 226.106 157.636 226.019 157.44 225.955C155.417 225.875 153.392 225.908 151.372 226.053C147.002 214.998 141.413 204.464 134.71 194.647C130.748 188.828 126.362 183.308 121.59 178.132C123.492 174.557 125.641 170.309 129.282 162.159C130.617 161.507 131.767 160.53 132.627 159.317C133.486 158.106 134.028 156.697 134.202 155.221C136.17 155.976 137.481 153.155 137.891 150.892C140.417 151.876 144.976 153.614 147.551 154.434C147.97 154.587 148.405 154.697 148.846 154.762C150.601 154.762 157.046 145.332 158.194 143.282C158.529 142.738 158.742 142.129 158.818 141.495C158.8 141.281 158.733 141.076 158.621 140.895C158.51 140.713 158.358 140.558 158.178 140.445C155.652 138.51 144.5 135.951 140.253 135.312C136.58 134.771 136.694 134.902 134.448 137.755C133.595 138.838 132.66 140.117 131.856 141.232C130.367 141.284 128.887 141.499 127.445 141.872C122.426 143.184 120.885 144.988 120.032 148.055C119.322 150.448 118.995 152.939 119.064 155.435C114.997 159.453 111.98 162.634 108.749 166.127C100.322 159.099 91.0898 153.099 81.2459 148.251L82.2299 141.691C87.8715 141.691 95.6615 140.051 97.6623 134.754C98.5914 132.141 99.294 129.452 99.7615 126.718C100.401 123.127 100.664 119.994 100.746 118.912L103.927 117.419C104.065 117.355 104.175 117.244 104.238 117.106C104.301 116.967 104.313 116.811 104.272 116.665C104.272 116.665 100.319 101.905 100.073 100.888C102.123 100.429 103.648 100.003 103.648 100.003C103.648 73.7626 79.0483 68.2686 79.0483 68.2686C79.0483 68.2686 86.8219 58.4286 87.7403 52.0654C88.6587 45.7022 80.8523 43.5702 70.6023 46.309C60.3523 49.0478 67.0435 67.1206 67.0435 67.1206C62.3695 66.0874 53.5463 71.3682 53.5463 71.3682C46.9863 37.1742 29.0282 51.5242 27.3062 61.643C25.5842 71.7618 48.3803 74.0742 48.3803 74.0742C33.1119 80.4702 27.749 132.065 27.749 132.065C31.2587 134.771 38.2451 136.427 45.7891 137.427C31.5566 147.463 20.6486 161.524 14.465 177.804C11.7545 184.825 9.90957 192.149 8.97095 199.616C7.22772 214.554 8.34083 229.685 12.251 244.208C14.7324 253.865 18.024 263.296 22.091 272.399C22.1192 272.465 22.1723 272.516 22.2384 272.542C22.2711 272.555 22.3061 272.562 22.3413 272.561C22.3765 272.561 22.4112 272.552 22.4436 272.539C22.4758 272.525 22.5051 272.505 22.5295 272.479C22.554 272.454 22.5733 272.424 22.5863 272.391C22.5992 272.358 22.6055 272.324 22.605 272.289C22.6044 272.253 22.5969 272.219 22.583 272.186C18.6611 263.064 15.496 253.635 13.1202 243.995C9.38232 229.548 8.39209 214.527 10.201 199.715C11.1634 192.354 13.008 185.135 15.695 178.214C21.8782 162.034 32.8158 148.107 47.0683 138.264C73.6855 142.003 109.995 161.224 133.874 195.221C140.645 204.95 146.317 215.4 150.782 226.381C144.789 231.902 138.186 236.721 131.102 240.747C127.549 242.778 123.867 244.574 120.081 246.127C116.311 247.687 112.416 248.927 108.437 249.833C105.485 245.635 91.2335 221.035 91.1187 220.903C91.1029 220.872 91.0811 220.843 91.0543 220.82C91.0275 220.797 90.9962 220.78 90.9628 220.77C90.9288 220.759 90.8933 220.754 90.8581 220.759C90.8229 220.761 90.7889 220.772 90.7579 220.789C90.7236 220.804 90.6935 220.827 90.6688 220.854C90.6443 220.883 90.6258 220.916 90.6151 220.951C90.604 220.987 90.6011 221.025 90.6058 221.062C90.6106 221.099 90.6234 221.135 90.6431 221.166C90.6431 221.166 91.2991 222.609 92.4143 224.889C96.1863 232.58 102.386 243.634 107.945 250.161C106.305 252.801 103.452 258.689 106.568 258.443C108.519 258.295 110.963 255.803 111.488 255.491C118.935 263.403 127.472 270.211 136.842 275.712C143.5 279.419 150.798 282.125 157.932 282.272H158.03C167.592 280.632 177.71 275.253 187.091 268.578C203.016 257.246 216.923 242.338 222.925 236.287C223.918 235.293 224.975 234.366 226.09 233.515C227.883 233.829 229.698 233.999 231.519 234.023C232.885 234.047 234.251 233.959 235.602 233.761C237.93 233.491 240.17 232.713 242.162 231.481C243.228 230.83 244.167 229.991 244.934 229.005C245.519 228.275 245.832 227.365 245.82 226.43C245.795 225.851 245.625 225.288 245.328 224.79C244.919 224.109 244.372 223.522 243.72 223.068ZM54.1203 138.28C65.8627 139.182 76.7359 138.92 76.7359 138.92C76.1455 135.017 70.8647 116.353 70.8647 116.353C66.7483 116.681 63.1403 113.729 65.6823 108.006C68.2243 102.282 74.1611 106.366 74.1611 106.366C79.0957 104.689 83.544 101.829 87.1171 98.0346C87.6094 99.4098 88.3927 100.663 89.4131 101.708C90.4627 102.774 95.6451 101.856 99.4499 101.019C99.7123 102.463 100.155 104.611 100.647 106.841C101.008 108.563 102.664 115.632 102.861 116.452L99.7779 117.715C99.0235 118.059 99.7779 118.633 98.3675 126.325C97.9211 128.978 97.252 131.59 96.3667 134.131C95.9397 135.126 95.3198 136.027 94.543 136.781C93.766 137.535 92.8473 138.128 91.8403 138.526C88.6423 139.83 85.2386 140.557 81.7871 140.675C81.6723 140.67 81.5602 140.71 81.4743 140.787C81.3887 140.863 81.336 140.97 81.3279 141.085L79.6059 147.464C71.4915 143.434 62.9399 140.352 54.1203 138.28ZM134.48 154.123C133.66 154.123 134.858 150.154 134.907 149.908L137.022 150.728C136.71 151.859 135.76 154.106 134.48 154.123ZM136.989 136.181C140.974 136.361 155.357 139.969 157.145 141.659C156.8 143.381 151.52 150.334 149.502 152.515C148.19 153.909 151.142 154.631 131.184 147.825C132.201 146.283 133.759 143.528 132.02 142.905C131.773 142.837 131.512 142.837 131.266 142.905C133.017 140.516 134.953 138.268 137.055 136.181H136.989ZM133.595 149.301C133.316 150.236 132.89 152.991 132.053 152.581C131.217 152.171 131.561 149.76 131.938 148.661L133.595 149.301ZM110.848 167.948L109.208 166.554C110.159 165.701 115.768 160.568 116.276 159.994C118.441 157.911 120.229 156.156 120.229 156.156C120.299 156.086 120.354 156.002 120.388 155.908C120.422 155.815 120.435 155.715 120.426 155.615C120.276 153.202 120.497 150.779 121.082 148.432C121.392 146.937 122.238 145.608 123.46 144.693C125.82 143.24 128.455 142.291 131.2 141.905L130.298 143.184C127.018 144.955 122.951 150.81 122.82 150.974C122.797 151.001 122.78 151.031 122.77 151.065C122.759 151.1 122.755 151.134 122.758 151.169C122.761 151.205 122.771 151.239 122.787 151.269C122.804 151.3 122.826 151.328 122.853 151.351C122.88 151.374 122.911 151.391 122.944 151.402C122.978 151.412 123.013 151.415 123.048 151.412C123.083 151.41 123.117 151.4 123.148 151.384C123.18 151.367 123.207 151.346 123.23 151.318C123.853 150.728 130.676 143.758 131.578 144.119C132.48 144.479 126.658 152.023 127.199 152.466C127.74 152.909 130.626 148.776 130.938 148.301L131.479 148.514C130.561 150.301 129.839 152.745 131.61 153.745C131.826 153.864 132.069 153.927 132.316 153.927C132.562 153.927 132.805 153.864 133.021 153.745C133.07 154.104 133.199 154.445 133.398 154.746C133.075 156.64 132.086 158.355 130.61 159.584C127.33 162.487 129.364 157.681 123.492 171.457C122.968 172.671 122.492 173.852 122.082 174.869C121.672 175.885 121.229 177.017 121 177.624C117.779 174.231 114.391 171.001 110.848 167.948ZM107.092 256.918C106.895 257.011 106.685 257.071 106.469 257.098C106.976 254.953 107.817 252.898 108.962 251.014C112.916 250.084 116.789 248.834 120.54 247.275C124.359 245.661 128.063 243.786 131.627 241.666C138.726 237.465 145.305 232.438 151.224 226.693C153.235 226.571 155.249 226.571 157.26 226.693C156.796 227.084 156.296 227.429 155.767 227.726C154.771 228.309 153.723 228.797 152.635 229.185C152.329 229.251 152.04 229.385 151.793 229.579C151.546 229.772 151.346 230.019 151.208 230.301C150.831 231.268 151.602 232.121 150.634 233.581C149.322 235.499 147.502 234.45 145.206 234.991C142.467 235.631 143.566 239.911 141.926 241.321C140.286 242.732 136.907 240.239 135.366 242.535C134.513 243.831 134.94 245.946 134.185 247.127C133.431 248.308 129.511 245.028 127.199 247.389C126.438 248.546 125.753 249.751 125.149 250.997C124.017 252.736 122.361 250.604 120.229 250.489C116.293 250.292 119.425 259.607 114.144 255.409C113.639 254.98 113.089 254.607 112.504 254.294C110.602 253.228 110.028 255.688 107.092 256.918ZM221.892 235.253C215.922 241.223 202.081 256.131 186.271 267.479C177.071 274.039 167.198 279.468 157.801 281.124C150.847 281.124 143.713 278.467 137.202 274.925C128.065 269.667 119.698 263.172 112.34 255.622C112.757 255.886 113.157 256.176 113.538 256.491C119.819 261.411 119.081 251.752 120.393 251.817C122.787 251.932 124.772 255.671 127.658 249.472C127.827 249.043 128.065 248.644 128.363 248.291C130.118 246.487 133.841 250.423 135.497 247.799C136.612 246.012 135.842 243.076 137.137 242.879C138.432 242.683 139.613 243.339 140.991 243.125C145.353 242.486 143.336 236.565 145.501 236.057C146.315 235.886 147.146 235.814 147.977 235.844C148.619 235.86 149.261 235.755 149.863 235.532C150.54 235.247 151.112 234.76 151.503 234.138C152.602 232.498 151.897 231.285 152.11 230.678C152.143 230.596 152.2 230.528 152.274 230.481L157.637 238.599C157.659 238.635 157.688 238.663 157.72 238.686C157.754 238.71 157.794 238.725 157.834 238.73C157.913 238.762 158 238.762 158.08 238.73C160.359 237.189 167.723 234.811 175.972 233.269C182.099 231.972 188.34 231.29 194.602 231.235C199.373 231.205 204.099 230.321 208.559 228.628C217.021 225.659 224.631 221.067 227.73 219.805C229.455 219.13 231.322 218.898 233.159 219.132C234.438 219.278 235.684 219.632 236.849 220.182C237.279 220.364 237.662 220.645 237.964 221.002C238.023 221.093 238.067 221.193 238.095 221.297H237.767C237.245 221.054 236.694 220.877 236.127 220.772C233.894 220.361 231.603 220.361 229.37 220.772C229.284 220.784 229.201 220.815 229.127 220.86C229.052 220.905 228.988 220.964 228.936 221.033C228.884 221.104 228.846 221.184 228.825 221.268C228.805 221.353 228.801 221.44 228.813 221.527C228.827 221.613 228.855 221.696 228.9 221.77C228.945 221.845 229.004 221.909 229.075 221.961C229.145 222.013 229.224 222.051 229.309 222.072C229.394 222.092 229.481 222.096 229.567 222.084C231.148 221.863 232.746 221.792 234.34 221.871H235.192C235.526 221.924 235.854 222.001 236.176 222.101C237.029 222.289 237.786 222.778 238.308 223.478C235.65 223.068 232.935 223.219 230.338 223.921H230.141C229.987 223.981 229.858 224.095 229.78 224.242C229.703 224.388 229.681 224.559 229.719 224.72C229.757 224.883 229.851 225.025 229.987 225.122C230.122 225.219 230.287 225.264 230.453 225.249H230.682C232.359 224.884 234.068 224.677 235.783 224.626H236.98C237.493 224.671 237.998 224.77 238.489 224.921C238.662 224.983 238.828 225.066 238.981 225.167C239.061 225.217 239.15 225.251 239.243 225.266C239.411 225.355 239.558 225.478 239.674 225.628C239.79 225.777 239.872 225.95 239.916 226.135L239.702 226.233C239.41 226.346 239.108 226.434 238.8 226.496C235.981 226.997 233.23 227.823 230.6 228.956C227.355 230.51 224.42 232.644 221.941 235.253H221.892ZM243.835 228.037C243.142 228.939 242.286 229.701 241.31 230.284C239.484 231.402 237.445 232.128 235.324 232.416C234.028 232.642 232.719 232.784 231.404 232.843C229.869 232.925 228.33 232.925 226.796 232.843C227.681 232.219 228.534 231.695 229.37 231.203C232.732 229.526 236.316 228.339 240.014 227.677C241.014 227.349 241.375 226.807 241.31 226.168C241.256 225.763 241.11 225.376 240.883 225.038C240.655 224.699 240.353 224.418 239.998 224.216C239.866 223.429 239.488 222.706 238.915 222.15L239.112 221.953C239.202 221.833 239.275 221.7 239.325 221.559C240.178 221.946 241.001 222.394 241.785 222.904C242.746 223.489 243.555 224.293 244.147 225.249C244.392 225.685 244.498 226.186 244.452 226.684C244.404 227.182 244.207 227.655 243.884 228.037H243.835Z" fill="white"/>
<path fill-rule="evenodd" clip-rule="evenodd" d="M133.644 180.528C138.412 182.592 143.351 184.237 148.404 185.448C153.061 186.547 149.699 184.563 140.204 181.594C136.776 180.528 134.185 179.954 133.939 179.954C133.903 179.936 133.863 179.926 133.823 179.924C133.783 179.923 133.742 179.93 133.705 179.946C133.667 179.961 133.634 179.986 133.607 180.016C133.579 180.046 133.559 180.081 133.547 180.12C133.535 180.158 133.531 180.199 133.537 180.24C133.542 180.28 133.556 180.318 133.578 180.352C133.599 180.386 133.628 180.416 133.662 180.438C133.697 180.46 133.735 180.474 133.775 180.479L133.644 180.528ZM140.892 174.116L137.465 173.296L136.006 174.854L139.794 175.854L140.892 174.116ZM241.08 174.395C240.227 174.395 239.538 175.346 239.538 176.527C239.538 177.708 240.227 178.642 241.08 178.642C241.933 178.642 242.605 177.691 242.605 176.527C242.605 175.362 241.982 174.395 241.08 174.395ZM255.971 174.395C255.118 174.395 254.43 175.346 254.43 176.527C254.43 177.708 255.118 178.642 255.971 178.642C256.824 178.642 257.496 177.691 257.496 176.527C257.496 175.362 256.808 174.395 255.971 174.395ZM94.1038 147.81C94.2493 147.813 94.3939 147.785 94.5284 147.73C94.6629 147.674 94.7848 147.592 94.8862 147.487C94.9876 147.382 95.0666 147.258 95.1182 147.122C95.1698 146.986 95.1928 146.841 95.1862 146.695C95.1862 145.941 95.1862 145.203 95.2682 144.448C95.2974 144.148 95.2124 143.848 95.0299 143.608C94.8475 143.367 94.5812 143.205 94.2842 143.153C92.841 142.956 93.0214 144.973 93.0214 146.597C93.0157 146.898 93.124 147.19 93.3249 147.416C93.5256 147.64 93.8035 147.781 94.1038 147.81Z" fill="white"/>
</svg>
