<svg width="31" height="30" viewBox="0 0 31 30" fill="none" xmlns="http://www.w3.org/2000/svg">
    <path d="M1.00009 15C1.00009 7.28973 7.40357 1 15.3517 1C23.2999 1 29.7034 7.28973 29.7034 15C29.7034 22.7103 23.2999 29 15.3517 29C7.40357 29 1.00009 22.7103 1.00009 15Z" stroke="#75BF72" stroke-width="2"/>
    <path d="M11.805 18.9051L10.1729 18.7357C9.85307 18.7085 9.54953 18.5722 9.31671 18.3519C9.08392 18.1316 8.93707 17.8414 8.9028 17.5335C8.86839 17.2256 8.94867 16.92 9.12907 16.6717L11.5828 14.9289C11.7824 14.7873 12.0242 14.7093 12.2762 14.7051C12.5281 14.7011 12.7782 14.7707 12.9936 14.9054C13.2091 15.0401 15.9922 16.8029 15.9922 16.8029C16.2377 16.9354 16.5305 16.9446 16.7747 16.8275C17.0187 16.7104 17.1822 16.4822 17.2114 16.2181C17.2404 15.954 17.1313 15.688 16.9199 15.508L14.0723 13.3999C13.8692 13.2481 13.7167 13.0425 13.6345 12.8096C13.5524 12.5768 13.5447 12.3282 13.6125 12.0967L14.4479 9.25848C14.6249 9.00735 14.8911 8.82857 15.1991 8.75387C15.507 8.67931 15.8368 8.71365 16.1292 8.85083C16.4217 8.98812 16.6577 9.2192 16.7956 9.50303L18.8915 13.6897L20.9818 17.8844C21.1915 18.3089 21.1556 18.8005 20.887 19.1753C20.6185 19.5499 20.1582 19.7511 19.6781 19.7038L14.9349 19.2113L14.1528 19.1321L11.805 18.9051Z" fill="#75BF72"/>
    </svg>
    