<svg width="328" height="328" viewBox="0 0 328 328" fill="none" xmlns="http://www.w3.org/2000/svg">
<path fill-rule="evenodd" clip-rule="evenodd" d="M268.743 36.8065C226.049 37.4789 50.1463 37.8447 6.14838 37.2854C3.53586 37.2526 3.33742 32.8 6.04178 32.8C51.396 32.8558 208.182 31.9915 268.658 33.292C271.569 33.3511 270.779 36.7737 268.743 36.8065Z" fill="#F1F4F6"/>
<path fill-rule="evenodd" clip-rule="evenodd" d="M216.354 164.681C213.408 165.952 210.278 166.746 207.083 167.031C207.389 170.786 207.349 174.562 206.961 178.311C206.919 178.513 206.807 178.694 206.644 178.821C206.482 178.949 206.279 179.014 206.073 179.007C205.866 179 205.669 178.919 205.516 178.78C205.363 178.642 205.264 178.453 205.236 178.248C204.929 175.685 205.646 172.908 205.13 167.157C201.294 167.26 199.496 166.071 196.126 165.614C187.745 164.469 179.69 161.611 172.462 157.217C172.248 157.052 172.106 156.81 172.069 156.542C172.032 156.274 172.102 156.002 172.264 155.785C179.68 146.729 185.382 136.397 189.092 125.296C189.53 124.041 190.981 122.355 190.988 124.515C191.006 130.052 190.36 135.585 190.36 141.13C190.36 151.193 190.627 161.958 200.431 164.487C206.443 166.034 212.039 164.072 215.76 163.078C216.644 162.834 217.3 164.223 216.354 164.681Z" fill="#F1F4F6"/>
<path fill-rule="evenodd" clip-rule="evenodd" d="M202.161 143.149C201.302 144.814 204.231 144.617 205.987 144.701C206.209 144.719 206.417 144.815 206.574 144.973C206.732 145.13 206.828 145.338 206.847 145.56C206.866 145.781 206.805 146.003 206.676 146.184C206.548 146.365 206.359 146.495 206.143 146.55C204.982 146.707 203.801 146.64 202.665 146.354C200.634 145.932 199.085 145.184 200.19 142.91C200.905 141.374 201.716 139.886 202.62 138.454C202.731 138.28 202.901 138.153 203.099 138.096C203.297 138.039 203.509 138.056 203.695 138.143C203.882 138.231 204.03 138.383 204.112 138.572C204.194 138.76 204.205 138.973 204.142 139.169C203.584 140.544 202.921 141.874 202.161 143.149Z" fill="white"/>
<path fill-rule="evenodd" clip-rule="evenodd" d="M213.289 136.738C213.308 137.791 213.387 139.387 211.836 139.428C210.586 139.462 210.235 138.357 210.241 136.879C210.248 134.218 213.225 133.476 213.289 136.738Z" fill="white"/>
<path fill-rule="evenodd" clip-rule="evenodd" d="M198.658 136.671C198.632 137.678 198.204 138.628 197.041 138.58C196.07 138.541 195.721 137.229 195.749 136.364C195.79 135.088 196.192 134.437 196.998 134.26C198.237 133.988 198.693 135.408 198.658 136.671Z" fill="white"/>
<path fill-rule="evenodd" clip-rule="evenodd" d="M197.535 129.16C196.885 129.085 196.227 129.193 195.635 129.472C195.044 129.75 194.542 130.189 194.186 130.738C193.287 132.066 192.326 130.975 192.667 130.188C193.105 129.231 193.838 128.44 194.759 127.93C195.68 127.421 196.741 127.22 197.784 127.358C198.017 127.397 198.226 127.526 198.365 127.717C198.505 127.908 198.565 128.145 198.533 128.379C198.501 128.614 198.378 128.826 198.192 128.972C198.006 129.118 197.77 129.185 197.535 129.16Z" fill="white"/>
<path fill-rule="evenodd" clip-rule="evenodd" d="M210.894 128.934C210.689 128.932 210.492 128.858 210.337 128.724C210.181 128.591 210.079 128.406 210.047 128.204C210.016 128.001 210.057 127.794 210.164 127.62C210.271 127.445 210.437 127.314 210.632 127.251C211.883 126.983 213.19 127.176 214.31 127.796C215.43 128.416 216.288 129.42 216.726 130.623C216.997 131.562 215.742 132.333 215.266 131.279C214.889 130.468 214.259 129.801 213.471 129.378C212.683 128.955 211.779 128.799 210.894 128.934Z" fill="white"/>
<path fill-rule="evenodd" clip-rule="evenodd" d="M203.081 151.971C203.786 153.559 205.038 154.841 206.608 155.585C208.178 156.328 209.963 156.484 211.639 156.023C213.367 155.465 214.818 154.273 215.701 152.686C216.584 151.1 216.832 149.238 216.395 147.475C216.195 146.655 215.46 146.37 214.578 147.065C210.886 149.975 208.154 150.429 203.791 150.501C203.083 150.513 202.668 151.147 203.081 151.971Z" fill="#F1F4F6"/>
<path fill-rule="evenodd" clip-rule="evenodd" d="M83.7843 183.555C84.1746 184.295 83.0824 185.089 82.4723 184.539C78.9414 181.343 72.4765 176.831 70.6528 172.567C68.1928 166.827 69.536 159.639 64.6685 154.995C64.493 154.845 64.382 154.633 64.3586 154.403C64.3351 154.173 64.401 153.943 64.5426 153.761C64.6841 153.579 64.8904 153.458 65.1187 153.423C65.3471 153.389 65.5799 153.444 65.7689 153.576C71.1481 157.36 70.128 164.768 72.6192 170.14C75.1448 175.58 81.016 178.322 83.7843 183.555Z" fill="#F1F4F6"/>
<path fill-rule="evenodd" clip-rule="evenodd" d="M47.8077 175.178C42.7898 174.183 38.0964 171.961 34.1465 168.71C32.8787 167.593 34.3974 166.693 35.3223 167.318C39.2507 170.093 43.7465 171.961 48.485 172.787C53.1099 173.471 57.8183 173.35 62.402 172.43C63.532 172.279 63.5074 173.932 62.73 174.398C59.1942 176.521 51.7765 176.052 47.8077 175.178Z" fill="#F1F4F6"/>
<path fill-rule="evenodd" clip-rule="evenodd" d="M26.955 172.622C26.2531 171.852 27.4339 170.831 28.2047 171.388C33.468 175.427 39.5111 178.33 45.9528 179.916C50.9843 181.064 49.5887 183.419 45.0721 182.488C38.1518 181.169 31.8172 177.719 26.955 172.622Z" fill="#F1F4F6"/>
<path fill-rule="evenodd" clip-rule="evenodd" d="M46.5038 190.593C40.526 190.247 32.2473 187.491 27.7603 183.559C27.6025 183.415 27.5013 183.219 27.4749 183.007C27.4486 182.796 27.4988 182.581 27.6166 182.403C27.7343 182.225 27.9118 182.095 28.1171 182.036C28.3224 181.977 28.5419 181.994 28.7361 182.083C35.5568 185.425 39.1943 187.122 46.8171 188.069C51.2418 188.62 51.1122 190.86 46.5038 190.593Z" fill="#F1F4F6"/>
<path fill-rule="evenodd" clip-rule="evenodd" d="M72.9242 198.245C74.1264 199.065 72.7603 201.084 71.5352 200.359C65.0703 196.552 57.7083 198.883 50.6859 198.871C43.8385 198.987 37.1306 196.93 31.5257 192.995C30.7172 192.39 31.6077 191.18 32.4622 191.572C38.8796 194.813 46.0077 196.391 53.1934 196.164C59.8305 195.762 67.0235 194.227 72.9242 198.245Z" fill="#F1F4F6"/>
<path fill-rule="evenodd" clip-rule="evenodd" d="M321.725 295.215C256.084 296.013 69.1883 294.369 29.2675 293.903C26.6959 293.873 24.6558 290.97 29.1937 290.951C80.5257 290.687 245.282 290.749 321.63 291.453C324.636 291.472 324.645 295.179 321.725 295.215Z" fill="#F1F4F6"/>
<path fill-rule="evenodd" clip-rule="evenodd" d="M195.24 176.557C180.808 178.853 153.165 194.284 138.111 214.192C152.379 212.032 194.461 211.663 206.555 213.082C202.005 207.541 196.966 202.42 191.5 197.781C193.599 195.375 195.573 193.504 197.3 191.857C193.845 189.725 188.164 186.324 185.656 185.153C188.497 181.916 191.714 179.03 195.24 176.557Z" fill="#F1F4F6"/>
<path fill-rule="evenodd" clip-rule="evenodd" d="M226.796 192.597C228.646 194.441 230.224 196.539 231.483 198.829C226.423 201.728 216.611 207.158 210.689 213.451C216.344 214.192 220.037 216.936 222.005 225.259C222.851 228.829 224.019 234.558 225.177 240.988C235.891 238.647 246.783 237.207 257.737 236.683C255.815 231.761 253.246 227.117 250.097 222.874C249.421 221.981 250.674 220.846 251.42 221.713C255.224 226.079 258.167 231.125 260.094 236.585C265.001 236.295 269.923 236.364 274.82 236.793C275.935 236.919 275.948 238.587 274.793 238.559C258.256 238.02 241.716 239.579 225.571 243.197C227.219 252.598 228.77 263.102 229.257 270.457C254.677 270.21 295.917 282.77 302.308 267.618C316.622 233.685 273.149 180.128 242.217 175.439C244.827 179.053 246.656 183.172 247.584 187.532C244.196 188.708 231.24 191.793 226.796 192.597Z" fill="#F1F4F6"/>
<path fill-rule="evenodd" clip-rule="evenodd" d="M207.767 202.223C202.568 189.249 202.709 182.343 201.226 175.983C201.192 175.764 201.075 175.566 200.899 175.431C200.723 175.295 200.502 175.232 200.281 175.255C200.06 175.278 199.857 175.385 199.712 175.554C199.568 175.723 199.494 175.94 199.506 176.162C199.454 183.839 203.365 196.626 206.542 203.978C206.642 204.156 206.783 204.308 206.954 204.421C207.124 204.535 207.318 204.606 207.521 204.63C207.724 204.654 207.93 204.63 208.122 204.559C208.314 204.489 208.487 204.374 208.626 204.224C218.914 189.938 224.054 184.777 235.85 175.614C236.034 175.485 236.16 175.289 236.202 175.068C236.244 174.847 236.199 174.618 236.076 174.43C235.953 174.242 235.762 174.108 235.543 174.058C235.323 174.008 235.093 174.044 234.9 174.16C223.953 181.466 214.7 191.036 207.767 202.223Z" fill="#F1F4F6"/>
<path fill-rule="evenodd" clip-rule="evenodd" d="M124.125 215.673C114.006 209.503 96.8535 194.325 89.8212 184.723C82.7541 191.932 76.4671 199.866 71.0645 208.393C83.8663 227.273 104.14 247.64 116.845 253.557C115.369 247.263 114.994 229.864 115.369 224.311C115.745 218.758 119.93 216.537 124.125 215.673Z" fill="#F1F4F6"/>
<path fill-rule="evenodd" clip-rule="evenodd" d="M66.1428 215.386C69.2818 215.255 67.668 213.054 66.3298 213.028C48.4538 212.677 29.2953 212.241 15.8178 212.451C16.8592 134.572 16.236 85.4325 16.6624 41.551C16.6739 40.3883 14.9306 40.567 14.8781 41.674C13.1758 77.349 14.2221 173.42 12.9101 212.185C12.8642 213.513 12.956 214.361 15.8293 214.489C23.8768 214.85 31.7192 214.865 39.8126 215.004C47.25 215.134 58.935 215.688 66.1428 215.386Z" fill="#F1F4F6"/>
<path fill-rule="evenodd" clip-rule="evenodd" d="M261.988 138.088C262.777 122.098 262.531 105.896 262.603 89.872C262.646 80.3994 263.076 54.9663 262.969 42.4842C262.951 40.3227 260.722 41.5543 260.699 42.6482C260.268 63.8419 259.151 116.761 259.961 138.111C260.03 139.908 261.908 139.882 261.988 138.088Z" fill="#F1F4F6"/>
<path fill-rule="evenodd" clip-rule="evenodd" d="M41.7314 89.216C41.7314 84.0172 41.7757 78.8217 41.7314 73.6229C65.1474 73.4884 88.578 73.3556 111.991 72.9324C112.01 77.4818 111.991 82.0312 111.991 86.5805C89.626 87.1529 66.7562 87.9958 44.3243 88.3976C42.8794 88.4239 43.114 90.5821 44.5112 90.6002C67.1613 90.874 90.5067 89.4292 113.227 88.8404C113.528 88.8093 113.805 88.6629 114 88.4321C114.195 88.2012 114.293 87.9038 114.274 87.6022C114.274 82.2903 114.256 76.9767 114.292 71.6647C114.26 71.3618 114.112 71.083 113.879 70.8867C113.646 70.6904 113.346 70.5919 113.042 70.6118C88.8503 70.6266 64.6422 70.9562 40.4506 71.2793C40.1413 71.3113 39.8564 71.4619 39.6558 71.6996C39.4552 71.9372 39.3544 72.2433 39.3748 72.5536C39.5092 78.1624 39.7946 83.7581 39.9881 89.3636C40.016 90.5034 41.7298 90.3427 41.7314 89.216Z" fill="#F1F4F6"/>
<path fill-rule="evenodd" clip-rule="evenodd" d="M40.367 126.701C64.8227 125.747 90.0016 125.635 114.308 123.961C114.486 123.965 114.663 123.93 114.825 123.857C114.988 123.784 115.132 123.676 115.247 123.541C115.363 123.406 115.447 123.246 115.493 123.074C115.54 122.902 115.547 122.722 115.515 122.547C115.085 119.08 114.654 115.613 114.203 112.15C114.014 110.711 111.856 111.203 112.014 112.616C112.342 115.625 112.706 118.633 113.063 121.636C89.3193 122.638 65.3655 123.315 41.7233 124.073C41.7233 119.371 41.6987 114.662 41.8315 109.969C65.7345 109.721 89.2275 109.334 113.393 109.531C113.626 109.535 113.851 109.448 114.022 109.288C114.192 109.129 114.294 108.91 114.305 108.677C114.317 108.444 114.238 108.216 114.084 108.041C113.931 107.865 113.715 107.756 113.483 107.737C89.2242 106.62 64.8637 107.112 40.5031 107.161C40.3143 107.151 40.1253 107.178 39.9471 107.241C39.7689 107.304 39.6049 107.402 39.4647 107.529C39.3244 107.656 39.2107 107.809 39.1299 107.98C39.0492 108.151 39.0031 108.336 38.9943 108.525C39.196 114.123 39.1206 119.74 39.1403 125.344C39.1276 125.685 39.2487 126.018 39.4778 126.272C39.7069 126.525 40.0259 126.68 40.367 126.701Z" fill="#F1F4F6"/>
<path fill-rule="evenodd" clip-rule="evenodd" d="M112.296 159.544C100.553 159.7 85.6146 159.467 73.5688 160.036C72.5602 160.084 72.6061 162.14 73.595 162.157C84.4403 162.342 100.853 161.806 113.391 162.07C114.777 162.099 114.841 160.758 114.679 159.761C113.869 154.866 113.825 149.876 114.549 144.968C114.582 144.791 114.576 144.609 114.53 144.435C114.483 144.26 114.399 144.099 114.282 143.962C114.165 143.825 114.019 143.716 113.854 143.643C113.689 143.57 113.511 143.534 113.331 143.539C89.4718 144.104 65.6066 144.986 41.7495 145.368C41.4288 145.39 41.129 145.535 40.9131 145.773C40.6972 146.012 40.582 146.324 40.5916 146.646C40.549 151.808 40.5588 156.978 40.5228 162.134C40.5451 162.473 40.6986 162.791 40.9507 163.019C41.2029 163.248 41.534 163.37 41.8741 163.359C48.7621 163.106 54.1856 163.144 61.0752 162.719C62.2232 162.649 62.1265 160.577 60.9883 160.574C54.53 160.556 49.5493 160.627 43.0926 160.761C43.068 156.43 43.0631 152.099 43.0336 147.767C66.0297 146.947 89.0438 146.586 112.045 145.944C111.507 150.467 111.591 155.043 112.296 159.544Z" fill="#F1F4F6"/>
<path fill-rule="evenodd" clip-rule="evenodd" d="M168.048 174.836C169.133 175.093 169.428 173.35 168.376 173.041C156.891 169.382 147.258 161.438 141.48 150.86C128.145 127.044 136.396 95.8334 158.06 80.0009C177.248 65.9772 218.468 66.2626 231.758 89.1849C232.562 90.5707 234.65 89.813 233.98 88.3386C223.589 65.436 181.415 62.156 160.733 74.784C136.381 89.6588 125.086 121.829 137.15 148.195C143.218 161.46 154.488 171.624 168.048 174.836Z" fill="#F1F4F6"/>
<path fill-rule="evenodd" clip-rule="evenodd" d="M261.796 179.636C262.213 176.1 261.842 166.68 261.857 161.168C261.857 159.19 260.001 159.916 259.933 160.745C259.539 167.036 259.523 173.346 259.884 179.639C259.958 180.579 261.688 180.564 261.796 179.636Z" fill="#F1F4F6"/>
<path fill-rule="evenodd" clip-rule="evenodd" d="M267.678 276.632C257.888 275.484 237.588 274.226 224.406 274.008C224.406 266.439 217.167 223.168 212.56 219.548C208.149 216.081 124.456 215.435 121.001 222.008C116.458 230.661 123.966 284.266 128.112 285.681C134.857 287.977 263.066 287.595 268.66 287.157C271.584 286.936 272.001 277.135 267.678 276.632ZM146.836 224.711C141.975 225.22 137.324 225.892 132.476 226.602C128.279 227.217 127.982 228.096 127.526 232.124C126.949 236.907 126.671 241.721 126.697 246.538C126.697 247.563 125.206 247.832 125.07 246.753C124.442 241.225 124.484 235.641 125.194 230.123C125.663 226.502 126.998 224.875 130.606 224.139C135.941 223.061 141.387 222.634 146.824 222.866C147.045 222.898 147.247 223.009 147.393 223.177C147.54 223.345 147.621 223.561 147.623 223.784C147.624 224.007 147.545 224.223 147.401 224.393C147.257 224.563 147.056 224.676 146.836 224.711ZM168.264 261.331C164.795 261.987 161.038 260.111 159.685 254.82C158.509 250.228 160.669 246.763 164.484 245.787C173.619 243.451 176.956 259.669 168.264 261.331Z" fill="#F1F4F6"/>
<path fill-rule="evenodd" clip-rule="evenodd" d="M263.089 151.841C247.492 136.387 256.79 114.721 246.815 104.237C244.929 102.203 242.381 100.906 239.628 100.575C236.874 100.245 234.092 100.903 231.778 102.433C224.095 89.9376 208.423 86.9134 195.08 91.0708C180.538 95.6022 175.327 113.355 187.001 119.069C193.118 122.064 214.594 122.318 221.308 121.017C221.846 126.577 223.925 131.876 227.312 136.317C227.66 136.735 228.145 137.314 228.723 136.809C229.347 136.246 230.081 135.82 230.879 135.556C231.677 135.292 232.521 135.196 233.357 135.276C234.194 135.355 235.005 135.607 235.739 136.016C236.473 136.425 237.114 136.982 237.621 137.652C238.088 138.341 238.414 139.116 238.58 139.932C238.746 140.748 238.75 141.589 238.59 142.406C238.431 143.223 238.111 144.001 237.65 144.695C237.189 145.388 236.596 145.984 235.904 146.447C233.898 147.774 232.468 147.58 230.222 147.467C229.518 147.433 229.387 148.021 229.339 148.559C228.646 156.372 227.876 165.287 229.069 173.058C229.099 173.273 229.213 173.469 229.385 173.602C229.558 173.735 229.775 173.796 229.992 173.771C230.208 173.746 230.407 173.638 230.544 173.469C230.682 173.3 230.749 173.085 230.73 172.867C230.746 170.762 230.668 168.656 230.599 166.549C241.579 167.777 255.481 161.355 263.122 154.012C264.332 152.863 263.466 152.215 263.089 151.841ZM204.016 98.3836C201.339 98.3355 198.69 98.9371 196.297 100.137C193.638 101.413 189.125 104.584 189.428 107.91C189.518 108.907 188.085 109.518 187.713 108.489C185.917 103.533 190.916 99.6612 194.248 97.8424C197.217 96.2226 200.542 95.3686 203.924 95.3578C208.25 95.3627 206.465 98.4869 204.016 98.3836Z" fill="#F1F4F6"/>
</svg>
