<svg width="128" height="143" viewBox="0 0 128 143" fill="none" xmlns="http://www.w3.org/2000/svg">
<g filter="url(#filter0_d_248_430)">
<path d="M122.666 81.1738C120.48 81.1738 118.666 82.9872 118.666 85.1738C118.666 100.96 107.68 114.187 92.9063 117.654L94.3463 115.254C95.4663 113.334 94.8796 110.88 92.9596 109.76C91.093 108.64 88.5863 109.227 87.4663 111.147L81.8663 120.48C81.1196 121.707 81.1196 123.254 81.813 124.48C82.5063 125.76 83.8396 126.507 85.2796 126.507C108.053 126.507 126.613 107.947 126.613 85.1738C126.666 82.9872 124.853 81.1738 122.666 81.1738Z" fill="#F1F4F6"/>
<path d="M42.6667 1.17352C19.8934 1.17352 1.33337 19.7335 1.33337 42.5069C1.33337 44.6935 3.14671 46.5069 5.33337 46.5069C7.52004 46.5069 9.33337 44.6935 9.33337 42.5069C9.33337 26.7202 20.32 13.4935 35.0934 10.0269L33.6534 12.4269C32.5334 14.3469 33.12 16.8002 35.04 17.9202C36.9067 19.0402 39.4134 18.4535 40.5334 16.5335L46.1334 7.20019C46.8267 5.97352 46.88 4.48019 46.1334 3.20019C45.44 1.97352 44.1067 1.17352 42.6667 1.17352Z" fill="#F89E31"/>
<path d="M114.668 46.24C114.668 62.6666 102.721 76.2133 87.0946 78.72C87.0946 78.6666 87.0946 78.6666 87.0946 78.6133C85.5479 58.72 69.4412 42.5066 49.2812 40.9066C51.7879 25.28 65.3346 13.3333 81.7612 13.3333C99.9479 13.3333 114.668 28.0533 114.668 46.24Z" fill="#F1F4F6"/>
<path d="M52.318 75.7334C52.318 74.9334 51.4114 73.7067 50.2914 73.7067H39.3047V77.7067H50.2914C51.4114 77.76 52.318 76.8534 52.318 75.7334Z" fill="#F89E31"/>
<path d="M52.4247 85.7604H50.2914H39.3047V89.7604H52.478C54.1847 89.7604 55.358 88.6937 55.358 87.7337C55.358 86.7737 54.1314 85.7604 52.4247 85.7604Z" fill="#F89E31"/>
<path d="M79.0934 79.1985C77.8667 63.0385 64.96 50.1319 48.8 48.9052C47.9467 48.8519 47.1467 48.7985 46.24 48.7985C28.0534 48.7985 13.3334 63.5185 13.3334 81.7585C13.3334 99.9452 28.0534 114.665 46.24 114.665C64.4267 114.665 79.2001 99.9452 79.2001 81.7585C79.2001 80.8519 79.1467 80.0519 79.0934 79.1985ZM52.4267 97.7585H48.9067V99.7852C48.9067 101.972 47.0934 103.785 44.9067 103.785C42.72 103.785 40.9067 101.972 40.9067 99.7852V97.7585H35.3067C33.12 97.7585 31.3067 95.9452 31.3067 93.7585V81.7585V69.7585C31.3067 67.5719 33.12 65.7585 35.3067 65.7585H40.9067V63.7319C40.9067 61.5452 42.72 59.7319 44.9067 59.7319C47.0934 59.7319 48.9067 61.5452 48.9067 63.7319V65.7585H50.2934C55.6267 65.7585 60.32 70.4519 60.32 75.7852C60.32 77.3319 59.9467 78.7719 59.3067 80.1052C61.76 81.9185 63.3067 84.6919 63.3067 87.7852C63.3067 93.2785 58.4534 97.7585 52.4267 97.7585Z" fill="#F89E31"/>
</g>
<defs>
<filter id="filter0_d_248_430" x="0" y="0" width="128" height="144" filterUnits="userSpaceOnUse" color-interpolation-filters="sRGB">
<feFlood flood-opacity="0" result="BackgroundImageFix"/>
<feColorMatrix in="SourceAlpha" type="matrix" values="0 0 0 0 0 0 0 0 0 0 0 0 0 0 0 0 0 0 127 0" result="hardAlpha"/>
<feOffset dy="16"/>
<feColorMatrix type="matrix" values="0 0 0 0 0.972549 0 0 0 0 0.619608 0 0 0 0 0.192157 0 0 0 0.2 0"/>
<feBlend mode="normal" in2="BackgroundImageFix" result="effect1_dropShadow_248_430"/>
<feBlend mode="normal" in="SourceGraphic" in2="effect1_dropShadow_248_430" result="shape"/>
</filter>
</defs>
</svg>
